{
.appVersion = "3124";
classes = (
{
automatic = 1;
code = "A Aacute Acircumflex Adieresis Agrave Aring Atilde AE B C Ccedilla D Eth E Eacute Ecircumflex Edieresis Egrave F G H I Iacute Icircumflex Idieresis Igrave J K L M N Ntilde O Oacute Ocircumflex Odieresis Ograve Oslash Otilde OE P Thorn Q R S T U Uacute Ucircumflex Udieresis Ugrave V W X Y Yacute Z";
name = Uppercase;
}
);
copyright = "Copyright 2019 The Solitreo Project Authors (https://github.com/ladinoprojects/solitreo)";
customParameters = (
{
name = fsType;
value = (
);
},
{
name = "Disable Last Change";
value = 1;
},
{
name = "Use Typo Metrics";
value = 1;
},
{
name = "Use Line Breaks";
value = 1;
},
{
name = "Enforce Compatibility Check";
value = 0;
},
{
name = license;
value = "This Font Software is licensed under the SIL Open Font License, Version 1.1. This license is available with a FAQ at: https://scripts.sil.org/OFL";
},
{
name = licenseURL;
value = "https://scripts.sil.org/OFL";
},
{
name = note;
value = "This font was created as part of the Documenting Judeo-Spanish project. (documentingjudeospanish.com)\012\0122019-7-4: Created with FontForge (http://fontforge.org)";
}
);
date = "2017-03-21 06:32:22 +0000";
designer = "Nathan Gross, Bryan Kirschen, Binghamton University";
designerURL = "https://documentingjudeospanish.com/";
familyName = Solitreo;
featurePrefixes = (
{
automatic = 1;
code = "languagesystem DFLT dflt;

languagesystem hebr dflt;
languagesystem hebr IWR;
";
name = Languagesystems;
}
);
features = (
{
automatic = 1;
code = "feature subs;
feature sinf;
feature sups;
feature frac;
feature ordn;
feature case;
";
name = aalt;
},
{
automatic = 1;
code = "lookup ccmp_Other_1 {
	@CombiningTopAccents = [acutecomb brevecomb caroncomb circumflexcomb commaturnedabovecomb dieresiscomb dotaccentcomb gravecomb hungarumlautcomb macroncomb ringcomb tildecomb];
	@CombiningNonTopAccents = [cedillacomb ogonekcomb slashlongcomb slashshortcomb strokeshortcomb];

glyphs = (
{
color = 5;
glyphname = A;
layers = (
{
anchors = (
{
name = bottom;
position = "{335, 0}";
},
{
name = ogonek;
position = "{461, 69}";
},
{
name = top;
position = "{335, 700}";
}
);
layerId = "FF2DC345-5101-49B6-97F3-57A040F7C387";
paths = (
{
closed = 1;
nodes = (
"107 -10 OFFCURVE",
"141 67 OFFCURVE",
"200 220 CURVE",
"267 239 OFFCURVE",
"326 254 OFFCURVE",
"394 272 CURVE",
"399 211 OFFCURVE",
"404 148 OFFCURVE",
"409 84 CURVE SMOOTH",
"413 52 OFFCURVE",
"419 -10 OFFCURVE",
"452 -10 CURVE SMOOTH",
"473 -10 OFFCURVE",
"484 -4 OFFCURVE",
"484 80 CURVE SMOOTH",
"484 129 OFFCURVE",
"481 224 OFFCURVE",
"476 293 CURVE",
"535 310 OFFCURVE",
"564 324 OFFCURVE",
"564 337 CURVE SMOOTH",
"564 354 OFFCURVE",
"549 367 OFFCURVE",
"519 367 CURVE SMOOTH",
"505 367 OFFCURVE",
"489 362 OFFCURVE",
"470 360 CURVE",
"460 457 OFFCURVE",
"419 704 OFFCURVE",
"375 704 CURVE SMOOTH",
"340 704 OFFCURVE",
"298 674 OFFCURVE",
"283 638 CURVE SMOOTH",
"264 590 OFFCURVE",
"152 314 OFFCURVE",
"141 290 CURVE",
"75 269 OFFCURVE",
"42 252 OFFCURVE",
"42 239 CURVE SMOOTH",
"42 213 OFFCURVE",
"66 193 OFFCURVE",
"100 193 CURVE",
"62 105 OFFCURVE",
"43 58 OFFCURVE",
"43 51 CURVE SMOOTH",
"43 22 OFFCURVE",
"75 -10 OFFCURVE",
"96 -10 CURVE SMOOTH"
);
},
{
closed = 1;
nodes = (
"284 440 OFFCURVE",
"322 536 OFFCURVE",
"352 605 CURVE",
"363 548 OFFCURVE",
"375 462 OFFCURVE",
"387 348 CURVE",
"334 339 OFFCURVE",
"284 329 OFFCURVE",
"237 316 CURVE"
);
}
);
width = 608;
}
);
leftKerningGroup = A;
rightKerningGroup = A;
unicode = 0041;
userData = {
com.typemytype.robofont.guides = (
{
angle = 0;
isGlobal = 0;
magnetic = 5;
x = 0;
y = 680;
},
{
angle = 90;
isGlobal = 0;
magnetic = 5;
x = 35;
y = 0;
},
{
angle = 90;
isGlobal = 0;
magnetic = 5;
x = 637;
y = 0;
},
{
angle = 90;
isGlobal = 0;
magnetic = 5;
x = 336;
y = 0;
}
);
};
},
{
color = 5;
glyphname = AE;
layers = (
{
anchors = (
{
name = bottom;
position = "{468, 0}";
},
{
name = top;
position = "{468, 700}";
}
);
layerId = "FF2DC345-5101-49B6-97F3-57A040F7C387";
paths = (
{
closed = 1;
nodes = (
"87 -6 OFFCURVE",
"138 124 OFFCURVE",
"193 259 CURVE",
"214 261 OFFCURVE",
"368 285 OFFCURVE",
"398 289 CURVE",
"367 190 OFFCURVE",
"352 122 OFFCURVE",
"352 86 CURVE SMOOTH",
"352 38 OFFCURVE",
"406 -4 OFFCURVE",
"467 -4 CURVE SMOOTH",
"604 -4 OFFCURVE",
"791 60 OFFCURVE",
"791 108 CURVE SMOOTH",
"791 122 OFFCURVE",
"786 129 OFFCURVE",
"777 129 CURVE SMOOTH",
"718 129 OFFCURVE",
"570 80 OFFCURVE",
"471 80 CURVE SMOOTH",
"452 80 OFFCURVE",
"443 91 OFFCURVE",
"443 113 CURVE SMOOTH",
"443 125 OFFCURVE",
"460 188 OFFCURVE",
"494 302 CURVE",
"704 328 OFFCURVE",
"744 337 OFFCURVE",
"744 357 CURVE SMOOTH",
"744 378 OFFCURVE",
"718 388 OFFCURVE",
"665 388 CURVE SMOOTH",
"636 388 OFFCURVE",
"586 384 OFFCURVE",
"516 377 CURVE",
"543 470 OFFCURVE",
"556 578 OFFCURVE",
"554 612 CURVE",
"757 612 OFFCURVE",
"832 624 OFFCURVE",
"832 647 CURVE SMOOTH",
"832 668 OFFCURVE",
"788 686 OFFCURVE",
"535 686 CURVE SMOOTH",
"462 686 OFFCURVE",
"292 681 OFFCURVE",
"258 627 CURVE SMOOTH",
"196 529 OFFCURVE",
"19 59 OFFCURVE",
"18 46 CURVE SMOOTH",
"17 21 OFFCURVE",
"35 -6 OFFCURVE",
"66 -6 CURVE SMOOTH"
);
},
{
closed = 1;
nodes = (
"289 489 OFFCURVE",
"328 573 OFFCURVE",
"342 588 CURVE SMOOTH",
"351 599 OFFCURVE",
"393 606 OFFCURVE",
"470 610 CURVE",
"468 551 OFFCURVE",
"452 469 OFFCURVE",
"421 366 CURVE",
"342 356 OFFCURVE",
"276 346 OFFCURVE",
"225 335 CURVE"
);
}
);
width = 831;
}
);
leftKerningGroup = AE;
rightKerningGroup = E;
unicode = 00C6;
userData = {
com.typemytype.robofont.guides = (
{
angle = 0;
isGlobal = 0;
magnetic = 5;
x = 0;
y = 505;
},
{
angle = 90;
isGlobal = 0;
magnetic = 5;
x = 431;
y = 0;
}
);
};
},
{
color = 5;
glyphname = B;
layers = (
{
anchors = (
{
name = bottom;
position = "{335, 0}";
},
{
name = top;
position = "{335, 700}";
}
);
hints = (
{
horizontal = 1;
place = "{0, 0}";
type = Tag;
}
);
layerId = "FF2DC345-5101-49B6-97F3-57A040F7C387";
paths = (
{
closed = 1;
nodes = (
"325 -3 OFFCURVE",
"575 91 OFFCURVE",
"575 234 CURVE SMOOTH",
"575 299 OFFCURVE",
"493 352 OFFCURVE",
"373 359 CURVE",
"502.333 399 OFFCURVE",
"571 467 OFFCURVE",
"571 547 CURVE SMOOTH",
"571 643 OFFCURVE",
"466 695 OFFCURVE",
"279 695 CURVE SMOOTH",
"218 695 OFFCURVE",
"134 681 OFFCURVE",
"134 653 CURVE SMOOTH",
"134 634 OFFCURVE",
"160 594 OFFCURVE",
"198 594 CURVE",
"196 418 OFFCURVE",
"98 189 OFFCURVE",
"98 138 CURVE SMOOTH",
"98 115 OFFCURVE",
"118.333 85.333 OFFCURVE",
"137 76 CURVE",
"76 76 OFFCURVE",
"45 120 OFFCURVE",
"23 120 CURVE SMOOTH",
"14 120 OFFCURVE",
"5 111 OFFCURVE",
"5 99 CURVE SMOOTH",
"5 43 OFFCURVE",
"90 -3 OFFCURVE",
"158 -3 CURVE SMOOTH"
);
},
{
closed = 1;
nodes = (
"165.667 89.333 OFFCURVE",
"192.333 176.333 OFFCURVE",
"233 337 CURVE",
"246.333 318.333 OFFCURVE",
"262 309 OFFCURVE",
"280 309 CURVE SMOOTH",
"372 309 OFFCURVE",
"488 278 OFFCURVE",
"488 238 CURVE SMOOTH",
"488 165 OFFCURVE",
"317 81 OFFCURVE",
"153 76 CURVE"
);
},
{
closed = 1;
nodes = (
"267.333 469 OFFCURVE",
"279 523 OFFCURVE",
"279 542.5 CURVE SMOOTH",
"279 561 OFFCURVE",
"269.667 580 OFFCURVE",
"251 600 CURVE",
"285 607 OFFCURVE",
"325 612 OFFCURVE",
"361 612 CURVE SMOOTH",
"426 612 OFFCURVE",
"481 591 OFFCURVE",
"481 542 CURVE SMOOTH",
"481 447 OFFCURVE",
"297 414 OFFCURVE",
"244 377 CURVE"
);
}
);
width = 637;
}
);
leftKerningGroup = I;
unicode = 0042;
userData = {
com.typemytype.robofont.guides = (
{
angle = 0;
isGlobal = 0;
magnetic = 5;
x = 0;
y = 271;
},
{
angle = 0;
isGlobal = 0;
magnetic = 5;
x = 0;
y = 437;
},
{
angle = 0;
isGlobal = 0;
magnetic = 5;
x = 0;
y = 521;
},
{
angle = 0;
isGlobal = 0;
magnetic = 5;
x = 0;
y = 198;
},
{
angle = 0;
isGlobal = 0;
magnetic = 5;
x = 0;
y = 9;
},
{
angle = 90;
isGlobal = 0;
magnetic = 5;
x = 355;
y = 0;
},
{
angle = 90;
isGlobal = 0;
magnetic = 5;
x = 583;
y = 0;
},
{
angle = 90;
isGlobal = 0;
magnetic = 5;
x = 94;
y = 0;
}
);
};
},
{
color = 5;
glyphname = C;
layers = (
{
anchors = (
{
name = bottom;
position = "{334, 0}";
},
{
name = top;
position = "{334, 700}";
}
);
layerId = "FF2DC345-5101-49B6-97F3-57A040F7C387";
paths = (
{
closed = 1;
nodes = (
"424 -3 OFFCURVE",
"539 117 OFFCURVE",
"539 162 CURVE SMOOTH",
"539 173 OFFCURVE",
"534 177 OFFCURVE",
"524 177 CURVE SMOOTH",
"501 177 OFFCURVE",
"398 90 OFFCURVE",
"261 90 CURVE SMOOTH",
"200 90 OFFCURVE",
"158 123 OFFCURVE",
"158 196 CURVE SMOOTH",
"158 347 OFFCURVE",
"359 600 OFFCURVE",
"477 600 CURVE SMOOTH",
"508 600 OFFCURVE",
"527 585 OFFCURVE",
"540 585 CURVE SMOOTH",
"548 585 OFFCURVE",
"551 591 OFFCURVE",
"551 599 CURVE SMOOTH",
"551 635 OFFCURVE",
"508 694 OFFCURVE",
"470 694 CURVE SMOOTH",
"287 694 OFFCURVE",
"65 388 OFFCURVE",
"65 191 CURVE SMOOTH",
"65 94 OFFCURVE",
"166 -3 OFFCURVE",
"259 -3 CURVE SMOOTH"
);
}
);
width = 599;
}
);
leftKerningGroup = O;
rightKerningGroup = C;
unicode = 0043;
userData = {
com.typemytype.robofont.guides = (
{
angle = 0;
isGlobal = 0;
magnetic = 5;
x = 0;
y = 434;
},
{
angle = 0;
isGlobal = 0;
magnetic = 5;
x = 0;
y = 266;
},
{
angle = 0;
isGlobal = 0;
magnetic = 5;
x = 0;
y = 710;
},
{
angle = 0;
isGlobal = 0;
magnetic = 5;
x = 0;
y = "-10";
},
{
angle = 90;
isGlobal = 0;
magnetic = 5;
x = 599;
y = 0;
},
{
angle = 90;
isGlobal = 0;
magnetic = 5;
x = 209;
y = 0;
},
{
angle = 90;
isGlobal = 0;
magnetic = 5;
x = 149;
y = 0;
},
{
angle = 90;
isGlobal = 0;
magnetic = 5;
x = 332;
y = 0;
}
);
};
},
{
color = 5;
glyphname = Ccedilla;
layers = (
{
hints = (
{
horizontal = 1;
place = "{0, 0}";
type = Tag;
}
);
layerId = "FF2DC345-5101-49B6-97F3-57A040F7C387";
paths = (
{
closed = 1;
nodes = (
"235.667 -188 OFFCURVE",
"335.667 -148.667 OFFCURVE",
"337 -90 CURVE SMOOTH",
"337 -60.667 OFFCURVE",
"284.333 -33 OFFCURVE",
"240 -33 CURVE",
"249.333 -16.333 OFFCURVE",
"258 1.667 OFFCURVE",
"266 21 CURVE",
"429 27 OFFCURVE",
"541 143 OFFCURVE",
"541 185 CURVE SMOOTH",
"541 195 OFFCURVE",
"536 201 OFFCURVE",
"525 201 CURVE SMOOTH",
"500 201 OFFCURVE",
"392 114 OFFCURVE",
"274 114 CURVE SMOOTH",
"212 114 OFFCURVE",
"159 138 OFFCURVE",
"159 211 CURVE SMOOTH",
"159 373 OFFCURVE",
"358 624 OFFCURVE",
"477 624 CURVE SMOOTH",
"511 624 OFFCURVE",
"521 609 OFFCURVE",
"537 609 CURVE SMOOTH",
"545 609 OFFCURVE",
"551 615 OFFCURVE",
"551 625 CURVE SMOOTH",
"551 661 OFFCURVE",
"507 718 OFFCURVE",
"471 718 CURVE SMOOTH",
"282 718 OFFCURVE",
"66 404 OFFCURVE",
"66 215 CURVE SMOOTH",
"66 119 OFFCURVE",
"129.333 61.333 OFFCURVE",
"204 32 CURVE",
"187 -11 OFFCURVE",
"176 -31 OFFCURVE",
"176 -44 CURVE SMOOTH",
"176 -53 OFFCURVE",
"179 -61 OFFCURVE",
"199 -61 CURVE SMOOTH",
"231 -61 OFFCURVE",
"248 -88 OFFCURVE",
"248 -102 CURVE SMOOTH",
"248 -128 OFFCURVE",
"105 -129 OFFCURVE",
"105 -162 CURVE SMOOTH",
"105 -177 OFFCURVE",
"123.667 -188 OFFCURVE",
"149 -188 CURVE SMOOTH"
);
}
);
width = 603;
}
);
leftKerningGroup = O;
rightKerningGroup = C;
unicode = 00C7;
userData = {
com.typemytype.robofont.guides = (
{
angle = 0;
isGlobal = 0;
magnetic = 5;
x = 0;
y = "-174";
},
{
angle = 0;
isGlobal = 0;
magnetic = 5;
x = 0;
y = "-220";
},
{
angle = 0;
isGlobal = 0;
magnetic = 5;
x = 0;
y = "-96";
},
{
angle = 0;
isGlobal = 0;
magnetic = 5;
x = 0;
y = "-50";
},
{
angle = 0;
isGlobal = 0;
magnetic = 5;
x = 0;
y = "-135";
},
{
angle = 90;
isGlobal = 0;
magnetic = 5;
x = 331;
y = 0;
},
{
angle = 90;
isGlobal = 0;
magnetic = 5;
x = 342;
y = 0;
}
);
};
},
{
color = 5;
glyphname = D;
layers = (
{
anchors = (
{
name = bottom;
position = "{345, 0}";
},
{
name = center;
position = "{345, 350}";
},
{
name = top;
position = "{344, 700}";
}
);
hints = (
{
horizontal = 1;
place = "{0, 0}";
type = Tag;
}
);
layerId = "FF2DC345-5101-49B6-97F3-57A040F7C387";
paths = (
{
closed = 1;
nodes = (
"294 -6 OFFCURVE",
"612 206 OFFCURVE",
"612 337 CURVE SMOOTH",
"612 529 OFFCURVE",
"343 701 OFFCURVE",
"151 701 CURVE SMOOTH",
"138 701 OFFCURVE",
"131 694 OFFCURVE",
"131 684 CURVE SMOOTH",
"131 663 OFFCURVE",
"153 628 OFFCURVE",
"201 608 CURVE",
"188.361 441.16 OFFCURVE",
"80 228.248 OFFCURVE",
"80 92.5 CURVE SMOOTH",
"80 47.833 OFFCURVE",
"122.667 -6 OFFCURVE",
"148 -6 CURVE SMOOTH"
);
},
{
closed = 1;
nodes = (
"173 177 OFFCURVE",
"279 467 OFFCURVE",
"279 550 CURVE SMOOTH",
"279 564 OFFCURVE",
"277 575 OFFCURVE",
"274 587 CURVE",
"404.667 544.333 OFFCURVE",
"520 430.667 OFFCURVE",
"520 348 CURVE SMOOTH",
"520 270 OFFCURVE",
"301 101 OFFCURVE",
"167 84 CURVE"
);
}
);
width = 645;
}
);
leftKerningGroup = I;
rightKerningGroup = D;
unicode = 0044;
userData = {
com.typemytype.robofont.guides = (
{
angle = 0;
isGlobal = 0;
magnetic = 5;
x = 0;
y = 425;
},
{
angle = 0;
isGlobal = 0;
magnetic = 5;
x = 0;
y = 276;
},
{
angle = 0;
isGlobal = 0;
magnetic = 5;
x = 0;
y = 9;
},
{
angle = 90;
isGlobal = 0;
magnetic = 5;
x = 320;
y = 0;
},
{
angle = 90;
isGlobal = 0;
magnetic = 5;
x = 603;
y = 0;
},
{
angle = 90;
isGlobal = 0;
magnetic = 5;
x = 94;
y = 0;
}
);
};
},
{
color = 5;
glyphname = Eth;
layers = (
{
hints = (
{
horizontal = 1;
place = "{0, 0}";
type = Tag;
}
);
layerId = "FF2DC345-5101-49B6-97F3-57A040F7C387";
paths = (
{
closed = 1;
nodes = (
"308 -4 OFFCURVE",
"626 209 OFFCURVE",
"626 338 CURVE SMOOTH",
"626 529 OFFCURVE",
"356 703 OFFCURVE",
"165 703 CURVE SMOOTH",
"152 703 OFFCURVE",
"145 695 OFFCURVE",
"145 684 CURVE SMOOTH",
"145 663 OFFCURVE",
"168 630 OFFCURVE",
"215 609 CURVE",
"211.667 565.667 OFFCURVE",
"192.667 481.667 OFFCURVE",
"158 357 CURVE",
"123 352 OFFCURVE",
"14 344 OFFCURVE",
"14 308 CURVE SMOOTH",
"14 285 OFFCURVE",
"58 271 OFFCURVE",
"73.5 271 CURVE SMOOTH",
"81 271 OFFCURVE",
"101.667 272.333 OFFCURVE",
"135 275 CURVE",
"107.667 173 OFFCURVE",
"94 112 OFFCURVE",
"94 91.5 CURVE SMOOTH",
"94 51 OFFCURVE",
"136.667 -4 OFFCURVE",
"162 -4 CURVE SMOOTH"
);
},
{
closed = 1;
nodes = (
"189 138.667 OFFCURVE",
"199.333 187 OFFCURVE",
"229 287 CURVE",
"267 293 OFFCURVE",
"351 312 OFFCURVE",
"351 330 CURVE SMOOTH",
"351 366.681 OFFCURVE",
"285.179 369.629 OFFCURVE",
"251 367 CURVE",
"279 464.333 OFFCURVE",
"293 527 OFFCURVE",
"293 555 CURVE SMOOTH",
"293 566 OFFCURVE",
"291.333 576.667 OFFCURVE",
"288 588 CURVE",
"418.667 544 OFFCURVE",
"534 434 OFFCURVE",
"534 349 CURVE SMOOTH",
"534 256 OFFCURVE",
"285 100 OFFCURVE",
"181 86 CURVE"
);
}
);
width = 619;
}
);
leftKerningGroup = I;
rightKerningGroup = D;
unicode = 00D0;
userData = {
com.typemytype.robofont.guides = (
{
angle = 0;
isGlobal = 0;
magnetic = 5;
x = 0;
y = 350;
}
);
};
},
{
color = 5;
glyphname = E;
layers = (
{
anchors = (
{
name = bottom;
position = "{279, 14}";
},
{
name = ogonek;
position = "{486, 118}";
},
{
name = top;
position = "{353, 700}";
},
{
name = topleft;
position = "{20, 700}";
}
);
layerId = "FF2DC345-5101-49B6-97F3-57A040F7C387";
paths = (
{
closed = 1;
nodes = (
"315 -5 OFFCURVE",
"502 59 OFFCURVE",
"502 107 CURVE SMOOTH",
"502 121 OFFCURVE",
"497 128 OFFCURVE",
"487 128 CURVE SMOOTH",
"458 128 OFFCURVE",
"350 79 OFFCURVE",
"181 79 CURVE SMOOTH",
"165 79 OFFCURVE",
"154 90 OFFCURVE",
"154 106 CURVE SMOOTH",
"154 130 OFFCURVE",
"172 199 OFFCURVE",
"208 313 CURVE",
"329 313 OFFCURVE",
"480 330 OFFCURVE",
"480 382 CURVE SMOOTH",
"480 395 OFFCURVE",
"468 400 OFFCURVE",
"448 400 CURVE SMOOTH",
"415 399 OFFCURVE",
"352 383 OFFCURVE",
"287 383 CURVE SMOOTH",
"268 383 OFFCURVE",
"249 384 OFFCURVE",
"230 387 CURVE",
"255 478 OFFCURVE",
"267 547 OFFCURVE",
"267 595 CURVE",
"299 600 OFFCURVE",
"350 609 OFFCURVE",
"385 612 CURVE SMOOTH",
"592 627 OFFCURVE",
"605 645 OFFCURVE",
"605 661 CURVE SMOOTH",
"605 680 OFFCURVE",
"538 690 OFFCURVE",
"404 690 CURVE SMOOTH",
"270 690 OFFCURVE",
"182 683 OFFCURVE",
"182 630 CURVE SMOOTH",
"182 480 OFFCURVE",
"63 173 OFFCURVE",
"63 90 CURVE SMOOTH",
"63 35 OFFCURVE",
"117 -5 OFFCURVE",
"178 -5 CURVE SMOOTH"
);
}
);
width = 585;
}
);
leftKerningGroup = I;
rightKerningGroup = E;
unicode = 0045;
userData = {
com.typemytype.robofont.guides = (
{
angle = 0;
isGlobal = 0;
magnetic = 5;
x = 0;
y = 334;
},
{
angle = 0;
isGlobal = 0;
magnetic = 5;
x = 0;
y = 9;
},
{
angle = 0;
isGlobal = 0;
magnetic = 5;
x = 0;
y = 376;
},
{
angle = 0;
isGlobal = 0;
magnetic = 5;
x = 0;
y = 691;
},
{
angle = 0;
isGlobal = 0;
magnetic = 5;
x = 0;
y = 649;
},
{
angle = 90;
isGlobal = 0;
magnetic = 5;
x = 664;
y = 0;
},
{
angle = 90;
isGlobal = 0;
magnetic = 5;
x = 94;
y = 0;
},
{
angle = 90;
isGlobal = 0;
magnetic = 5;
x = 511;
y = 0;
}
);
};
},
{
color = 5;
glyphname = F;
layers = (
{
anchors = (
{
name = bottom;
position = "{292, 0}";
},
{
name = top;
position = "{292, 700}";
}
);
hints = (
{
horizontal = 1;
place = "{0, 0}";
type = Tag;
}
);
layerId = "FF2DC345-5101-49B6-97F3-57A040F7C387";
paths = (
{
closed = 1;
nodes = (
"128 -4 OFFCURVE",
"174 187 OFFCURVE",
"195 293 CURVE",
"261 290 OFFCURVE",
"473 310 OFFCURVE",
"473 366 CURVE SMOOTH",
"473 377 OFFCURVE",
"460 382 OFFCURVE",
"435 382 CURVE SMOOTH",
"375 382 OFFCURVE",
"311 368 OFFCURVE",
"214 373 CURVE",
"240 482 OFFCURVE",
"254 550 OFFCURVE",
"252 598 CURVE",
"562 626 OFFCURVE",
"589 641 OFFCURVE",
"589 655 CURVE SMOOTH",
"589 667 OFFCURVE",
"570 693 OFFCURVE",
"375 693 CURVE SMOOTH",
"221 693 OFFCURVE",
"173 678 OFFCURVE",
"173 630 CURVE SMOOTH",
"173 455 OFFCURVE",
"56 205 OFFCURVE",
"56 71 CURVE SMOOTH",
"56 47 OFFCURVE",
"90 -4 OFFCURVE",
"106 -4 CURVE SMOOTH"
);
}
);
width = 523;
}
);
leftKerningGroup = I;
unicode = 0046;
userData = {
com.typemytype.robofont.guides = (
{
angle = 0;
isGlobal = 0;
magnetic = 5;
x = 0;
y = 320;
},
{
angle = 0;
isGlobal = 0;
magnetic = 5;
x = 0;
y = 691;
},
{
angle = 0;
isGlobal = 0;
magnetic = 5;
x = 0;
y = 649;
},
{
angle = 0;
isGlobal = 0;
magnetic = 5;
x = 0;
y = 362;
},
{
angle = 0;
isGlobal = 0;
magnetic = 5;
x = 0;
y = 9;
},
{
angle = 90;
isGlobal = 0;
magnetic = 5;
x = 761;
y = 0;
},
{
angle = 90;
isGlobal = 0;
magnetic = 5;
x = 94;
y = 0;
},
{
angle = 90;
isGlobal = 0;
magnetic = 5;
x = 487;
y = 0;
},
{
angle = 90;
isGlobal = 0;
magnetic = 5;
x = 139;
y = 0;
}
);
};
},
{
color = 5;
glyphname = G;
layers = (
{
anchors = (
{
name = bottom;
position = "{352, 0}";
},
{
name = top;
position = "{346, 700}";
}
);
hints = (
{
horizontal = 1;
place = "{0, 0}";
type = Tag;
}
);
layerId = "FF2DC345-5101-49B6-97F3-57A040F7C387";
paths = (
{
closed = 1;
nodes = (
"439 -109 OFFCURVE",
"530 178 OFFCURVE",
"530 232 CURVE SMOOTH",
"530 286 OFFCURVE",
"498 333 OFFCURVE",
"449 333 CURVE SMOOTH",
"316 333 OFFCURVE",
"298 309 OFFCURVE",
"298 298 CURVE SMOOTH",
"298 281 OFFCURVE",
"327 256 OFFCURVE",
"363 256 CURVE SMOOTH",
"388 256 OFFCURVE",
"413 260 OFFCURVE",
"446 271 CURVE",
"446 268 LINE",
"373 159 OFFCURVE",
"277 83 OFFCURVE",
"214 83 CURVE SMOOTH",
"173 83 OFFCURVE",
"137 122 OFFCURVE",
"137 170 CURVE SMOOTH",
"137 341 OFFCURVE",
"319 604 OFFCURVE",
"461 604 CURVE SMOOTH",
"497 604 OFFCURVE",
"515 589 OFFCURVE",
"524 589 CURVE SMOOTH",
"532 589 OFFCURVE",
"535 595 OFFCURVE",
"535 604 CURVE SMOOTH",
"535 633 OFFCURVE",
"496 697 OFFCURVE",
"453 697 CURVE SMOOTH",
"271 697 OFFCURVE",
"46 378 OFFCURVE",
"46 171 CURVE SMOOTH",
"46 84 OFFCURVE",
"141 -3 OFFCURVE",
"219 -3 CURVE SMOOTH",
"297 -3 OFFCURVE",
"385 66 OFFCURVE",
"450 177 CURVE",
"453 177 LINE",
"427 96 OFFCURVE",
"379 -16 OFFCURVE",
"379 -80 CURVE SMOOTH",
"379 -99 OFFCURVE",
"388 -109 OFFCURVE",
"405 -109 CURVE SMOOTH"
);
}
);
width = 611;
}
);
leftKerningGroup = O;
rightKerningGroup = G;
unicode = 0047;
userData = {
com.typemytype.robofont.guides = (
{
angle = 0;
isGlobal = 0;
magnetic = 5;
x = 0;
y = "-10";
},
{
angle = 0;
isGlobal = 0;
magnetic = 5;
x = 0;
y = 260;
},
{
angle = 0;
isGlobal = 0;
magnetic = 5;
x = 0;
y = 440;
},
{
angle = 90;
isGlobal = 0;
magnetic = 5;
x = 334;
y = 0;
},
{
angle = 90;
isGlobal = 0;
magnetic = 5;
x = 133;
y = 0;
},
{
angle = 90;
isGlobal = 0;
magnetic = 5;
x = 604;
y = 0;
},
{
angle = 90;
isGlobal = 0;
magnetic = 5;
x = 67;
y = 0;
}
);
};
},
{
color = 5;
glyphname = H;
layers = (
{
anchors = (
{
name = bottom;
position = "{357, 0}";
},
{
name = center;
position = "{357, 350}";
},
{
name = top;
position = "{357, 700}";
},
{
name = topleft;
position = "{170, 700}";
}
);
layerId = "FF2DC345-5101-49B6-97F3-57A040F7C387";
paths = (
{
closed = 1;
nodes = (
"141 -3 OFFCURVE",
"159 113 OFFCURVE",
"205 280 CURVE",
"283 297.333 OFFCURVE",
"370.667 312.667 OFFCURVE",
"468 326 CURVE",
"428 171.333 OFFCURVE",
"408 86 OFFCURVE",
"408 69 CURVE SMOOTH",
"408 36 OFFCURVE",
"440 -3 OFFCURVE",
"455 -3 CURVE SMOOTH",
"473 -3 OFFCURVE",
"476 26 OFFCURVE",
"561 340 CURVE",
"602.333 348.667 OFFCURVE",
"623 360 OFFCURVE",
"623 373.5 CURVE SMOOTH",
"623 387 OFFCURVE",
"607.667 396.333 OFFCURVE",
"577 401 CURVE",
"607 514.333 OFFCURVE",
"622 582 OFFCURVE",
"622 604.5 CURVE SMOOTH",
"622 649 OFFCURVE",
"582 700 OFFCURVE",
"559 700 CURVE SMOOTH",
"546 700 OFFCURVE",
"539 690 OFFCURVE",
"539 670 CURVE SMOOTH",
"539 631 OFFCURVE",
"522 541.667 OFFCURVE",
"488 403 CURVE",
"403.333 397.667 OFFCURVE",
"317 386 OFFCURVE",
"229 368 CURVE",
"261.667 496.667 OFFCURVE",
"278 574 OFFCURVE",
"278 599.5 CURVE SMOOTH",
"278 651 OFFCURVE",
"237 700 OFFCURVE",
"219.5 700 CURVE SMOOTH",
"202 700 OFFCURVE",
"197 693 OFFCURVE",
"197 670 CURVE SMOOTH",
"197 628 OFFCURVE",
"174.667 519.667 OFFCURVE",
"130 345 CURVE",
"95.333 334.333 OFFCURVE",
"78 325 OFFCURVE",
"78 316 CURVE SMOOTH",
"78 295 OFFCURVE",
"92.667 276.667 OFFCURVE",
"110 270 CURVE",
"80.667 155.333 OFFCURVE",
"66 90 OFFCURVE",
"66 74 CURVE SMOOTH",
"66 42 OFFCURVE",
"104 -3 OFFCURVE",
"120 -3 CURVE SMOOTH"
);
}
);
width = 670;
}
);
leftKerningGroup = I;
rightKerningGroup = I;
unicode = 0048;
userData = {
com.typemytype.robofont.guides = (
{
angle = 0;
isGlobal = 0;
magnetic = 5;
x = 0;
y = 350;
},
{
angle = 0;
isGlobal = 0;
magnetic = 5;
x = 0;
y = 9;
},
{
angle = 0;
isGlobal = 0;
magnetic = 5;
x = 0;
y = 691;
},
{
angle = 90;
isGlobal = 0;
magnetic = 5;
x = 94;
y = 0;
},
{
angle = 90;
isGlobal = 0;
magnetic = 5;
x = 139;
y = 0;
},
{
angle = 90;
isGlobal = 0;
magnetic = 5;
x = 543;
y = 0;
},
{
angle = 90;
isGlobal = 0;
magnetic = 5;
x = 588;
y = 0;
}
);
};
},
{
color = 5;
glyphname = I;
layers = (
{
anchors = (
{
name = bottom;
position = "{137, 0}";
},
{
name = ogonek;
position = "{184, 69}";
},
{
name = top;
position = "{224, 700}";
},
{
name = topleft;
position = "{150, 700}";
}
);
layerId = "FF2DC345-5101-49B6-97F3-57A040F7C387";
paths = (
{
closed = 1;
nodes = (
"122 -1 OFFCURVE",
"133 4 OFFCURVE",
"147 58 CURVE SMOOTH",
"190 222 OFFCURVE",
"273 561 OFFCURVE",
"273 600.5 CURVE SMOOTH",
"273 647.833 OFFCURVE",
"230.833 698 OFFCURVE",
"211.5 698 CURVE SMOOTH",
"192.167 698 OFFCURVE",
"188 691 OFFCURVE",
"188 668 CURVE SMOOTH",
"188 566 OFFCURVE",
"68 127 OFFCURVE",
"68 67 CURVE SMOOTH",
"68 40 OFFCURVE",
"103 -1 OFFCURVE",
"116 -1 CURVE SMOOTH"
);
}
);
width = 310;
}
);
leftKerningGroup = I;
rightKerningGroup = I;
unicode = 0049;
userData = {
com.typemytype.robofont.guides = (
{
angle = 90;
isGlobal = 0;
magnetic = 5;
x = 85;
y = 0;
},
{
angle = 90;
isGlobal = 0;
magnetic = 5;
x = 148;
y = 0;
}
);
};
},
{
color = 5;
glyphname = J;
layers = (
{
anchors = (
{
name = bottom;
position = "{317, 0}";
},
{
name = top;
position = "{316, 700}";
}
);
hints = (
{
horizontal = 1;
place = "{0, 0}";
type = Tag;
}
);
layerId = "FF2DC345-5101-49B6-97F3-57A040F7C387";
paths = (
{
closed = 1;
nodes = (
"246 -7 OFFCURVE",
"299 17 OFFCURVE",
"333 134 CURVE SMOOTH",
"430 468 OFFCURVE",
"497 645 OFFCURVE",
"497 670 CURVE SMOOTH",
"497 696 OFFCURVE",
"473 704 OFFCURVE",
"452 704 CURVE SMOOTH",
"385 704 OFFCURVE",
"145 650 OFFCURVE",
"145 600 CURVE SMOOTH",
"145 583 OFFCURVE",
"157 575 OFFCURVE",
"182 575 CURVE SMOOTH",
"213 575 OFFCURVE",
"332 609 OFFCURVE",
"401 620 CURVE",
"339 485 OFFCURVE",
"303.058 289.965 OFFCURVE",
"245.5 144.5 CURVE SMOOTH",
"227.167 98.167 OFFCURVE",
"209 75 OFFCURVE",
"185 75 CURVE SMOOTH",
"111 75 OFFCURVE",
"50 174 OFFCURVE",
"26 174 CURVE SMOOTH",
"14 174 OFFCURVE",
"8 164 OFFCURVE",
"8 145 CURVE SMOOTH",
"8 92 OFFCURVE",
"106 -7 OFFCURVE",
"201.5 -7 CURVE SMOOTH"
);
}
);
width = 468;
}
);
leftKerningGroup = J;
rightKerningGroup = U;
unicode = 004A;
userData = {
com.typemytype.robofont.guides = (
{
angle = 0;
isGlobal = 0;
magnetic = 5;
x = 0;
y = "-10";
},
{
angle = 0;
isGlobal = 0;
magnetic = 5;
x = 0;
y = 133;
},
{
angle = 0;
isGlobal = 0;
magnetic = 5;
x = 0;
y = 677;
},
{
angle = 90;
isGlobal = 0;
magnetic = 5;
x = 303;
y = 0;
},
{
angle = 90;
isGlobal = 0;
magnetic = 5;
x = 60;
y = 0;
},
{
angle = 90;
isGlobal = 0;
magnetic = 5;
x = 91;
y = 0;
}
);
};
},
{
color = 5;
glyphname = K;
layers = (
{
anchors = (
{
name = bottom;
position = "{314, 0}";
},
{
name = top;
position = "{301, 700}";
}
);
layerId = "FF2DC345-5101-49B6-97F3-57A040F7C387";
paths = (
{
closed = 1;
nodes = (
"118 0 OFFCURVE",
"124 35 OFFCURVE",
"146 106 CURVE SMOOTH",
"164 166 OFFCURVE",
"183 214 OFFCURVE",
"204 251 CURVE",
"235 109 OFFCURVE",
"382 0 OFFCURVE",
"499 0 CURVE SMOOTH",
"525 0 OFFCURVE",
"538 9 OFFCURVE",
"538 26 CURVE SMOOTH",
"538 52 OFFCURVE",
"488 74 OFFCURVE",
"438 98 CURVE SMOOTH",
"336 147 OFFCURVE",
"272 230 OFFCURVE",
"272 320 CURVE",
"355 438 OFFCURVE",
"584 628 OFFCURVE",
"584 656 CURVE SMOOTH",
"584 672 OFFCURVE",
"556 692 OFFCURVE",
"529 692 CURVE SMOOTH",
"505 692 OFFCURVE",
"376 587 OFFCURVE",
"209 359 CURVE",
"243.667 490.333 OFFCURVE",
"261 569 OFFCURVE",
"261 596 CURVE SMOOTH",
"261 649 OFFCURVE",
"226 698 OFFCURVE",
"206.5 698 CURVE SMOOTH",
"187 698 OFFCURVE",
"184 690 OFFCURVE",
"184 666 CURVE SMOOTH",
"184 535 OFFCURVE",
"54 156 OFFCURVE",
"54 72.5 CURVE SMOOTH",
"54 39 OFFCURVE",
"80 0 OFFCURVE",
"104 0 CURVE SMOOTH"
);
}
);
width = 591;
}
);
leftKerningGroup = I;
rightKerningGroup = K;
unicode = 004B;
userData = {
com.typemytype.robofont.guides = (
{
angle = 0;
isGlobal = 0;
magnetic = 5;
x = 0;
y = 365;
},
{
angle = 90;
isGlobal = 0;
magnetic = 5;
x = 547;
y = 0;
},
{
angle = 90;
isGlobal = 0;
magnetic = 5;
x = 94;
y = 0;
},
{
angle = 90;
isGlobal = 0;
magnetic = 5;
x = 139;
y = 0;
}
);
};
},
{
color = 5;
glyphname = L;
layers = (
{
anchors = (
{
name = bottom;
position = "{308, 0}";
},
{
name = center;
position = "{281, 350}";
},
{
name = top;
position = "{133, 700}";
},
{
name = topright;
position = "{355, 682}";
}
);
layerId = "FF2DC345-5101-49B6-97F3-57A040F7C387";
paths = (
{
closed = 1;
nodes = (
"322 -3 OFFCURVE",
"492 57 OFFCURVE",
"492 113 CURVE SMOOTH",
"492 125 OFFCURVE",
"488 130 OFFCURVE",
"477 130 CURVE SMOOTH",
"440 130 OFFCURVE",
"329 81 OFFCURVE",
"178 81 CURVE SMOOTH",
"161 81 OFFCURVE",
"152 90 OFFCURVE",
"152 108 CURVE SMOOTH",
"152 154 OFFCURVE",
"281 524 OFFCURVE",
"281 627 CURVE SMOOTH",
"281 664 OFFCURVE",
"242 705 OFFCURVE",
"222.5 705 CURVE SMOOTH",
"203 705 OFFCURVE",
"199 696 OFFCURVE",
"199 675 CURVE SMOOTH",
"199 539 OFFCURVE",
"62 178 OFFCURVE",
"62 91.5 CURVE SMOOTH",
"62 40 OFFCURVE",
"117 -3 OFFCURVE",
"181 -3 CURVE SMOOTH"
);
}
);
width = 546;
}
);
leftKerningGroup = I;
rightKerningGroup = L;
unicode = 004C;
},
{
color = 5;
glyphname = M;
layers = (
{
anchors = (
{
name = bottom;
position = "{397, 0}";
},
{
name = top;
position = "{457, 700}";
}
);
hints = (
{
horizontal = 1;
place = "{0, 0}";
type = Tag;
}
);
layerId = "FF2DC345-5101-49B6-97F3-57A040F7C387";
paths = (
{
closed = 1;
nodes = (
"115 0 OFFCURVE",
"132 56 OFFCURVE",
"152 129 CURVE SMOOTH",
"175 210 OFFCURVE",
"215 343 OFFCURVE",
"238 485 CURVE",
"278.667 355.667 OFFCURVE",
"325 208 OFFCURVE",
"382 208 CURVE SMOOTH",
"442 208 OFFCURVE",
"560.333 374.667 OFFCURVE",
"683 528 CURVE",
"629.667 382.667 OFFCURVE",
"574 142 OFFCURVE",
"574 88.5 CURVE SMOOTH",
"574 38 OFFCURVE",
"593 0 OFFCURVE",
"613.5 0 CURVE SMOOTH",
"622 0 OFFCURVE",
"633 19 OFFCURVE",
"642 58 CURVE SMOOTH",
"683 240 OFFCURVE",
"783 553 OFFCURVE",
"783 629 CURVE SMOOTH",
"783 653 OFFCURVE",
"749 687 OFFCURVE",
"725 687 CURVE SMOOTH",
"681 687 OFFCURVE",
"549.252 487.083 OFFCURVE",
"399 310 CURVE",
"340.333 435.333 OFFCURVE",
"288.333 575 OFFCURVE",
"283 623 CURVE SMOOTH",
"280.333 651 OFFCURVE",
"223 698 OFFCURVE",
"206.5 698 CURVE SMOOTH",
"190 698 OFFCURVE",
"185 691 OFFCURVE",
"185 668 CURVE SMOOTH",
"185 509 OFFCURVE",
"56 158 OFFCURVE",
"56 76 CURVE SMOOTH",
"56 44 OFFCURVE",
"88 0 OFFCURVE",
"104 0 CURVE SMOOTH"
);
}
);
width = 789;
}
);
leftKerningGroup = I;
rightKerningGroup = I;
unicode = 004D;
userData = {
com.typemytype.robofont.guides = (
{
angle = 0;
isGlobal = 0;
magnetic = 5;
x = 0;
y = 168;
},
{
angle = 0;
isGlobal = 0;
magnetic = 5;
x = 0;
y = 9;
},
{
angle = 0;
isGlobal = 0;
magnetic = 5;
x = 0;
y = 691;
},
{
angle = 90;
isGlobal = 0;
magnetic = 5;
x = 126;
y = 0;
},
{
angle = 90;
isGlobal = 0;
magnetic = 5;
x = 636;
y = 0;
}
);
};
},
{
color = 5;
glyphname = N;
layers = (
{
anchors = (
{
name = bottom;
position = "{280, 0}";
},
{
name = top;
position = "{417, 700}";
}
);
layerId = "FF2DC345-5101-49B6-97F3-57A040F7C387";
paths = (
{
closed = 1;
nodes = (
"135 -3 OFFCURVE",
"165 221 OFFCURVE",
"239 486 CURVE",
"361 203 OFFCURVE",
"404 -3 OFFCURVE",
"471 -3 CURVE SMOOTH",
"571 -3 OFFCURVE",
"645 543 OFFCURVE",
"645 632 CURVE SMOOTH",
"645 663 OFFCURVE",
"607.167 703 OFFCURVE",
"582.5 703 CURVE SMOOTH",
"570.167 703 OFFCURVE",
"562 689 OFFCURVE",
"562 660 CURVE SMOOTH",
"562 587 OFFCURVE",
"529 299 OFFCURVE",
"465 130 CURVE",
"436.333 192.667 OFFCURVE",
"368.333 363.333 OFFCURVE",
"261 642 CURVE SMOOTH",
"249 671.333 OFFCURVE",
"216.667 701 OFFCURVE",
"202 701 CURVE SMOOTH",
"190.667 701 OFFCURVE",
"185 690 OFFCURVE",
"185 669 CURVE SMOOTH",
"185 562 OFFCURVE",
"53 125 OFFCURVE",
"53 68 CURVE SMOOTH",
"53 36 OFFCURVE",
"76 -3 OFFCURVE",
"99 -3 CURVE SMOOTH"
);
}
);
width = 677;
}
);
leftKerningGroup = I;
rightKerningGroup = I;
unicode = 004E;
userData = {
com.typemytype.robofont.guides = (
{
angle = 0;
isGlobal = 0;
magnetic = 5;
x = 0;
y = 9;
},
{
angle = 0;
isGlobal = 0;
magnetic = 5;
x = 0;
y = 691;
},
{
angle = 90;
isGlobal = 0;
magnetic = 5;
x = 540;
y = 0;
},
{
angle = 90;
isGlobal = 0;
magnetic = 5;
x = 125;
y = 0;
}
);
};
},
{
color = 5;
glyphname = O;
layers = (
{
anchors = (
{
name = bottom;
position = "{339, 0}";
},
{
name = center;
position = "{339, 350}";
},
{
name = ogonek;
position = "{272, 68}";
},
{
name = top;
position = "{419, 700}";
},
{
name = topleft;
position = "{270, 700}";
},
{
name = topright;
position = "{537, 700}";
}
);
layerId = "FF2DC345-5101-49B6-97F3-57A040F7C387";
paths = (
{
closed = 1;
nodes = (
"409 -3 OFFCURVE",
"592 263 OFFCURVE",
"592 453 CURVE SMOOTH",
"592 581 OFFCURVE",
"508 702 OFFCURVE",
"396 702 CURVE SMOOTH",
"247 702 OFFCURVE",
"54 434 OFFCURVE",
"54 194 CURVE SMOOTH",
"54 105 OFFCURVE",
"131 -3 OFFCURVE",
"219 -3 CURVE SMOOTH"
);
},
{
closed = 1;
nodes = (
"182 76 OFFCURVE",
"145 127 OFFCURVE",
"145 200 CURVE SMOOTH",
"145 357 OFFCURVE",
"299 617 OFFCURVE",
"401 617 CURVE SMOOTH",
"454 617 OFFCURVE",
"500 547 OFFCURVE",
"500 444 CURVE SMOOTH",
"500 296 OFFCURVE",
"335 76 OFFCURVE",
"225 76 CURVE SMOOTH"
);
}
);
width = 613;
}
);
leftKerningGroup = O;
rightKerningGroup = O;
unicode = 004F;
userData = {
com.typemytype.robofont.guides = (
{
angle = 0;
isGlobal = 0;
magnetic = 5;
x = 0;
y = "-10";
},
{
angle = 0;
isGlobal = 0;
magnetic = 5;
x = 0;
y = 710;
},
{
angle = 0;
isGlobal = 0;
magnetic = 5;
x = 0;
y = 335;
},
{
angle = 0;
isGlobal = 0;
magnetic = 5;
x = 0;
y = 434;
},
{
angle = 0;
isGlobal = 0;
magnetic = 5;
x = 0;
y = 266;
},
{
angle = 90;
isGlobal = 0;
magnetic = 5;
x = 496;
y = 0;
}
);
};
},
{
color = 4;
glyphname = Oslash;
layers = (
{
anchors = (
{
name = bottom;
position = "{339, 0}";
},
{
name = top;
position = "{339, 700}";
}
);
layerId = "FF2DC345-5101-49B6-97F3-57A040F7C387";
paths = (
{
closed = 1;
nodes = (
"187 -3 OFFCURVE",
"151.667 14 OFFCURVE",
"119 48 CURVE",
"92 16 OFFCURVE",
"74 -5 OFFCURVE",
"62 -5 CURVE SMOOTH",
"48 -5 OFFCURVE",
"36 7 OFFCURVE",
"36 21 CURVE SMOOTH",
"36 37 OFFCURVE",
"53 60 OFFCURVE",
"81 99 CURVE",
"63 131.667 OFFCURVE",
"54 163 OFFCURVE",
"54 194 CURVE SMOOTH",
"54 410 OFFCURVE",
"227 702 OFFCURVE",
"396 702 CURVE SMOOTH",
"447 702 OFFCURVE",
"489 681.333 OFFCURVE",
"527 640 CURVE",
"562.333 676.667 OFFCURVE",
"587 695 OFFCURVE",
"600 695 CURVE SMOOTH",
"616 695 OFFCURVE",
"624 687 OFFCURVE",
"624 670.5 CURVE SMOOTH",
"624 654 OFFCURVE",
"609.667 630.333 OFFCURVE",
"566 582 CURVE",
"586 543 OFFCURVE",
"597 500 OFFCURVE",
"597 456 CURVE SMOOTH",
"597 242 OFFCURVE",
"397 -3 OFFCURVE",
"225 -3 CURVE SMOOTH"
);
},
{
closed = 1;
nodes = (
"469 575 LINE",
"449 603 OFFCURVE",
"428 617 OFFCURVE",
"401 617 CURVE SMOOTH",
"305 617 OFFCURVE",
"145 367 OFFCURVE",
"145 200 CURVE SMOOTH",
"145 191 OFFCURVE",
"145 185 OFFCURVE",
"146 181 CURVE"
);
},
{
closed = 1;
nodes = (
"343 76 OFFCURVE",
"505 301 OFFCURVE",
"505 438 CURVE SMOOTH",
"505 461 OFFCURVE",
"502.667 483 OFFCURVE",
"498 505 CURVE",
"387 378 OFFCURVE",
"278 247 OFFCURVE",
"171 112 CURVE",
"187.667 88 OFFCURVE",
"207 76 OFFCURVE",
"230 76 CURVE SMOOTH"
);
}
);
width = 613;
}
);
leftKerningGroup = O;
rightKerningGroup = O;
unicode = 00D8;
userData = {
com.typemytype.robofont.guides = (
{
angle = 0;
isGlobal = 0;
magnetic = 5;
x = 0;
y = 145;
},
{
angle = 90;
isGlobal = 0;
magnetic = 5;
x = 351;
y = 0;
},
{
angle = 90;
isGlobal = 0;
magnetic = 5;
x = 679;
y = 0;
},
{
angle = 90;
isGlobal = 0;
magnetic = 5;
x = 85;
y = 0;
},
{
angle = 90;
isGlobal = 0;
magnetic = 5;
x = 20;
y = 0;
}
);
};
},
{
color = 5;
glyphname = OE;
layers = (
{
anchors = (
{
name = bottom;
position = "{460, 0}";
},
{
name = top;
position = "{460, 700}";
}
);
hints = (
{
horizontal = 1;
place = "{0, 0}";
type = Tag;
}
);
layerId = "FF2DC345-5101-49B6-97F3-57A040F7C387";
paths = (
{
closed = 1;
nodes = (
"673 -5 OFFCURVE",
"858 59 OFFCURVE",
"858 107 CURVE SMOOTH",
"858 121 OFFCURVE",
"853 128 OFFCURVE",
"844 128 CURVE SMOOTH",
"810 128 OFFCURVE",
"707 79 OFFCURVE",
"538 79 CURVE SMOOTH",
"519 79 OFFCURVE",
"510 90 OFFCURVE",
"510 111 CURVE SMOOTH",
"510 142 OFFCURVE",
"545.667 250.333 OFFCURVE",
"565 313 CURVE",
"626 313 OFFCURVE",
"837 319 OFFCURVE",
"837 382 CURVE SMOOTH",
"837 393 OFFCURVE",
"822 397 OFFCURVE",
"799 397 CURVE SMOOTH",
"758 397 OFFCURVE",
"691 385 OFFCURVE",
"638 385 CURVE SMOOTH",
"623 385 OFFCURVE",
"603 385 OFFCURVE",
"587 387 CURVE",
"611.667 478.333 OFFCURVE",
"624 546.667 OFFCURVE",
"624 595 CURVE",
"771 619 OFFCURVE",
"895 629 OFFCURVE",
"918 634 CURVE SMOOTH",
"947 639 OFFCURVE",
"961 648 OFFCURVE",
"961 661 CURVE SMOOTH",
"961 680 OFFCURVE",
"896 690 OFFCURVE",
"765.5 690 CURVE SMOOTH",
"560 690 OFFCURVE",
"538 671 OFFCURVE",
"538 623 CURVE",
"499 676 OFFCURVE",
"451 702 OFFCURVE",
"396 702 CURVE SMOOTH",
"223 702 OFFCURVE",
"54 408 OFFCURVE",
"54 194 CURVE SMOOTH",
"54 105 OFFCURVE",
"131 -3 OFFCURVE",
"219 -3 CURVE SMOOTH",
"285.667 -3 OFFCURVE",
"355 32 OFFCURVE",
"419 89 CURVE",
"419 32 OFFCURVE",
"473 -5 OFFCURVE",
"534 -5 CURVE SMOOTH"
);
},
{
closed = 1;
nodes = (
"182 76 OFFCURVE",
"145 127 OFFCURVE",
"145 200 CURVE SMOOTH",
"145 364 OFFCURVE",
"296 617 OFFCURVE",
"401 617 CURVE SMOOTH",
"454 617 OFFCURVE",
"500 549 OFFCURVE",
"500 438 CURVE SMOOTH",
"500 309 OFFCURVE",
"342 76 OFFCURVE",
"225 76 CURVE SMOOTH"
);
}
);
width = 940;
}
);
leftKerningGroup = O;
rightKerningGroup = E;
unicode = 0152;
userData = {
com.typemytype.robofont.guides = (
{
angle = 90;
isGlobal = 0;
magnetic = 5;
x = 842;
y = 0;
},
{
angle = 90;
isGlobal = 0;
magnetic = 5;
x = 66;
y = 0;
},
{
angle = 90;
isGlobal = 0;
magnetic = 5;
x = 439;
y = 0;
},
{
angle = 90;
isGlobal = 0;
magnetic = 5;
x = 502;
y = 0;
}
);
};
},
{
color = 5;
glyphname = P;
layers = (
{
anchors = (
{
name = bottom;
position = "{321, 0}";
},
{
name = top;
position = "{321, 700}";
}
);
hints = (
{
horizontal = 1;
place = "{0, 0}";
type = Tag;
}
);
layerId = "FF2DC345-5101-49B6-97F3-57A040F7C387";
paths = (
{
closed = 1;
nodes = (
"104 -5 OFFCURVE",
"133.333 77.333 OFFCURVE",
"182 242 CURVE",
"408.667 286 OFFCURVE",
"559 389 OFFCURVE",
"559 533 CURVE SMOOTH",
"559 638 OFFCURVE",
"468 710 OFFCURVE",
"340 710 CURVE SMOOTH",
"257 710 OFFCURVE",
"142 672 OFFCURVE",
"142 639 CURVE SMOOTH",
"142 627 OFFCURVE",
"150 613.667 OFFCURVE",
"166 599 CURVE",
"163 433 OFFCURVE",
"43 126 OFFCURVE",
"43 62.5 CURVE SMOOTH",
"43 32 OFFCURVE",
"76 -5 OFFCURVE",
"95 -5 CURVE SMOOTH"
);
},
{
closed = 1;
nodes = (
"236.667 440.667 OFFCURVE",
"253 520 OFFCURVE",
"253 557 CURVE SMOOTH",
"253 570 OFFCURVE",
"249.667 583.333 OFFCURVE",
"243 598 CURVE",
"289 619 OFFCURVE",
"318 628 OFFCURVE",
"362 628 CURVE SMOOTH",
"419 628 OFFCURVE",
"471 586 OFFCURVE",
"471 527 CURVE SMOOTH",
"471 444 OFFCURVE",
"364 362.667 OFFCURVE",
"204 320 CURVE"
);
}
);
width = 543;
}
);
leftKerningGroup = I;
unicode = 0050;
userData = {
com.typemytype.robofont.guides = (
{
angle = 0;
isGlobal = 0;
magnetic = 5;
x = 0;
y = 493;
},
{
angle = 0;
isGlobal = 0;
magnetic = 5;
x = 0;
y = 403;
},
{
angle = 0;
isGlobal = 0;
magnetic = 5;
x = 0;
y = 218;
},
{
angle = 0;
isGlobal = 0;
magnetic = 5;
x = 0;
y = 310;
},
{
angle = 0;
isGlobal = 0;
magnetic = 5;
x = 0;
y = 9;
},
{
angle = 0;
isGlobal = 0;
magnetic = 5;
x = 0;
y = 691;
},
{
angle = 90;
isGlobal = 0;
magnetic = 5;
x = 345;
y = 0;
},
{
angle = 90;
isGlobal = 0;
magnetic = 5;
x = 94;
y = 0;
},
{
angle = 90;
isGlobal = 0;
magnetic = 5;
x = 139;
y = 0;
}
);
};
},
{
color = 5;
glyphname = Thorn;
layers = (
{
anchors = (
{
name = bottom;
position = "{234, 0}";
},
{
name = top;
position = "{314, 700}";
}
);
hints = (
{
horizontal = 1;
place = "{0, 0}";
type = Tag;
}
);
layerId = "FF2DC345-5101-49B6-97F3-57A040F7C387";
paths = (
{
closed = 1;
nodes = (
"115 -5 OFFCURVE",
"136 69.333 OFFCURVE",
"162 164 CURVE",
"309 164 OFFCURVE",
"471 233 OFFCURVE",
"471 366 CURVE SMOOTH",
"471 442 OFFCURVE",
"381 528 OFFCURVE",
"301 528 CURVE SMOOTH",
"285 528 OFFCURVE",
"266.333 525.333 OFFCURVE",
"245 520 CURVE",
"249 542.667 OFFCURVE",
"251 560 OFFCURVE",
"251 572 CURVE SMOOTH",
"251 623 OFFCURVE",
"205 661 OFFCURVE",
"183.5 661 CURVE SMOOTH",
"162 661 OFFCURVE",
"158 653 OFFCURVE",
"158 630 CURVE SMOOTH",
"158 441 OFFCURVE",
"51 116 OFFCURVE",
"51 61 CURVE SMOOTH",
"51 33 OFFCURVE",
"78 -5 OFFCURVE",
"98 -5 CURVE SMOOTH"
);
},
{
closed = 1;
nodes = (
"226 422 LINE",
"249 432 OFFCURVE",
"273 438 OFFCURVE",
"296 438 CURVE SMOOTH",
"346 438 OFFCURVE",
"387 407 OFFCURVE",
"387 365 CURVE SMOOTH",
"387 285 OFFCURVE",
"270 243 OFFCURVE",
"182 243 CURVE"
);
}
);
width = 503;
}
);
leftKerningGroup = I;
unicode = 00DE;
userData = {
com.typemytype.robofont.guides = (
{
angle = 0;
isGlobal = 0;
magnetic = 5;
x = 0;
y = 119;
},
{
angle = 0;
isGlobal = 0;
magnetic = 5;
x = 0;
y = 601;
},
{
angle = 0;
isGlobal = 0;
magnetic = 5;
x = 0;
y = 570;
},
{
angle = 0;
isGlobal = 0;
magnetic = 5;
x = 0;
y = 350;
}
);
};
},
{
color = 5;
glyphname = Q;
layers = (
{
anchors = (
{
name = bottom;
position = "{339, 0}";
},
{
name = top;
position = "{409, 700}";
}
);
hints = (
{
horizontal = 1;
place = "{0, 0}";
type = Tag;
}
);
layerId = "FF2DC345-5101-49B6-97F3-57A040F7C387";
paths = (
{
closed = 1;
nodes = (
"496.667 -159 OFFCURVE",
"505 -151.333 OFFCURVE",
"505 -136 CURVE SMOOTH",
"505 -105.257 OFFCURVE",
"466.939 -27.688 OFFCURVE",
"429 78 CURVE",
"533 170 OFFCURVE",
"607 324.167 OFFCURVE",
"607 451.5 CURVE SMOOTH",
"607 578.833 OFFCURVE",
"508 699 OFFCURVE",
"396 699 CURVE SMOOTH",
"215 699 OFFCURVE",
"57 395 OFFCURVE",
"57 194 CURVE SMOOTH",
"57 95 OFFCURVE",
"151.667 0 OFFCURVE",
"237 0 CURVE SMOOTH",
"279.667 0 OFFCURVE",
"321.333 10.667 OFFCURVE",
"362 32 CURVE",
"410.667 -95.333 OFFCURVE",
"450 -159 OFFCURVE",
"480 -159 CURVE SMOOTH"
);
},
{
closed = 1;
nodes = (
"195 76 OFFCURVE",
"145 134 OFFCURVE",
"145 201 CURVE SMOOTH",
"145 310 OFFCURVE",
"198 437 OFFCURVE",
"270 525 CURVE",
"265.333 505.667 OFFCURVE",
"263 483 OFFCURVE",
"263 457 CURVE SMOOTH",
"263 374.333 OFFCURVE",
"286.667 259 OFFCURVE",
"334 111 CURVE",
"304 89 OFFCURVE",
"278 76 OFFCURVE",
"254 76 CURVE SMOOTH"
);
},
{
closed = 1;
nodes = (
"362.667 289 OFFCURVE",
"345 402.333 OFFCURVE",
"345 511 CURVE SMOOTH",
"345 554.333 OFFCURVE",
"352.667 586.667 OFFCURVE",
"368 608 CURVE",
"380.667 613.333 OFFCURVE",
"392.333 616 OFFCURVE",
"403 616 CURVE SMOOTH",
"457.667 616 OFFCURVE",
"516 543.667 OFFCURVE",
"516 449 CURVE SMOOTH",
"516 354.333 OFFCURVE",
"466 251 OFFCURVE",
"398 171 CURVE"
);
}
);
width = 641;
}
);
leftKerningGroup = O;
rightKerningGroup = O;
unicode = 0051;
userData = {
com.typemytype.robofont.guides = (
{
angle = 0;
isGlobal = 0;
magnetic = 5;
x = 0;
y = 710;
},
{
angle = 0;
isGlobal = 0;
magnetic = 5;
x = 0;
y = "-10";
},
{
angle = 0;
isGlobal = 0;
magnetic = 5;
x = 0;
y = "-56";
},
{
angle = 90;
isGlobal = 0;
magnetic = 5;
x = 82;
y = 0;
},
{
angle = 90;
isGlobal = 0;
magnetic = 5;
x = 750;
y = 0;
},
{
angle = 90;
isGlobal = 0;
magnetic = 5;
x = 580;
y = 0;
}
);
};
},
{
color = 5;
glyphname = R;
layers = (
{
anchors = (
{
name = bottom;
position = "{262, 0}";
},
{
name = top;
position = "{387, 700}";
}
);
layerId = "FF2DC345-5101-49B6-97F3-57A040F7C387";
paths = (
{
closed = 1;
nodes = (
"118 -4 OFFCURVE",
"163 175 OFFCURVE",
"194 279 CURVE",
"227.333 181.667 OFFCURVE",
"421 -3 OFFCURVE",
"501 -3 CURVE SMOOTH",
"523 -3 OFFCURVE",
"534 5 OFFCURVE",
"534 21 CURVE SMOOTH",
"534 40 OFFCURVE",
"520 54 OFFCURVE",
"407 147.5 CURVE SMOOTH",
"294 241 OFFCURVE",
"289 269 OFFCURVE",
"289 284 CURVE SMOOTH",
"289 298 OFFCURVE",
"316 302 OFFCURVE",
"460 389 CURVE SMOOTH",
"514 422 OFFCURVE",
"554 485 OFFCURVE",
"554 550 CURVE SMOOTH",
"554 646 OFFCURVE",
"460 701 OFFCURVE",
"350.5 701 CURVE SMOOTH",
"240 701 OFFCURVE",
"132 659 OFFCURVE",
"132 629 CURVE SMOOTH",
"132 612 OFFCURVE",
"147.667 584.667 OFFCURVE",
"165 574 CURVE",
"149.918 383.585 OFFCURVE",
"47 127 OFFCURVE",
"47 62.5 CURVE SMOOTH",
"47 33 OFFCURVE",
"80 -4 OFFCURVE",
"93 -4 CURVE SMOOTH"
);
},
{
closed = 1;
nodes = (
"237 432 OFFCURVE",
"251 504 OFFCURVE",
"251 547 CURVE SMOOTH",
"251 559 OFFCURVE",
"247.667 572.333 OFFCURVE",
"241 587 CURVE",
"284.333 603.667 OFFCURVE",
"322 612 OFFCURVE",
"355 612 CURVE SMOOTH",
"427 612 OFFCURVE",
"463 591 OFFCURVE",
"463 550 CURVE SMOOTH",
"463 438 OFFCURVE",
"292 395 OFFCURVE",
"209 332 CURVE"
);
}
);
width = 584;
}
);
leftKerningGroup = I;
rightKerningGroup = R;
unicode = 0052;
userData = {
com.typemytype.robofont.guides = (
{
angle = 0;
isGlobal = 0;
magnetic = 5;
x = 0;
y = 691;
},
{
angle = 0;
isGlobal = 0;
magnetic = 5;
x = 0;
y = 9;
},
{
angle = 90;
isGlobal = 0;
magnetic = 5;
x = 616;
y = 0;
},
{
angle = 90;
isGlobal = 0;
magnetic = 5;
x = 574;
y = 0;
},
{
angle = 90;
isGlobal = 0;
magnetic = 5;
x = 94;
y = 0;
},
{
angle = 90;
isGlobal = 0;
magnetic = 5;
x = 139;
y = 0;
}
);
};
},
{
color = 5;
glyphname = S;
layers = (
{
anchors = (
{
name = bottom;
position = "{313, 0}";
},
{
name = top;
position = "{382, 700}";
}
);
layerId = "FF2DC345-5101-49B6-97F3-57A040F7C387";
paths = (
{
closed = 1;
nodes = (
"352 1 OFFCURVE",
"468 85 OFFCURVE",
"468 194 CURVE SMOOTH",
"468 327 OFFCURVE",
"233 457 OFFCURVE",
"233 509 CURVE SMOOTH",
"233 536 OFFCURVE",
"271 557 OFFCURVE",
"348 586 CURVE SMOOTH",
"421 615 OFFCURVE",
"508 616 OFFCURVE",
"508 640 CURVE SMOOTH",
"508 668 OFFCURVE",
"478 699 OFFCURVE",
"439 699 CURVE SMOOTH",
"318 699 OFFCURVE",
"147 609 OFFCURVE",
"147 490 CURVE SMOOTH",
"147 412 OFFCURVE",
"378 273 OFFCURVE",
"378 193 CURVE SMOOTH",
"378 137 OFFCURVE",
"292 79 OFFCURVE",
"199 79 CURVE SMOOTH",
"104 79 OFFCURVE",
"57 174 OFFCURVE",
"23 174 CURVE SMOOTH",
"11 174 OFFCURVE",
"5 164 OFFCURVE",
"5 144 CURVE SMOOTH",
"5 85 OFFCURVE",
"97 1 OFFCURVE",
"224.5 1 CURVE SMOOTH"
);
}
);
width = 531;
}
);
leftKerningGroup = S;
rightKerningGroup = S;
unicode = 0053;
userData = {
com.typemytype.robofont.guides = (
{
angle = 0;
isGlobal = 0;
magnetic = 5;
x = 0;
y = 355;
},
{
angle = 90;
isGlobal = 0;
magnetic = 5;
x = 306;
y = 0;
}
);
};
},
{
color = 5;
glyphname = T;
layers = (
{
anchors = (
{
name = bottom;
position = "{290, 0}";
},
{
name = center;
position = "{290, 350}";
},
{
name = top;
position = "{290, 700}";
}
);
hints = (
{
horizontal = 1;
place = "{0, 0}";
type = Tag;
}
);
layerId = "FF2DC345-5101-49B6-97F3-57A040F7C387";
paths = (
{
closed = 1;
nodes = (
"226 -1 OFFCURVE",
"234.667 16.667 OFFCURVE",
"244 52 CURVE SMOOTH",
"250 71 OFFCURVE",
"349 496 OFFCURVE",
"367 613 CURVE",
"443.646 611.581 OFFCURVE",
"519 603 OFFCURVE",
"572 604 CURVE SMOOTH",
"594 604 OFFCURVE",
"605 610 OFFCURVE",
"605 623 CURVE SMOOTH",
"605 678 OFFCURVE",
"430 694 OFFCURVE",
"373 694 CURVE SMOOTH",
"73 694 OFFCURVE",
"63 683 OFFCURVE",
"63 666 CURVE SMOOTH",
"63 639 OFFCURVE",
"92 604 OFFCURVE",
"113 604 CURVE SMOOTH",
"158 604 OFFCURVE",
"219 611 OFFCURVE",
"284 612 CURVE",
"266 417 OFFCURVE",
"167 153 OFFCURVE",
"167 67 CURVE SMOOTH",
"167 36 OFFCURVE",
"199 -1 OFFCURVE",
"219 -1 CURVE SMOOTH"
);
}
);
width = 535;
}
);
leftKerningGroup = T;
rightKerningGroup = T;
unicode = 0054;
userData = {
com.typemytype.robofont.guides = (
{
angle = 0;
isGlobal = 0;
magnetic = 5;
x = 0;
y = 495;
},
{
angle = 0;
isGlobal = 0;
magnetic = 5;
x = 0;
y = 9;
},
{
angle = 0;
isGlobal = 0;
magnetic = 5;
x = 0;
y = 691;
},
{
angle = 0;
isGlobal = 0;
magnetic = 5;
x = 0;
y = 649;
},
{
angle = 90;
isGlobal = 0;
magnetic = 5;
x = 279;
y = 0;
},
{
angle = 90;
isGlobal = 0;
magnetic = 5;
x = 324;
y = 0;
},
{
angle = 90;
isGlobal = 0;
magnetic = 5;
x = 59;
y = 0;
},
{
angle = 90;
isGlobal = 0;
magnetic = 5;
x = 544;
y = 0;
}
);
};
},
{
color = 5;
glyphname = U;
layers = (
{
anchors = (
{
name = bottom;
position = "{271, 0}";
},
{
name = ogonek;
position = "{301, 62}";
},
{
name = top;
position = "{341, 700}";
},
{
name = topright;
position = "{581, 700}";
}
);
layerId = "FF2DC345-5101-49B6-97F3-57A040F7C387";
paths = (
{
closed = 1;
nodes = (
"462 -9 OFFCURVE",
"569 331 OFFCURVE",
"569 576 CURVE SMOOTH",
"569 648 OFFCURVE",
"516.667 699 OFFCURVE",
"486 699 CURVE SMOOTH",
"474 699 OFFCURVE",
"468 692 OFFCURVE",
"468 678 CURVE SMOOTH",
"468 641 OFFCURVE",
"477 610 OFFCURVE",
"477 542 CURVE SMOOTH",
"477 372 OFFCURVE",
"380 76 OFFCURVE",
"248 76 CURVE SMOOTH",
"204 76 OFFCURVE",
"173 127 OFFCURVE",
"173 202.5 CURVE SMOOTH",
"173 298 OFFCURVE",
"254 543 OFFCURVE",
"254 610.5 CURVE SMOOTH",
"254 658 OFFCURVE",
"211 699 OFFCURVE",
"191.5 699 CURVE SMOOTH",
"172 699 OFFCURVE",
"169 692 OFFCURVE",
"169 669 CURVE SMOOTH",
"169 543 OFFCURVE",
"85 345.916 OFFCURVE",
"85 192 CURVE SMOOTH",
"85 86.667 OFFCURVE",
"157 -9 OFFCURVE",
"241 -9 CURVE SMOOTH"
);
}
);
width = 598;
}
);
leftKerningGroup = U;
rightKerningGroup = U;
unicode = 0055;
userData = {
com.typemytype.robofont.guides = (
{
angle = 0;
isGlobal = 0;
magnetic = 5;
x = 0;
y = 267;
},
{
angle = 90;
isGlobal = 0;
magnetic = 5;
x = 333;
y = 0;
},
{
angle = 90;
isGlobal = 0;
magnetic = 5;
x = 535;
y = 0;
},
{
angle = 90;
isGlobal = 0;
magnetic = 5;
x = 580;
y = 0;
},
{
angle = 90;
isGlobal = 0;
magnetic = 5;
x = 84;
y = 0;
},
{
angle = 90;
isGlobal = 0;
magnetic = 5;
x = 129;
y = 0;
}
);
};
},
{
color = 5;
glyphname = V;
layers = (
{
anchors = (
{
name = bottom;
position = "{327, 0}";
},
{
name = top;
position = "{327, 700}";
}
);
hints = (
{
horizontal = 1;
place = "{0, 0}";
type = Tag;
}
);
layerId = "FF2DC345-5101-49B6-97F3-57A040F7C387";
paths = (
{
closed = 1;
nodes = (
"257 -7 OFFCURVE",
"278 10 OFFCURVE",
"296 54 CURVE SMOOTH",
"417 343 OFFCURVE",
"593 623 OFFCURVE",
"593 658.5 CURVE SMOOTH",
"593 680 OFFCURVE",
"566 698 OFFCURVE",
"545 698 CURVE SMOOTH",
"524 698 OFFCURVE",
"430 599 OFFCURVE",
"247 127 CURVE",
"227 203 OFFCURVE",
"174 602 OFFCURVE",
"164 622 CURVE SMOOTH",
"143 665 OFFCURVE",
"114 698 OFFCURVE",
"86 698 CURVE SMOOTH",
"75 698 OFFCURVE",
"69 688 OFFCURVE",
"69 667 CURVE SMOOTH",
"69 591 OFFCURVE",
"151 146.333 OFFCURVE",
"187 57 CURVE SMOOTH",
"200.333 23.667 OFFCURVE",
"227 -7 OFFCURVE",
"243 -7 CURVE SMOOTH"
);
}
);
width = 532;
}
);
unicode = 0056;
userData = {
com.typemytype.robofont.guides = (
{
angle = 0;
isGlobal = 0;
magnetic = 5;
x = 0;
y = 24;
}
);
};
},
{
color = 5;
glyphname = W;
layers = (
{
anchors = (
{
name = bottom;
position = "{400, 0}";
},
{
name = top;
position = "{400, 700}";
}
);
layerId = "FF2DC345-5101-49B6-97F3-57A040F7C387";
paths = (
{
closed = 1;
nodes = (
"188 -1 OFFCURVE",
"344 238 OFFCURVE",
"372 277 CURVE",
"379 171 OFFCURVE",
"396 0 OFFCURVE",
"505 0 CURVE SMOOTH",
"626 0 OFFCURVE",
"735 184 OFFCURVE",
"735 372 CURVE SMOOTH",
"735 560 OFFCURVE",
"654 699 OFFCURVE",
"498 699 CURVE SMOOTH",
"466 699 OFFCURVE",
"450 689.333 OFFCURVE",
"450 670 CURVE SMOOTH",
"450 647.333 OFFCURVE",
"485.833 607 OFFCURVE",
"530.5 607 CURVE SMOOTH",
"608 607 OFFCURVE",
"646 474 OFFCURVE",
"646 384 CURVE SMOOTH",
"646 237.333 OFFCURVE",
"581.667 93 OFFCURVE",
"507 93 CURVE SMOOTH",
"473.667 93 OFFCURVE",
"454.667 168.333 OFFCURVE",
"448 243 CURVE SMOOTH",
"439.333 343 OFFCURVE",
"423.667 393 OFFCURVE",
"401 393 CURVE SMOOTH",
"357 393 OFFCURVE",
"235.333 252.333 OFFCURVE",
"154 115 CURVE",
"159.333 187 OFFCURVE",
"229 597 OFFCURVE",
"229 624.5 CURVE SMOOTH",
"229 654 OFFCURVE",
"177 698 OFFCURVE",
"148 698 CURVE SMOOTH",
"133 698 OFFCURVE",
"126 686 OFFCURVE",
"126 661 CURVE SMOOTH",
"126 454 OFFCURVE",
"72 222 OFFCURVE",
"72 90.5 CURVE SMOOTH",
"72 37 OFFCURVE",
"108.667 -1 OFFCURVE",
"130 -1 CURVE SMOOTH"
);
}
);
width = 782;
}
);
leftKerningGroup = W;
rightKerningGroup = W;
unicode = 0057;
userData = {
com.typemytype.robofont.guides = (
{
angle = 0;
isGlobal = 0;
magnetic = 5;
x = 0;
y = 545;
},
{
angle = 0;
isGlobal = 0;
magnetic = 5;
x = 0;
y = 670;
},
{
angle = 0;
isGlobal = 0;
magnetic = 5;
x = 0;
y = 24;
}
);
};
},
{
color = 5;
glyphname = X;
layers = (
{
anchors = (
{
name = bottom;
position = "{307, 0}";
},
{
name = top;
position = "{327, 700}";
}
);
hints = (
{
horizontal = 1;
place = "{0, 0}";
type = Tag;
}
);
layerId = "FF2DC345-5101-49B6-97F3-57A040F7C387";
paths = (
{
closed = 1;
nodes = (
"519 -1 OFFCURVE",
"532 11 OFFCURVE",
"532 32 CURVE SMOOTH",
"532 75 OFFCURVE",
"438.932 190.111 OFFCURVE",
"358 322 CURVE",
"478 476.667 OFFCURVE",
"550.333 566 OFFCURVE",
"575 590 CURVE SMOOTH",
"602.744 617.744 OFFCURVE",
"626 621 OFFCURVE",
"626 642.5 CURVE SMOOTH",
"626 656 OFFCURVE",
"590 695 OFFCURVE",
"574 695 CURVE SMOOTH",
"555 695 OFFCURVE",
"530.5 678.333 OFFCURVE",
"499.5 645 CURVE SMOOTH",
"468.5 611.667 OFFCURVE",
"406 530 OFFCURVE",
"312 400 CURVE",
"252 506 OFFCURVE",
"222 590 OFFCURVE",
"222 651 CURVE SMOOTH",
"222 676 OFFCURVE",
"175 699 OFFCURVE",
"136 699 CURVE SMOOTH",
"127 699 OFFCURVE",
"122 690 OFFCURVE",
"122 672 CURVE SMOOTH",
"122 603 OFFCURVE",
"167 488 OFFCURVE",
"257 326 CURVE",
"172.333 215.333 OFFCURVE",
"103 130.667 OFFCURVE",
"49 72 CURVE SMOOTH",
"29.995 52.995 OFFCURVE",
"25 47 OFFCURVE",
"25 34 CURVE SMOOTH",
"25 20 OFFCURVE",
"55 0 OFFCURVE",
"72 0 CURVE SMOOTH",
"110 0 OFFCURVE",
"150 55 OFFCURVE",
"173.5 82.5 CURVE SMOOTH",
"186.17 97.583 OFFCURVE",
"266.333 203 OFFCURVE",
"301 249 CURVE",
"344.333 177.667 OFFCURVE",
"385.167 118.167 OFFCURVE",
"423.5 70.5 CURVE SMOOTH",
"461.833 22.833 OFFCURVE",
"489 -1 OFFCURVE",
"506 -1 CURVE SMOOTH"
);
}
);
width = 624;
}
);
unicode = 0058;
userData = {
com.typemytype.robofont.guides = (
{
angle = 0;
isGlobal = 0;
magnetic = 5;
x = 0;
y = 350;
},
{
angle = 90;
isGlobal = 0;
magnetic = 5;
x = 28;
y = 0;
},
{
angle = 90;
isGlobal = 0;
magnetic = 5;
x = 580;
y = 0;
}
);
};
},
{
color = 5;
glyphname = Y;
layers = (
{
anchors = (
{
name = bottom;
position = "{323, 0}";
},
{
name = top;
position = "{323, 700}";
},
{
name = topleft;
position = "{20, 700}";
}
);
layerId = "FF2DC345-5101-49B6-97F3-57A040F7C387";
paths = (
{
closed = 1;
nodes = (
"231 -11 OFFCURVE",
"255 12 OFFCURVE",
"282 64 CURVE SMOOTH",
"361 215 OFFCURVE",
"470 398 OFFCURVE",
"569 561 CURVE SMOOTH",
"594 603 OFFCURVE",
"607 629 OFFCURVE",
"607 649 CURVE SMOOTH",
"607 671 OFFCURVE",
"589 696 OFFCURVE",
"560 696 CURVE SMOOTH",
"506 696 OFFCURVE",
"373 353 OFFCURVE",
"324 353 CURVE SMOOTH",
"277 353 OFFCURVE",
"207 467 OFFCURVE",
"181 576 CURVE SMOOTH",
"157 676 OFFCURVE",
"149 696 OFFCURVE",
"132 696 CURVE SMOOTH",
"106 696 OFFCURVE",
"92 669 OFFCURVE",
"92 645 CURVE SMOOTH",
"92 494 OFFCURVE",
"169 309 OFFCURVE",
"302 275 CURVE",
"293.668 259.724 OFFCURVE",
"235 143 OFFCURVE",
"218 110 CURVE SMOOTH",
"199.333 72 OFFCURVE",
"190 44 OFFCURVE",
"190 25 CURVE SMOOTH",
"190 1 OFFCURVE",
"197 -11 OFFCURVE",
"212 -11 CURVE SMOOTH"
);
}
);
width = 575;
}
);
leftKerningGroup = Y;
rightKerningGroup = Y;
unicode = 0059;
userData = {
com.typemytype.robofont.guides = (
{
angle = 90;
isGlobal = 0;
magnetic = 5;
x = 310;
y = 0;
}
);
};
},
{
color = 5;
glyphname = Z;
layers = (
{
anchors = (
{
name = bottom;
position = "{301, 0}";
},
{
name = center;
position = "{301, 350}";
},
{
name = top;
position = "{291, 700}";
}
);
layerId = "FF2DC345-5101-49B6-97F3-57A040F7C387";
paths = (
{
closed = 1;
nodes = (
"385 0 OFFCURVE",
"537 73 OFFCURVE",
"537 96 CURVE SMOOTH",
"537 112 OFFCURVE",
"525 120 OFFCURVE",
"502 120 CURVE SMOOTH",
"471 120 OFFCURVE",
"268 87 OFFCURVE",
"183 87 CURVE SMOOTH",
"167 87 OFFCURVE",
"157 97 OFFCURVE",
"157 113 CURVE SMOOTH",
"157 142 OFFCURVE",
"295.046 245.687 OFFCURVE",
"419.5 355.5 CURVE SMOOTH",
"498.833 425.5 OFFCURVE",
"562 504.333 OFFCURVE",
"562 547 CURVE SMOOTH",
"562 586 OFFCURVE",
"530 622 OFFCURVE",
"503 641 CURVE SMOOTH",
"464 669 OFFCURVE",
"360 690 OFFCURVE",
"271 690 CURVE SMOOTH",
"235 690 OFFCURVE",
"124 682 OFFCURVE",
"124 653 CURVE SMOOTH",
"124 627.667 OFFCURVE",
"159 588 OFFCURVE",
"188 588 CURVE SMOOTH",
"204 588 OFFCURVE",
"271 603 OFFCURVE",
"337 603 CURVE SMOOTH",
"409 603 OFFCURVE",
"479 588 OFFCURVE",
"479 559 CURVE SMOOTH",
"479 530.333 OFFCURVE",
"429.333 475 OFFCURVE",
"330 393 CURVE SMOOTH",
"268 341 OFFCURVE",
"59 183 OFFCURVE",
"59 103.5 CURVE SMOOTH",
"59 59 OFFCURVE",
"109 0 OFFCURVE",
"160 0 CURVE SMOOTH"
);
}
);
width = 620;
}
);
leftKerningGroup = Z;
rightKerningGroup = Z;
unicode = 005A;
userData = {
com.typemytype.robofont.guides = (
{
angle = 0;
isGlobal = 0;
magnetic = 5;
x = 0;
y = 51;
},
{
angle = 0;
isGlobal = 0;
magnetic = 5;
x = 0;
y = 9;
},
{
angle = 0;
isGlobal = 0;
magnetic = 5;
x = 0;
y = 691;
},
{
angle = 0;
isGlobal = 0;
magnetic = 5;
x = 0;
y = 649;
},
{
angle = 90;
isGlobal = 0;
magnetic = 5;
x = 189;
y = 0;
},
{
angle = 90;
isGlobal = 0;
magnetic = 5;
x = 815;
y = 0;
},
{
angle = 90;
isGlobal = 0;
magnetic = 5;
x = 732;
y = 0;
},
{
angle = 90;
isGlobal = 0;
magnetic = 5;
x = "-431";
y = 0;
},
{
angle = 90;
isGlobal = 0;
magnetic = 5;
x = 74;
y = 0;
},
{
angle = 90;
isGlobal = 0;
magnetic = 5;
x = 541;
y = 0;
}
);
};
},
{
color = 5;
glyphname = a;
layers = (
{
anchors = (
{
name = bottom;
position = "{236, 0}";
},
{
name = ogonek;
position = "{361, 70}";
},
{
name = top;
position = "{310, 490}";
}
);
hints = (
{
horizontal = 1;
place = "{0, 0}";
type = Tag;
},
{
horizontal = 1;
place = "{0, 0}";
type = Tag;
}
);
layerId = "FF2DC345-5101-49B6-97F3-57A040F7C387";
paths = (
{
closed = 1;
nodes = (
"193 -5 OFFCURVE",
"247.667 32.667 OFFCURVE",
"307 108 CURVE",
"308 75 OFFCURVE",
"317 -5 OFFCURVE",
"350 -5 CURVE SMOOTH",
"359 -5 OFFCURVE",
"366 4 OFFCURVE",
"368 20 CURVE SMOOTH",
"384 136 OFFCURVE",
"405 213 OFFCURVE",
"405 263 CURVE SMOOTH",
"405 270 OFFCURVE",
"401 279 OFFCURVE",
"393 289 CURVE",
"411 316 OFFCURVE",
"418 341 OFFCURVE",
"418 366 CURVE SMOOTH",
"418 391 OFFCURVE",
"404 417 OFFCURVE",
"380 445.5 CURVE SMOOTH",
"354.667 475.833 OFFCURVE",
"327 491 OFFCURVE",
"297 491 CURVE SMOOTH",
"186 491 OFFCURVE",
"7 264 OFFCURVE",
"7 116 CURVE SMOOTH",
"7 60 OFFCURVE",
"81 -5 OFFCURVE",
"142 -5 CURVE SMOOTH"
);
},
{
closed = 1;
nodes = (
"113 78 OFFCURVE",
"91 93 OFFCURVE",
"91 116 CURVE SMOOTH",
"91 203 OFFCURVE",
"224 408 OFFCURVE",
"306 408 CURVE SMOOTH",
"331 408 OFFCURVE",
"343 377 OFFCURVE",
"343 315 CURVE",
"334 312 OFFCURVE",
"328 306 OFFCURVE",
"326 296 CURVE SMOOTH",
"295.333 174.667 OFFCURVE",
"201 78 OFFCURVE",
"138 78 CURVE SMOOTH"
);
}
);
width = 469;
}
);
leftKerningGroup = a;
rightKerningGroup = a;
unicode = 0061;
},
{
color = 5;
glyphname = ae;
layers = (
{
anchors = (
{
name = bottom;
position = "{316, 0}";
},
{
name = top;
position = "{448, 520}";
}
);
hints = (
{
horizontal = 1;
place = "{0, 0}";
type = Tag;
},
{
horizontal = 1;
place = "{0, 0}";
type = Tag;
},
{
horizontal = 1;
place = "{0, 0}";
type = Tag;
}
);
layerId = "FF2DC345-5101-49B6-97F3-57A040F7C387";
paths = (
{
closed = 1;
nodes = (
"216 -5 OFFCURVE",
"266 39 OFFCURVE",
"327 122 CURVE",
"341 49 OFFCURVE",
"407 -5 OFFCURVE",
"492 -5 CURVE SMOOTH",
"571 -5 OFFCURVE",
"677 47 OFFCURVE",
"677 85 CURVE SMOOTH",
"677 98 OFFCURVE",
"668 105 OFFCURVE",
"651 105 CURVE SMOOTH",
"635 105 OFFCURVE",
"567 70 OFFCURVE",
"491.5 70 CURVE SMOOTH",
"423 70 OFFCURVE",
"399 97 OFFCURVE",
"399 149 CURVE SMOOTH",
"399 168 OFFCURVE",
"404 194 OFFCURVE",
"413 221 CURVE",
"458 211 OFFCURVE",
"503 205 OFFCURVE",
"544 205 CURVE SMOOTH",
"625 205 OFFCURVE",
"732 244 OFFCURVE",
"732 325.5 CURVE SMOOTH",
"732 397 OFFCURVE",
"655 491 OFFCURVE",
"575 491 CURVE SMOOTH",
"526 491 OFFCURVE",
"476.333 463.333 OFFCURVE",
"427 408 CURVE",
"405.667 454.667 OFFCURVE",
"361 491 OFFCURVE",
"314 491 CURVE SMOOTH",
"179 491 OFFCURVE",
"29 248 OFFCURVE",
"29 118 CURVE SMOOTH",
"29 59 OFFCURVE",
"100 -5 OFFCURVE",
"157.5 -5 CURVE SMOOTH"
);
},
{
closed = 1;
nodes = (
"132 78 OFFCURVE",
"111 93 OFFCURVE",
"111 116 CURVE SMOOTH",
"111 204 OFFCURVE",
"236 408 OFFCURVE",
"322 408 CURVE SMOOTH",
"350 408 OFFCURVE",
"366 379 OFFCURVE",
"368 325 CURVE",
"314 180 OFFCURVE",
"223 78 OFFCURVE",
"153 78 CURVE SMOOTH"
);
},
{
closed = 1;
nodes = (
"496 269 OFFCURVE",
"465 272 OFFCURVE",
"437 278 CURVE",
"474.333 354 OFFCURVE",
"534 412 OFFCURVE",
"575 412 CURVE SMOOTH",
"616 412 OFFCURVE",
"655 366 OFFCURVE",
"655 329.5 CURVE SMOOTH",
"655 293 OFFCURVE",
"596 269 OFFCURVE",
"529 269 CURVE SMOOTH"
);
}
);
width = 743;
}
);
leftKerningGroup = a;
rightKerningGroup = e;
unicode = 00E6;
userData = {
com.typemytype.robofont.guides = (
{
angle = 0;
isGlobal = 0;
magnetic = 5;
x = 0;
y = "-10";
},
{
angle = 0;
isGlobal = 0;
magnetic = 5;
x = 0;
y = 530;
},
{
angle = 90;
isGlobal = 0;
magnetic = 5;
x = 473;
y = 0;
},
{
angle = 90;
isGlobal = 0;
magnetic = 5;
x = "-379";
y = 0;
},
{
angle = 90;
isGlobal = 0;
magnetic = 5;
x = 453;
y = 0;
}
);
};
},
{
color = 5;
glyphname = b;
layers = (
{
anchors = (
{
name = bottom;
position = "{298, 0}";
},
{
name = top;
position = "{298, 750}";
}
);
hints = (
{
horizontal = 1;
place = "{0, 0}";
type = Tag;
},
{
horizontal = 1;
place = "{0, 0}";
type = Tag;
}
);
layerId = "FF2DC345-5101-49B6-97F3-57A040F7C387";
paths = (
{
closed = 1;
nodes = (
"81 -5 OFFCURVE",
"91 17 OFFCURVE",
"107 63 CURVE",
"151 17 OFFCURVE",
"198 -5 OFFCURVE",
"245 -5 CURVE SMOOTH",
"391 -6 OFFCURVE",
"505 211 OFFCURVE",
"506 337 CURVE SMOOTH",
"507 410 OFFCURVE",
"466 494 OFFCURVE",
"394 494 CURVE SMOOTH",
"329 494 OFFCURVE",
"257 440 OFFCURVE",
"178 333 CURVE",
"214 485 OFFCURVE",
"232 602 OFFCURVE",
"232 684 CURVE SMOOTH",
"232 721 OFFCURVE",
"191 771 OFFCURVE",
"170 771 CURVE SMOOTH",
"155 771 OFFCURVE",
"148 761 OFFCURVE",
"148 741 CURVE SMOOTH",
"148 478 OFFCURVE",
"22 90 OFFCURVE",
"22 57 CURVE SMOOTH",
"22 32 OFFCURVE",
"55 -5 OFFCURVE",
"74 -5 CURVE SMOOTH"
);
},
{
closed = 1;
nodes = (
"198 72 OFFCURVE",
"165 92 OFFCURVE",
"134 132 CURVE",
"203 281 OFFCURVE",
"310 406 OFFCURVE",
"387 406 CURVE SMOOTH",
"411 406 OFFCURVE",
"423 386 OFFCURVE",
"423 347 CURVE SMOOTH",
"423 216 OFFCURVE",
"320 72 OFFCURVE",
"233 72 CURVE SMOOTH"
);
}
);
width = 525;
}
);
leftKerningGroup = h;
rightKerningGroup = b;
unicode = 0062;
userData = {
com.typemytype.robofont.guides = (
{
angle = 0;
isGlobal = 0;
magnetic = 5;
x = 0;
y = 530;
},
{
angle = 0;
isGlobal = 0;
magnetic = 5;
x = 0;
y = "-10";
},
{
angle = 0;
isGlobal = 0;
magnetic = 5;
x = 0;
y = 710;
},
{
angle = 0;
isGlobal = 0;
magnetic = 5;
x = 0;
y = 288;
},
{
angle = 0;
isGlobal = 0;
magnetic = 5;
x = 0;
y = 232;
},
{
angle = 0;
isGlobal = 0;
magnetic = 5;
x = 0;
y = 451;
},
{
angle = 0;
isGlobal = 0;
magnetic = 5;
x = 0;
y = 69;
},
{
angle = 90;
isGlobal = 0;
magnetic = 5;
x = 121;
y = 0;
},
{
angle = 90;
isGlobal = 0;
magnetic = 5;
x = 79;
y = 0;
}
);
};
},
{
color = 5;
glyphname = c;
layers = (
{
anchors = (
{
name = bottom;
position = "{276, 0}";
},
{
name = top;
position = "{279, 520}";
}
);
hints = (
{
horizontal = 1;
place = "{0, 0}";
type = Tag;
},
{
horizontal = 1;
place = "{0, 0}";
type = Tag;
}
);
layerId = "FF2DC345-5101-49B6-97F3-57A040F7C387";
paths = (
{
closed = 1;
nodes = (
"270.5 -5 OFFCURVE",
"390 62.333 OFFCURVE",
"390 101 CURVE SMOOTH",
"390 113.667 OFFCURVE",
"384 120 OFFCURVE",
"371 120 CURVE SMOOTH",
"345 120 OFFCURVE",
"300 78 OFFCURVE",
"203.5 78 CURVE SMOOTH",
"146 78 OFFCURVE",
"121 103.667 OFFCURVE",
"121 145 CURVE SMOOTH",
"121 239.667 OFFCURVE",
"247 406 OFFCURVE",
"319 406 CURVE SMOOTH",
"354 406 OFFCURVE",
"374 370 OFFCURVE",
"395 370 CURVE SMOOTH",
"406 370 OFFCURVE",
"415 375 OFFCURVE",
"415 389 CURVE SMOOTH",
"415 426.333 OFFCURVE",
"366.667 491 OFFCURVE",
"312 491 CURVE SMOOTH",
"178 491 OFFCURVE",
"32 278 OFFCURVE",
"32 148.5 CURVE SMOOTH",
"32 65.167 OFFCURVE",
"114.5 -5 OFFCURVE",
"192.5 -5 CURVE SMOOTH"
);
}
);
width = 445;
}
);
leftKerningGroup = o;
rightKerningGroup = c;
unicode = 0063;
userData = {
com.typemytype.robofont.guides = (
{
angle = 0;
isGlobal = 0;
magnetic = 5;
x = 0;
y = "-10";
},
{
angle = 0;
isGlobal = 0;
magnetic = 5;
x = 0;
y = 295;
},
{
angle = 0;
isGlobal = 0;
magnetic = 5;
x = 0;
y = 225;
},
{
angle = 90;
isGlobal = 0;
magnetic = 5;
x = 445;
y = 0;
},
{
angle = 90;
isGlobal = 0;
magnetic = 5;
x = 484;
y = 0;
},
{
angle = 90;
isGlobal = 0;
magnetic = 5;
x = 137;
y = 0;
},
{
angle = 90;
isGlobal = 0;
magnetic = 5;
x = 270;
y = 0;
}
);
};
},
{
color = 5;
glyphname = ccedilla;
layers = (
{
hints = (
{
horizontal = 1;
place = "{0, 0}";
type = Tag;
},
{
horizontal = 1;
place = "{0, 0}";
type = Tag;
}
);
layerId = "FF2DC345-5101-49B6-97F3-57A040F7C387";
paths = (
{
closed = 1;
nodes = (
"171.667 -208 OFFCURVE",
"272 -169 OFFCURVE",
"272 -110 CURVE SMOOTH",
"272 -82 OFFCURVE",
"224 -53 OFFCURVE",
"176 -53 CURVE",
"184.667 -39 OFFCURVE",
"192.667 -23 OFFCURVE",
"200 -5 CURVE",
"277.333 -1 OFFCURVE",
"390 64 OFFCURVE",
"390 101 CURVE SMOOTH",
"390 114 OFFCURVE",
"384 120 OFFCURVE",
"371 120 CURVE SMOOTH",
"351 120 OFFCURVE",
"288 78 OFFCURVE",
"203.5 78 CURVE SMOOTH",
"146 78 OFFCURVE",
"121 104 OFFCURVE",
"121 145 CURVE SMOOTH",
"121 240 OFFCURVE",
"243 406 OFFCURVE",
"319 406 CURVE SMOOTH",
"354 406 OFFCURVE",
"374 370 OFFCURVE",
"396 370 CURVE SMOOTH",
"406 370 OFFCURVE",
"415 377 OFFCURVE",
"415 389 CURVE SMOOTH",
"415 426 OFFCURVE",
"367 491 OFFCURVE",
"312 491 CURVE SMOOTH",
"180 491 OFFCURVE",
"32 282 OFFCURVE",
"32 143 CURVE SMOOTH",
"32 86 OFFCURVE",
"78.333 31 OFFCURVE",
"137 7 CURVE",
"134 -1 OFFCURVE",
"99 -72 OFFCURVE",
"99 -86 CURVE SMOOTH",
"99 -104 OFFCURVE",
"187 -111 OFFCURVE",
"187 -123 CURVE SMOOTH",
"187 -131 OFFCURVE",
"157 -147 OFFCURVE",
"116 -155 CURVE SMOOTH",
"58 -167 OFFCURVE",
"40 -169 OFFCURVE",
"40 -184 CURVE SMOOTH",
"40 -197 OFFCURVE",
"58.333 -208 OFFCURVE",
"85 -208 CURVE SMOOTH"
);
}
);
width = 447;
}
);
leftKerningGroup = o;
rightKerningGroup = c;
unicode = 00E7;
},
{
color = 5;
glyphname = d;
layers = (
{
anchors = (
{
name = bottom;
position = "{298, 0}";
},
{
name = center;
position = "{233, 614}";
},
{
name = top;
position = "{268, 750}";
},
{
name = topright;
position = "{556, 720}";
}
);
hints = (
{
horizontal = 1;
place = "{0, 0}";
type = Tag;
},
{
horizontal = 1;
place = "{0, 0}";
type = Tag;
}
);
layerId = "FF2DC345-5101-49B6-97F3-57A040F7C387";
paths = (
{
closed = 1;
nodes = (
"181.667 -5 OFFCURVE",
"238.667 28.333 OFFCURVE",
"304 95 CURVE",
"301 77 OFFCURVE",
"297 61 OFFCURVE",
"297 52 CURVE SMOOTH",
"297 33 OFFCURVE",
"304 22 OFFCURVE",
"314 13 CURVE SMOOTH",
"325 1 OFFCURVE",
"335 -5 OFFCURVE",
"344 -5 CURVE SMOOTH",
"382 -5 OFFCURVE",
"522 629 OFFCURVE",
"522 686 CURVE SMOOTH",
"522 720.667 OFFCURVE",
"480.333 771 OFFCURVE",
"459 771 CURVE SMOOTH",
"444.333 771 OFFCURVE",
"438 761 OFFCURVE",
"437 741 CURVE SMOOTH",
"434 659 OFFCURVE",
"415 547.333 OFFCURVE",
"381 406 CURVE",
"362.333 462.667 OFFCURVE",
"329.333 491 OFFCURVE",
"282 491 CURVE SMOOTH",
"142 491 OFFCURVE",
"18 256 OFFCURVE",
"18 118 CURVE SMOOTH",
"18 60.667 OFFCURVE",
"74.333 -5 OFFCURVE",
"133 -5 CURVE SMOOTH"
);
},
{
closed = 1;
nodes = (
"120 75 OFFCURVE",
"100 91 OFFCURVE",
"100 115 CURVE SMOOTH",
"100 244.1 OFFCURVE",
"202 408 OFFCURVE",
"286 408 CURVE SMOOTH",
"321 408 OFFCURVE",
"349 356 OFFCURVE",
"349 273 CURVE",
"314 168 OFFCURVE",
"196 75 OFFCURVE",
"144 75 CURVE SMOOTH"
);
}
);
width = 499;
}
);
leftKerningGroup = d;
rightKerningGroup = d;
unicode = 0064;
userData = {
com.typemytype.robofont.guides = (
{
angle = 0;
isGlobal = 0;
magnetic = 5;
x = 0;
y = 650;
},
{
angle = 0;
isGlobal = 0;
magnetic = 5;
x = 0;
y = 530;
},
{
angle = 90;
isGlobal = 0;
magnetic = 5;
x = 438;
y = 0;
},
{
angle = 90;
isGlobal = 0;
magnetic = 5;
x = 499;
y = 0;
}
);
};
},
{
color = 5;
glyphname = eth;
layers = (
{
hints = (
{
horizontal = 1;
place = "{0, 0}";
type = Tag;
}
);
layerId = "FF2DC345-5101-49B6-97F3-57A040F7C387";
paths = (
{
closed = 1;
nodes = (
"320 -5 OFFCURVE",
"424 217 OFFCURVE",
"424 376 CURVE SMOOTH",
"424 438 OFFCURVE",
"411 499 OFFCURVE",
"384 556 CURVE",
"440.667 582.667 OFFCURVE",
"469 602 OFFCURVE",
"469 615 CURVE SMOOTH",
"469 626 OFFCURVE",
"461 631 OFFCURVE",
"446 631 CURVE SMOOTH",
"435 631 OFFCURVE",
"409.333 621 OFFCURVE",
"358 601 CURVE",
"317.333 662.333 OFFCURVE",
"272 693 OFFCURVE",
"223 693 CURVE SMOOTH",
"187 693 OFFCURVE",
"146 660 OFFCURVE",
"146 630.5 CURVE SMOOTH",
"146 616 OFFCURVE",
"152 608 OFFCURVE",
"164 608 CURVE SMOOTH",
"179 608 OFFCURVE",
"201 623 OFFCURVE",
"214 623 CURVE SMOOTH",
"235 623 OFFCURVE",
"257 605.667 OFFCURVE",
"281 571 CURVE",
"233 554 OFFCURVE",
"174 536 OFFCURVE",
"174 509 CURVE SMOOTH",
"174 497 OFFCURVE",
"185 491 OFFCURVE",
"206 491 CURVE SMOOTH",
"221 491 OFFCURVE",
"253 502 OFFCURVE",
"307 523 CURVE",
"321 489 OFFCURVE",
"329.333 452 OFFCURVE",
"332 412 CURVE",
"307.333 435.333 OFFCURVE",
"282 447 OFFCURVE",
"257 447 CURVE SMOOTH",
"136 447 OFFCURVE",
"31 313 OFFCURVE",
"31 157 CURVE SMOOTH",
"31 61 OFFCURVE",
"87 -5 OFFCURVE",
"155 -5 CURVE SMOOTH"
);
},
{
closed = 1;
nodes = (
"138 66 OFFCURVE",
"119 108 OFFCURVE",
"119 149 CURVE SMOOTH",
"119 281 OFFCURVE",
"201 382 OFFCURVE",
"274 382 CURVE SMOOTH",
"293 382 OFFCURVE",
"313 369.667 OFFCURVE",
"333 345 CURVE",
"323.667 214.333 OFFCURVE",
"234 66 OFFCURVE",
"162 66 CURVE SMOOTH"
);
}
);
width = 452;
}
);
unicode = 00F0;
userData = {
com.typemytype.robofont.guides = (
{
angle = 0;
isGlobal = 0;
magnetic = 5;
x = 0;
y = 512;
},
{
angle = 90;
isGlobal = 0;
magnetic = 5;
x = 214;
y = 0;
},
{
angle = 90;
isGlobal = 0;
magnetic = 5;
x = 484;
y = 0;
}
);
};
},
{
color = 5;
glyphname = e;
layers = (
{
anchors = (
{
name = bottom;
position = "{280, 0}";
},
{
name = ogonek;
position = "{415, 51}";
},
{
name = top;
position = "{291, 490}";
}
);
hints = (
{
horizontal = 1;
place = "{0, 0}";
type = Tag;
}
);
layerId = "FF2DC345-5101-49B6-97F3-57A040F7C387";
paths = (
{
closed = 1;
nodes = (
"272.333 -5 OFFCURVE",
"375 49 OFFCURVE",
"375 85 CURVE SMOOTH",
"375 98 OFFCURVE",
"366 105 OFFCURVE",
"349 105 CURVE SMOOTH",
"336 105 OFFCURVE",
"263 70 OFFCURVE",
"189.5 70 CURVE SMOOTH",
"124 70 OFFCURVE",
"97 97 OFFCURVE",
"97 142.5 CURVE SMOOTH",
"97 166 OFFCURVE",
"101.667 191.667 OFFCURVE",
"111 221 CURVE",
"150 210 OFFCURVE",
"189 205 OFFCURVE",
"233 205 CURVE SMOOTH",
"314 205 OFFCURVE",
"430 238 OFFCURVE",
"430 325.5 CURVE SMOOTH",
"430 396.833 OFFCURVE",
"352.667 491 OFFCURVE",
"274 491 CURVE SMOOTH",
"142 491 OFFCURVE",
"19 291 OFFCURVE",
"19 159 CURVE SMOOTH",
"19 64.333 OFFCURVE",
"91 -5 OFFCURVE",
"195 -5 CURVE SMOOTH"
);
},
{
closed = 1;
nodes = (
"191 269 OFFCURVE",
"160.667 272 OFFCURVE",
"134 278 CURVE",
"171.333 354 OFFCURVE",
"229.667 412 OFFCURVE",
"279 412 CURVE SMOOTH",
"311 412 OFFCURVE",
"352 365 OFFCURVE",
"352 329 CURVE SMOOTH",
"352 293 OFFCURVE",
"293 269 OFFCURVE",
"225 269 CURVE SMOOTH"
);
}
);
width = 450;
}
);
leftKerningGroup = o;
rightKerningGroup = e;
unicode = 0065;
userData = {
com.typemytype.robofont.guides = (
{
angle = 0;
isGlobal = 0;
magnetic = 5;
x = 0;
y = "-10";
},
{
angle = 90;
isGlobal = 0;
magnetic = 5;
x = 275;
y = 0;
},
{
angle = 90;
isGlobal = 0;
magnetic = 5;
x = 496;
y = 0;
},
{
angle = 90;
isGlobal = 0;
magnetic = 5;
x = 61;
y = 0;
},
{
angle = 90;
isGlobal = 0;
magnetic = 5;
x = 122;
y = 0;
},
{
angle = 90;
isGlobal = 0;
magnetic = 5;
x = 430;
y = 0;
}
);
};
},
{
color = 5;
glyphname = f;
layers = (
{
anchors = (
{
name = bottom;
position = "{192, 0}";
},
{
name = top;
position = "{192, 718}";
}
);
hints = (
{
horizontal = 1;
place = "{0, 0}";
type = Tag;
}
);
layerId = "FF2DC345-5101-49B6-97F3-57A040F7C387";
paths = (
{
closed = 1;
nodes = (
"110 -7 OFFCURVE",
"118.667 2.667 OFFCURVE",
"128 22 CURVE SMOOTH",
"145.333 58.667 OFFCURVE",
"177.667 173 OFFCURVE",
"225 365 CURVE",
"368 385 OFFCURVE",
"387 402 OFFCURVE",
"387 420 CURVE SMOOTH",
"387 438 OFFCURVE",
"361 448 OFFCURVE",
"324 448 CURVE SMOOTH",
"301 448 OFFCURVE",
"273 447 OFFCURVE",
"244 443 CURVE",
"286 660 OFFCURVE",
"320 686 OFFCURVE",
"346 686 CURVE SMOOTH",
"367 686 OFFCURVE",
"386 666 OFFCURVE",
"394 632 CURVE SMOOTH",
"404 596 OFFCURVE",
"417 578 OFFCURVE",
"433 578 CURVE SMOOTH",
"453 578 OFFCURVE",
"462 600 OFFCURVE",
"462 626 CURVE SMOOTH",
"462 697 OFFCURVE",
"419 764 OFFCURVE",
"347 764 CURVE SMOOTH",
"250 764 OFFCURVE",
"197 691 OFFCURVE",
"156 430 CURVE",
"71 414 OFFCURVE",
"31 401 OFFCURVE",
"31 381 CURVE SMOOTH",
"31 365 OFFCURVE",
"52 337 OFFCURVE",
"80 337 CURVE SMOOTH",
"94 337 OFFCURVE",
"112 341 OFFCURVE",
"138 347 CURVE",
"103 189 OFFCURVE",
"60 65 OFFCURVE",
"60 44 CURVE SMOOTH",
"60 26 OFFCURVE",
"85 -7 OFFCURVE",
"103 -7 CURVE SMOOTH"
);
}
);
width = 376;
}
);
leftKerningGroup = f;
rightKerningGroup = f;
unicode = 0066;
userData = {
com.typemytype.robofont.guides = (
{
angle = 0;
isGlobal = 0;
magnetic = 5;
x = 0;
y = 345;
},
{
angle = 0;
isGlobal = 0;
magnetic = 5;
x = 0;
y = 9;
},
{
angle = 0;
isGlobal = 0;
magnetic = 5;
x = 0;
y = 740;
},
{
angle = 90;
isGlobal = 0;
magnetic = 5;
x = 297;
y = 0;
},
{
angle = 90;
isGlobal = 0;
magnetic = 5;
x = 371;
y = 0;
}
);
};
},
{
color = 5;
glyphname = g;
layers = (
{
anchors = (
{
name = bottom;
position = "{299, -225}";
},
{
name = top;
position = "{317, 520}";
}
);
hints = (
{
horizontal = 1;
place = "{0, 0}";
type = Tag;
},
{
horizontal = 1;
place = "{0, 0}";
type = Tag;
},
{
horizontal = 1;
place = "{0, 0}";
type = Tag;
}
);
layerId = "FF2DC345-5101-49B6-97F3-57A040F7C387";
paths = (
{
closed = 1;
nodes = (
"245 -267 OFFCURVE",
"281 -203 OFFCURVE",
"334 -1.5 CURVE SMOOTH",
"379 169 OFFCURVE",
"427 238.333 OFFCURVE",
"427 265 CURVE SMOOTH",
"427 275 OFFCURVE",
"423 286.667 OFFCURVE",
"415 298 CURVE",
"416 302 OFFCURVE",
"417 308 OFFCURVE",
"417 316 CURVE SMOOTH",
"417 396 OFFCURVE",
"381 491 OFFCURVE",
"301 491 CURVE SMOOTH",
"166 491 OFFCURVE",
"24 238 OFFCURVE",
"24 126.5 CURVE SMOOTH",
"24 56.5 OFFCURVE",
"79.667 -5 OFFCURVE",
"145 -5 CURVE SMOOTH",
"177.667 -5 OFFCURVE",
"220 14.333 OFFCURVE",
"272 53 CURVE",
"254 -11 OFFCURVE",
"229 -199 OFFCURVE",
"143 -199 CURVE SMOOTH",
"79 -199 OFFCURVE",
"39 -104 OFFCURVE",
"14.5 -104 CURVE SMOOTH",
"1 -104 OFFCURVE",
"-15 -130.667 OFFCURVE",
"-15 -152 CURVE SMOOTH",
"-15 -202.667 OFFCURVE",
"58.333 -267 OFFCURVE",
"153 -267 CURVE SMOOTH"
);
},
{
closed = 1;
nodes = (
"121 78 OFFCURVE",
"105 93 OFFCURVE",
"105 116 CURVE SMOOTH",
"105 219 OFFCURVE",
"228.332 408 OFFCURVE",
"306 408 CURVE SMOOTH",
"352 408 OFFCURVE",
"347 312 OFFCURVE",
"358 276 CURVE",
"320.667 170.667 OFFCURVE",
"211 78 OFFCURVE",
"144 78 CURVE SMOOTH"
);
}
);
width = 475;
}
);
leftKerningGroup = g;
rightKerningGroup = u;
unicode = 0067;
userData = {
com.typemytype.robofont.guides = (
{
angle = 0;
isGlobal = 0;
magnetic = 5;
x = 0;
y = 530;
},
{
angle = 0;
isGlobal = 0;
magnetic = 5;
x = 0;
y = "-220";
},
{
angle = 0;
isGlobal = 0;
magnetic = 5;
x = 0;
y = 288;
},
{
angle = 0;
isGlobal = 0;
magnetic = 5;
x = 0;
y = 232;
},
{
angle = 90;
isGlobal = 0;
magnetic = 5;
x = 56;
y = 0;
},
{
angle = 90;
isGlobal = 0;
magnetic = 5;
x = 270;
y = 0;
}
);
};
},
{
color = 5;
glyphname = h;
layers = (
{
anchors = (
{
name = bottom;
position = "{275, 0}";
},
{
name = center;
position = "{151, 597}";
},
{
name = top;
position = "{426, 675}";
}
);
layerId = "FF2DC345-5101-49B6-97F3-57A040F7C387";
paths = (
{
closed = 1;
nodes = (
"115 -5 OFFCURVE",
"299 377 OFFCURVE",
"376 377 CURVE SMOOTH",
"395 377 OFFCURVE",
"409 363 OFFCURVE",
"409 335 CURVE SMOOTH",
"409 249 OFFCURVE",
"332 88 OFFCURVE",
"332 25 CURVE SMOOTH",
"332 5 OFFCURVE",
"339 -5 OFFCURVE",
"354 -5 CURVE SMOOTH",
"424 -5 OFFCURVE",
"496 294 OFFCURVE",
"496 356 CURVE SMOOTH",
"496 416 OFFCURVE",
"435.667 491 OFFCURVE",
"401 491 CURVE SMOOTH",
"369 491 OFFCURVE",
"308 481 OFFCURVE",
"121 149 CURVE",
"118 149 LINE",
"187.333 357 OFFCURVE",
"235 596 OFFCURVE",
"235 683 CURVE SMOOTH",
"235 720 OFFCURVE",
"198.333 771 OFFCURVE",
"173 771 CURVE SMOOTH",
"157 771 OFFCURVE",
"149 758 OFFCURVE",
"149 732 CURVE SMOOTH",
"149 588 OFFCURVE",
"71 257 OFFCURVE",
"34 114 CURVE SMOOTH",
"27 87 OFFCURVE",
"23 71 OFFCURVE",
"23 57 CURVE SMOOTH",
"23 32 OFFCURVE",
"59 -5 OFFCURVE",
"75 -5 CURVE SMOOTH"
);
}
);
width = 536;
}
);
leftKerningGroup = h;
rightKerningGroup = n;
unicode = 0068;
userData = {
com.typemytype.robofont.guides = (
{
angle = 0;
isGlobal = 0;
magnetic = 5;
x = 0;
y = 9;
},
{
angle = 0;
isGlobal = 0;
magnetic = 5;
x = 0;
y = 301;
},
{
angle = 0;
isGlobal = 0;
magnetic = 5;
x = 0;
y = 414;
},
{
angle = 0;
isGlobal = 0;
magnetic = 5;
x = 0;
y = 710;
},
{
angle = 90;
isGlobal = 0;
magnetic = 5;
x = 79;
y = 0;
},
{
angle = 90;
isGlobal = 0;
magnetic = 5;
x = 291;
y = 0;
}
);
};
},
{
color = 5;
glyphname = i;
layers = (
{
anchors = (
{
name = bottom;
position = "{121, 0}";
},
{
name = top;
position = "{122, 722}";
}
);
hints = (
{
horizontal = 1;
place = "{0, 0}";
type = Tag;
}
);
layerId = "FF2DC345-5101-49B6-97F3-57A040F7C387";
paths = (
{
closed = 1;
nodes = (
"79 -4 OFFCURVE",
"93.667 12.667 OFFCURVE",
"105 46 CURVE SMOOTH",
"160.722 218.231 OFFCURVE",
"207 367 OFFCURVE",
"207 423 CURVE SMOOTH",
"207 452 OFFCURVE",
"179 491 OFFCURVE",
"154 491 CURVE SMOOTH",
"144 491 OFFCURVE",
"134.333 474.667 OFFCURVE",
"125 442 CURVE SMOOTH",
"97.996 341.699 OFFCURVE",
"28 50 OFFCURVE",
"28 33.5 CURVE SMOOTH",
"28 14 OFFCURVE",
"43 -4 OFFCURVE",
"62 -4 CURVE SMOOTH"
);
},
{
closed = 1;
nodes = (
"255 555 OFFCURVE",
"270 568 OFFCURVE",
"270 581 CURVE SMOOTH",
"270 617 OFFCURVE",
"229 689 OFFCURVE",
"207.5 689 CURVE SMOOTH",
"186 689 OFFCURVE",
"159 660 OFFCURVE",
"159 633 CURVE SMOOTH",
"159 606 OFFCURVE",
"210 555 OFFCURVE",
"242 555 CURVE SMOOTH"
);
}
);
width = 238;
}
);
leftKerningGroup = i;
rightKerningGroup = i;
unicode = 0069;
userData = {
com.typemytype.robofont.guides = (
{
angle = 0;
isGlobal = 0;
magnetic = 5;
x = 0;
y = 510;
},
{
angle = 0;
isGlobal = 0;
magnetic = 5;
x = 0;
y = 22;
},
{
angle = 0;
isGlobal = 0;
magnetic = 5;
x = 0;
y = 627;
},
{
angle = 90;
isGlobal = 0;
magnetic = 5;
x = 79;
y = 0;
},
{
angle = 90;
isGlobal = 0;
magnetic = 5;
x = 121;
y = 0;
},
{
angle = 90;
isGlobal = 0;
magnetic = 5;
x = 70;
y = 0;
},
{
angle = 90;
isGlobal = 0;
magnetic = 5;
x = 131;
y = 0;
}
);
};
},
{
color = 5;
glyphname = idotless;
layers = (
{
anchors = (
{
name = bottom;
position = "{121, 0}";
},
{
name = ogonek;
position = "{169, 48}";
},
{
name = top;
position = "{179, 490}";
}
);
hints = (
{
horizontal = 1;
place = "{0, 0}";
type = Tag;
}
);
layerId = "FF2DC345-5101-49B6-97F3-57A040F7C387";
paths = (
{
closed = 1;
nodes = (
"79 -4 OFFCURVE",
"95 13 OFFCURVE",
"105 46 CURVE SMOOTH",
"157 219 OFFCURVE",
"207 367 OFFCURVE",
"207 423 CURVE SMOOTH",
"207 452 OFFCURVE",
"179 491 OFFCURVE",
"154 491 CURVE SMOOTH",
"144 491 OFFCURVE",
"134 475 OFFCURVE",
"125 442 CURVE SMOOTH",
"99 342 OFFCURVE",
"28 50 OFFCURVE",
"28 33.5 CURVE SMOOTH",
"28 14 OFFCURVE",
"43 -4 OFFCURVE",
"62 -4 CURVE SMOOTH"
);
}
);
width = 238;
}
);
leftKerningGroup = i;
rightKerningGroup = i;
unicode = 0131;
},
{
color = 5;
glyphname = j;
layers = (
{
anchors = (
{
name = top;
position = "{131, 722}";
}
);
layerId = "FF2DC345-5101-49B6-97F3-57A040F7C387";
paths = (
{
closed = 1;
nodes = (
"0 -265 OFFCURVE",
"51.333 -212.667 OFFCURVE",
"80 -108 CURVE SMOOTH",
"132.099 93.6 OFFCURVE",
"213 369 OFFCURVE",
"213 423 CURVE SMOOTH",
"213 456 OFFCURVE",
"182.667 491 OFFCURVE",
"160 491 CURVE SMOOTH",
"150.667 491 OFFCURVE",
"141 474.667 OFFCURVE",
"131 442 CURVE SMOOTH",
"76.25 238.97 OFFCURVE",
"50.724 88.76 OFFCURVE",
"6 -71.5 CURVE SMOOTH",
"-16 -150 OFFCURVE",
"-42 -196 OFFCURVE",
"-75 -196 CURVE SMOOTH",
"-131 -196 OFFCURVE",
"-159 -103 OFFCURVE",
"-191 -103 CURVE SMOOTH",
"-203 -103 OFFCURVE",
"-221 -133 OFFCURVE",
"-221 -151 CURVE SMOOTH",
"-221 -191 OFFCURVE",
"-144 -265 OFFCURVE",
"-76 -265 CURVE SMOOTH"
);
},
{
closed = 1;
nodes = (
"268 555 OFFCURVE",
"283 567 OFFCURVE",
"283 581 CURVE SMOOTH",
"283 617 OFFCURVE",
"245 689 OFFCURVE",
"221 689 CURVE SMOOTH",
"197 689 OFFCURVE",
"172 661 OFFCURVE",
"172 633 CURVE SMOOTH",
"172 605 OFFCURVE",
"224 555 OFFCURVE",
"256 555 CURVE SMOOTH"
);
}
);
width = 254;
}
);
rightKerningGroup = i;
unicode = 006A;
userData = {
com.typemytype.robofont.guides = (
{
angle = 0;
isGlobal = 0;
magnetic = 5;
x = 0;
y = 740;
},
{
angle = 0;
isGlobal = 0;
magnetic = 5;
x = 0;
y = "-190";
},
{
angle = 90;
isGlobal = 0;
magnetic = 5;
x = "-46";
y = 0;
}
);
};
},
{
color = 5;
glyphname = k;
layers = (
{
anchors = (
{
name = bottom;
position = "{259, 0}";
},
{
name = top;
position = "{259, 750}";
}
);
hints = (
{
horizontal = 1;
place = "{0, 0}";
type = Tag;
}
);
layerId = "FF2DC345-5101-49B6-97F3-57A040F7C387";
paths = (
{
closed = 1;
nodes = (
"90 -5 OFFCURVE",
"106 6 OFFCURVE",
"126 30 CURVE SMOOTH",
"145 54 OFFCURVE",
"180 97 OFFCURVE",
"224 158 CURVE",
"267 14 OFFCURVE",
"376 -5 OFFCURVE",
"394 -5 CURVE SMOOTH",
"420 -5 OFFCURVE",
"433 3 OFFCURVE",
"433 20 CURVE SMOOTH",
"433 44 OFFCURVE",
"353 71 OFFCURVE",
"318 122 CURVE SMOOTH",
"302 144 OFFCURVE",
"296 167 OFFCURVE",
"296 193 CURVE SMOOTH",
"296 290 OFFCURVE",
"473 411 OFFCURVE",
"473 443 CURVE SMOOTH",
"473 458 OFFCURVE",
"444 491 OFFCURVE",
"418 491 CURVE SMOOTH",
"380 491 OFFCURVE",
"195 238 OFFCURVE",
"120 131 CURVE",
"187 323 OFFCURVE",
"242 565 OFFCURVE",
"242 684 CURVE SMOOTH",
"242 721 OFFCURVE",
"203 771 OFFCURVE",
"183 771 CURVE SMOOTH",
"163 771 OFFCURVE",
"159 764 OFFCURVE",
"159 743 CURVE SMOOTH",
"159 576 OFFCURVE",
"105 338 OFFCURVE",
"62 187 CURVE SMOOTH",
"40 111 OFFCURVE",
"29 77 OFFCURVE",
"29 58 CURVE SMOOTH",
"29 37 OFFCURVE",
"60 -5 OFFCURVE",
"80 -5 CURVE SMOOTH"
);
}
);
width = 469;
}
);
leftKerningGroup = h;
rightKerningGroup = k;
unicode = 006B;
userData = {
com.typemytype.robofont.guides = (
{
angle = 0;
isGlobal = 0;
magnetic = 5;
x = 0;
y = 520;
},
{
angle = 0;
isGlobal = 0;
magnetic = 5;
x = 0;
y = 710;
},
{
angle = 0;
isGlobal = 0;
magnetic = 5;
x = 0;
y = 260;
},
{
angle = 90;
isGlobal = 0;
magnetic = 5;
x = 460;
y = 0;
},
{
angle = 90;
isGlobal = 0;
magnetic = 5;
x = 430;
y = 0;
}
);
};
},
{
color = 5;
glyphname = l;
layers = (
{
anchors = (
{
name = bottom;
position = "{122, 0}";
},
{
name = center;
position = "{122, 375}";
},
{
name = top;
position = "{122, 676}";
},
{
name = topright;
position = "{253, 710}";
}
);
layerId = "FF2DC345-5101-49B6-97F3-57A040F7C387";
paths = (
{
closed = 1;
nodes = (
"103 -5 OFFCURVE",
"228 412 OFFCURVE",
"228 687 CURVE SMOOTH",
"228 723 OFFCURVE",
"183 771 OFFCURVE",
"166 771 CURVE SMOOTH",
"149 771 OFFCURVE",
"145 764 OFFCURVE",
"145 745 CURVE SMOOTH",
"145 480 OFFCURVE",
"29 69 OFFCURVE",
"29 51 CURVE SMOOTH",
"29 35 OFFCURVE",
"61 -5 OFFCURVE",
"80 -5 CURVE SMOOTH"
);
}
);
width = 245;
}
);
leftKerningGroup = l;
rightKerningGroup = l;
unicode = 006C;
userData = {
com.typemytype.robofont.guides = (
{
angle = 0;
isGlobal = 0;
magnetic = 5;
x = 0;
y = 9;
},
{
angle = 0;
isGlobal = 0;
magnetic = 5;
x = 0;
y = 710;
}
);
};
},
{
color = 5;
glyphname = m;
layers = (
{
anchors = (
{
name = bottom;
position = "{445, 0}";
},
{
name = top;
position = "{495, 520}";
}
);
hints = (
{
horizontal = 1;
place = "{0, 0}";
type = Tag;
},
{
horizontal = 1;
place = "{0, 0}";
type = Tag;
}
);
layerId = "FF2DC345-5101-49B6-97F3-57A040F7C387";
paths = (
{
closed = 1;
nodes = (
"85 -5 OFFCURVE",
"97 7 OFFCURVE",
"114 32 CURVE SMOOTH",
"235 207 OFFCURVE",
"323 392 OFFCURVE",
"371 392 CURVE SMOOTH",
"386 392 OFFCURVE",
"400 370 OFFCURVE",
"400 342 CURVE SMOOTH",
"400 169 OFFCURVE",
"330 87 OFFCURVE",
"330 43 CURVE SMOOTH",
"330 22 OFFCURVE",
"355 -4 OFFCURVE",
"373 -4 CURVE SMOOTH",
"424 -4 OFFCURVE",
"564 392 OFFCURVE",
"654 392 CURVE SMOOTH",
"668 392 OFFCURVE",
"674 371 OFFCURVE",
"674 337 CURVE SMOOTH",
"673 208 OFFCURVE",
"606 95 OFFCURVE",
"606 26 CURVE SMOOTH",
"606 5 OFFCURVE",
"610 -5 OFFCURVE",
"626 -5 CURVE SMOOTH",
"693 -5 OFFCURVE",
"755 267 OFFCURVE",
"755 356 CURVE SMOOTH",
"755 426 OFFCURVE",
"718 491 OFFCURVE",
"678 491 CURVE SMOOTH",
"615 491 OFFCURVE",
"545 412 OFFCURVE",
"467 262 CURVE",
"464 262 LINE",
"473 297 OFFCURVE",
"476 329 OFFCURVE",
"476 359 CURVE SMOOTH",
"476 423 OFFCURVE",
"423 491 OFFCURVE",
"385 491 CURVE SMOOTH",
"320 491 OFFCURVE",
"244 389 OFFCURVE",
"118 136 CURVE",
"115 136 LINE",
"159 271 OFFCURVE",
"181 367 OFFCURVE",
"181 426 CURVE SMOOTH",
"181 457 OFFCURVE",
"146 495 OFFCURVE",
"117 495 CURVE SMOOTH",
"104 495 OFFCURVE",
"96 483 OFFCURVE",
"96 442 CURVE SMOOTH",
"96 249 OFFCURVE",
"22 111 OFFCURVE",
"22 52 CURVE SMOOTH",
"22 36 OFFCURVE",
"58 -5 OFFCURVE",
"75 -5 CURVE SMOOTH"
);
}
);
width = 796;
}
);
leftKerningGroup = n;
rightKerningGroup = n;
unicode = 006D;
},
{
color = 5;
glyphname = n;
layers = (
{
anchors = (
{
name = bottom;
position = "{266, 0}";
},
{
name = top;
position = "{315, 490}";
}
);
hints = (
{
horizontal = 1;
place = "{0, 0}";
type = Tag;
},
{
horizontal = 1;
place = "{0, 0}";
type = Tag;
}
);
layerId = "FF2DC345-5101-49B6-97F3-57A040F7C387";
paths = (
{
closed = 1;
nodes = (
"85 -5 OFFCURVE",
"98 5 OFFCURVE",
"115 32 CURVE SMOOTH",
"330 375 OFFCURVE",
"351 393 OFFCURVE",
"381 393 CURVE SMOOTH",
"401 393 OFFCURVE",
"409 356 OFFCURVE",
"409 332 CURVE SMOOTH",
"409 239 OFFCURVE",
"329 89 OFFCURVE",
"329 25 CURVE SMOOTH",
"329 5 OFFCURVE",
"336 -5 OFFCURVE",
"351 -5 CURVE SMOOTH",
"421 -5 OFFCURVE",
"492 280 OFFCURVE",
"492 363 CURVE SMOOTH",
"492 424 OFFCURVE",
"436 491 OFFCURVE",
"385 491 CURVE SMOOTH",
"356 491 OFFCURVE",
"307 471 OFFCURVE",
"132 169 CURVE",
"129 169 LINE",
"158 260 OFFCURVE",
"184 385 OFFCURVE",
"184 422 CURVE SMOOTH",
"184 458 OFFCURVE",
"147 495 OFFCURVE",
"118 495 CURVE SMOOTH",
"106 495 OFFCURVE",
"97 471 OFFCURVE",
"97 422 CURVE SMOOTH",
"97 245 OFFCURVE",
"23 75 OFFCURVE",
"23 57 CURVE SMOOTH",
"23 34 OFFCURVE",
"56 -5 OFFCURVE",
"76 -5 CURVE SMOOTH"
);
}
);
width = 533;
}
);
leftKerningGroup = n;
rightKerningGroup = n;
unicode = 006E;
userData = {
com.typemytype.robofont.guides = (
{
angle = 0;
isGlobal = 0;
magnetic = 5;
x = 0;
y = 530;
},
{
angle = 0;
isGlobal = 0;
magnetic = 5;
x = 0;
y = 301;
},
{
angle = 0;
isGlobal = 0;
magnetic = 5;
x = 0;
y = 650;
},
{
angle = 0;
isGlobal = 0;
magnetic = 5;
x = 0;
y = 407;
},
{
angle = 0;
isGlobal = 0;
magnetic = 5;
x = 0;
y = 451;
},
{
angle = 90;
isGlobal = 0;
magnetic = 5;
x = 291;
y = 0;
},
{
angle = 90;
isGlobal = 0;
magnetic = 5;
x = 131;
y = 0;
}
);
};
},
{
color = 5;
glyphname = o;
layers = (
{
anchors = (
{
name = bottom;
position = "{87, 0}";
},
{
name = center;
position = "{227, 260}";
},
{
name = ogonek;
position = "{236, 10}";
},
{
name = top;
position = "{309, 490}";
},
{
name = topright;
position = "{394, 490}";
}
);
hints = (
{
horizontal = 1;
place = "{0, 0}";
type = Tag;
}
);
layerId = "FF2DC345-5101-49B6-97F3-57A040F7C387";
paths = (
{
closed = 1;
nodes = (
"287.736 -5 OFFCURVE",
"417 147.445 OFFCURVE",
"417 317.5 CURVE SMOOTH",
"417 414.167 OFFCURVE",
"356.833 491 OFFCURVE",
"277.5 491 CURVE SMOOTH",
"141 491 OFFCURVE",
"36 292 OFFCURVE",
"36 161.5 CURVE SMOOTH",
"36 64.833 OFFCURVE",
"87 -5 OFFCURVE",
"155 -5 CURVE SMOOTH"
);
},
{
closed = 1;
nodes = (
"137 63 OFFCURVE",
"121 111 OFFCURVE",
"121 154 CURVE SMOOTH",
"121 249 OFFCURVE",
"210 428 OFFCURVE",
"290 428 CURVE SMOOTH",
"310 428 OFFCURVE",
"333 366 OFFCURVE",
"333 321 CURVE SMOOTH",
"333 221 OFFCURVE",
"243 63 OFFCURVE",
"160 63 CURVE SMOOTH"
);
}
);
width = 453;
}
);
leftKerningGroup = o;
rightKerningGroup = o;
unicode = 006F;
userData = {
com.typemytype.robofont.guides = (
{
angle = 0;
isGlobal = 0;
magnetic = 5;
x = 0;
y = 302;
},
{
angle = 0;
isGlobal = 0;
magnetic = 5;
x = 0;
y = 218;
},
{
angle = 0;
isGlobal = 0;
magnetic = 5;
x = 0;
y = 411;
},
{
angle = 0;
isGlobal = 0;
magnetic = 5;
x = 0;
y = 109;
},
{
angle = 90;
isGlobal = 0;
magnetic = 5;
x = 278;
y = 0;
},
{
angle = 90;
isGlobal = 0;
magnetic = 5;
x = 56;
y = 0;
},
{
angle = 90;
isGlobal = 0;
magnetic = 5;
x = 500;
y = 0;
}
);
};
},
{
color = 4;
glyphname = oslash;
layers = (
{
anchors = (
{
name = top;
position = "{287, 520}";
}
);
hints = (
{
horizontal = 1;
place = "{418.438, 0}";
type = Tag;
}
);
layerId = "FF2DC345-5101-49B6-97F3-57A040F7C387";
paths = (
{
closed = 1;
nodes = (
"51 -5 OFFCURVE",
"66 6.333 OFFCURVE",
"88 29 CURVE",
"112.667 6.333 OFFCURVE",
"138.333 -5 OFFCURVE",
"165 -5 CURVE SMOOTH",
"306.333 -5 OFFCURVE",
"444 167 OFFCURVE",
"444 323 CURVE SMOOTH",
"444 352 OFFCURVE",
"438.333 378.333 OFFCURVE",
"427 403 CURVE",
"463 445 OFFCURVE",
"475 463 OFFCURVE",
"475 473 CURVE SMOOTH",
"475 486.333 OFFCURVE",
"467 493 OFFCURVE",
"451 493 CURVE SMOOTH",
"435 493 OFFCURVE",
"414 481 OFFCURVE",
"388 457 CURVE",
"364 479.667 OFFCURVE",
"336 491 OFFCURVE",
"304 491 CURVE SMOOTH",
"164 491 OFFCURVE",
"36 305 OFFCURVE",
"36 157 CURVE SMOOTH",
"36 127 OFFCURVE",
"43 98.667 OFFCURVE",
"57 72 CURVE",
"32.333 40.667 OFFCURVE",
"20 21 OFFCURVE",
"20 14 CURVE SMOOTH",
"20 1 OFFCURVE",
"27 -5 OFFCURVE",
"40 -5 CURVE SMOOTH"
);
},
{
closed = 1;
nodes = (
"158 57 OFFCURVE",
"144 66 OFFCURVE",
"135 78 CURVE",
"182 129 OFFCURVE",
"259.333 216 OFFCURVE",
"370 340 CURVE",
"370 230 OFFCURVE",
"269 57 OFFCURVE",
"171 57 CURVE SMOOTH"
);
},
{
closed = 1;
nodes = (
"115 258 OFFCURVE",
"215 429 OFFCURVE",
"307 429 CURVE SMOOTH",
"322 429 OFFCURVE",
"331 419 OFFCURVE",
"341 407 CURVE",
"329 394.333 OFFCURVE",
"190 227 OFFCURVE",
"115 141 CURVE"
);
}
);
width = 457;
}
);
leftKerningGroup = o;
rightKerningGroup = o;
unicode = 00F8;
userData = {
com.typemytype.robofont.guides = (
{
angle = 0;
isGlobal = 0;
magnetic = 5;
x = 0;
y = 259;
},
{
angle = 90;
isGlobal = 0;
magnetic = 5;
x = 370;
y = 0;
},
{
angle = 90;
isGlobal = 0;
magnetic = 5;
x = 80;
y = 0;
},
{
angle = 90;
isGlobal = 0;
magnetic = 5;
x = 584;
y = 0;
},
{
angle = 90;
isGlobal = 0;
magnetic = 5;
x = 141;
y = 0;
},
{
angle = 90;
isGlobal = 0;
magnetic = 5;
x = 20;
y = 0;
}
);
};
},
{
color = 5;
glyphname = oe;
layers = (
{
anchors = (
{
name = bottom;
position = "{309, 0}";
},
{
name = top;
position = "{429, 520}";
}
);
hints = (
{
horizontal = 1;
place = "{0, 0}";
type = Tag;
},
{
horizontal = 1;
place = "{0, 0}";
type = Tag;
},
{
horizontal = 1;
place = "{0, 0}";
type = Tag;
},
{
horizontal = 1;
place = "{0, 0}";
type = Tag;
}
);
layerId = "FF2DC345-5101-49B6-97F3-57A040F7C387";
paths = (
{
closed = 1;
nodes = (
"218 -5 OFFCURVE",
"274.667 24.667 OFFCURVE",
"326 84 CURVE",
"352.667 29.333 OFFCURVE",
"410 -5 OFFCURVE",
"485 -5 CURVE SMOOTH",
"560 -5 OFFCURVE",
"663 49 OFFCURVE",
"663 85 CURVE SMOOTH",
"663 98 OFFCURVE",
"654 105 OFFCURVE",
"637 105 CURVE SMOOTH",
"613 105 OFFCURVE",
"564 70 OFFCURVE",
"469 70 CURVE SMOOTH",
"413 70 OFFCURVE",
"385 95 OFFCURVE",
"385 145 CURVE SMOOTH",
"385 170 OFFCURVE",
"390.333 194.667 OFFCURVE",
"401 220 CURVE",
"441 210 OFFCURVE",
"483 205 OFFCURVE",
"523 205 CURVE SMOOTH",
"607 205 OFFCURVE",
"718 241 OFFCURVE",
"718 325.5 CURVE SMOOTH",
"718 396.833 OFFCURVE",
"641 491 OFFCURVE",
"561 491 CURVE SMOOTH",
"507 491 OFFCURVE",
"453.667 458.333 OFFCURVE",
"401 393 CURVE",
"378.333 450.333 OFFCURVE",
"333.333 491 OFFCURVE",
"276 491 CURVE SMOOTH",
"142 491 OFFCURVE",
"36 293 OFFCURVE",
"36 161.5 CURVE SMOOTH",
"36 65 OFFCURVE",
"87 -5 OFFCURVE",
"155 -5 CURVE SMOOTH"
);
},
{
closed = 1;
nodes = (
"141 70 OFFCURVE",
"122 97 OFFCURVE",
"122 153 CURVE SMOOTH",
"122 248 OFFCURVE",
"186 401 OFFCURVE",
"290 430 CURVE",
"318 411.333 OFFCURVE",
"333 366 OFFCURVE",
"333 321 CURVE SMOOTH",
"333 213 OFFCURVE",
"253 80 OFFCURVE",
"160 64 CURVE"
);
},
{
closed = 1;
nodes = (
"476 269 OFFCURVE",
"446.333 272 OFFCURVE",
"423 278 CURVE",
"460.333 354 OFFCURVE",
"517.667 412 OFFCURVE",
"567 412 CURVE SMOOTH",
"599 412 OFFCURVE",
"640 365 OFFCURVE",
"640 329 CURVE SMOOTH",
"640 293 OFFCURVE",
"582 269 OFFCURVE",
"511 269 CURVE SMOOTH"
);
}
);
width = 754;
}
);
leftKerningGroup = o;
rightKerningGroup = e;
unicode = 0153;
userData = {
com.typemytype.robofont.guides = (
{
angle = 90;
isGlobal = 0;
magnetic = 5;
x = 51;
y = 0;
},
{
angle = 90;
isGlobal = 0;
magnetic = 5;
x = 495;
y = 0;
}
);
};
},
{
color = 5;
glyphname = p;
layers = (
{
anchors = (
{
name = bottom;
position = "{299, 0}";
},
{
name = top;
position = "{299, 520}";
}
);
hints = (
{
horizontal = 1;
place = "{0, 0}";
type = Tag;
},
{
horizontal = 1;
place = "{0, 0}";
type = Tag;
}
);
layerId = "FF2DC345-5101-49B6-97F3-57A040F7C387";
paths = (
{
closed = 1;
nodes = (
"16 -262 OFFCURVE",
"26 -242 OFFCURVE",
"39 -194 CURVE SMOOTH",
"56 -132 OFFCURVE",
"64 -90 OFFCURVE",
"86 2 CURVE",
"98 -1 OFFCURVE",
"111 -3 OFFCURVE",
"124 -3 CURVE SMOOTH",
"266 -3 OFFCURVE",
"466 178 OFFCURVE",
"465 326 CURVE SMOOTH",
"465 389 OFFCURVE",
"424 494 OFFCURVE",
"358 494 CURVE SMOOTH",
"297 494 OFFCURVE",
"236 455 OFFCURVE",
"177 378 CURVE",
"180 391 OFFCURVE",
"181 402 OFFCURVE",
"181 413 CURVE SMOOTH",
"181 456 OFFCURVE",
"136 498 OFFCURVE",
"112 498 CURVE SMOOTH",
"97 498 OFFCURVE",
"90 488 OFFCURVE",
"90 468 CURVE SMOOTH",
"90 378 OFFCURVE",
"58 203 OFFCURVE",
"-6 -56 CURVE SMOOTH",
"-27 -142 OFFCURVE",
"-38 -189 OFFCURVE",
"-38 -202 CURVE SMOOTH",
"-38 -223 OFFCURVE",
"-10 -262 OFFCURVE",
"3 -262 CURVE SMOOTH"
);
},
{
closed = 1;
nodes = (
"122 147 LINE SMOOTH",
"158 292 OFFCURVE",
"286 408 OFFCURVE",
"338 408 CURVE SMOOTH",
"364 408 OFFCURVE",
"377 380 OFFCURVE",
"377 325 CURVE SMOOTH",
"377 211 OFFCURVE",
"240 75 OFFCURVE",
"104 75 CURVE"
);
}
);
width = 478;
}
);
leftKerningGroup = n;
rightKerningGroup = b;
unicode = 0070;
userData = {
com.typemytype.robofont.guides = (
{
angle = 0;
isGlobal = 0;
magnetic = 5;
x = 0;
y = 530;
},
{
angle = 0;
isGlobal = 0;
magnetic = 5;
x = 0;
y = "-10";
},
{
angle = 0;
isGlobal = 0;
magnetic = 5;
x = 0;
y = 422;
},
{
angle = 0;
isGlobal = 0;
magnetic = 5;
x = 0;
y = "-190";
},
{
angle = 90;
isGlobal = 0;
magnetic = 5;
x = 419;
y = 0;
},
{
angle = 90;
isGlobal = 0;
magnetic = 5;
x = "-609";
y = 0;
},
{
angle = 90;
isGlobal = 0;
magnetic = 5;
x = 79;
y = 0;
},
{
angle = 90;
isGlobal = 0;
magnetic = 5;
x = 122;
y = 0;
},
{
angle = 90;
isGlobal = 0;
magnetic = 5;
x = 291;
y = 0;
}
);
};
},
{
color = 5;
glyphname = thorn;
layers = (
{
anchors = (
{
name = bottom;
position = "{249, 0}";
},
{
name = top;
position = "{319, 520}";
}
);
hints = (
{
horizontal = 1;
place = "{0, 0}";
type = Tag;
}
);
layerId = "FF2DC345-5101-49B6-97F3-57A040F7C387";
paths = (
{
closed = 1;
nodes = (
"51.5 -220 OFFCURVE",
"82.333 -116.667 OFFCURVE",
"135 90 CURVE",
"153 76 OFFCURVE",
"179 68 OFFCURVE",
"209 68 CURVE SMOOTH",
"321 68 OFFCURVE",
"500 172 OFFCURVE",
"500 302 CURVE SMOOTH",
"500 386 OFFCURVE",
"404.5 483 OFFCURVE",
"334.5 483 CURVE SMOOTH",
"299.5 483 OFFCURVE",
"260.667 473.333 OFFCURVE",
"218 454 CURVE",
"236 547.333 OFFCURVE",
"245 606.167 OFFCURVE",
"245 630.5 CURVE SMOOTH",
"245 679.167 OFFCURVE",
"205 726 OFFCURVE",
"185 726 CURVE SMOOTH",
"165 726 OFFCURVE",
"161 717 OFFCURVE",
"161 696 CURVE SMOOTH",
"161 478 OFFCURVE",
"-9 -99 OFFCURVE",
"-9 -157 CURVE SMOOTH",
"-9 -185 OFFCURVE",
"25 -220 OFFCURVE",
"42.5 -220 CURVE SMOOTH"
);
},
{
closed = 1;
nodes = (
"177 142 OFFCURVE",
"165 145 OFFCURVE",
"150 152 CURVE",
"173.333 242.667 OFFCURVE",
"189.333 309.667 OFFCURVE",
"198 353 CURVE",
"249 384 OFFCURVE",
"290 398 OFFCURVE",
"324 398 CURVE SMOOTH",
"377 398 OFFCURVE",
"420 357 OFFCURVE",
"420 302 CURVE SMOOTH",
"420 223 OFFCURVE",
"292 142 OFFCURVE",
"193 142 CURVE SMOOTH"
);
}
);
width = 526;
}
);
leftKerningGroup = h;
rightKerningGroup = b;
unicode = 00FE;
userData = {
com.typemytype.robofont.guides = (
{
angle = 0;
isGlobal = 0;
magnetic = 5;
x = 0;
y = 710;
}
);
};
},
{
color = 5;
glyphname = q;
layers = (
{
anchors = (
{
name = bottom;
position = "{299, 0}";
},
{
name = top;
position = "{299, 520}";
}
);
hints = (
{
horizontal = 1;
place = "{0, 0}";
type = Tag;
},
{
horizontal = 1;
place = "{0, 0}";
type = Tag;
}
);
layerId = "FF2DC345-5101-49B6-97F3-57A040F7C387";
paths = (
{
closed = 1;
nodes = (
"235 -265 OFFCURVE",
"286 -227 OFFCURVE",
"334 -194 CURVE SMOOTH",
"380 -164 OFFCURVE",
"424 -141 OFFCURVE",
"424 -125 CURVE SMOOTH",
"424 -112 OFFCURVE",
"409 -98 OFFCURVE",
"396 -98 CURVE SMOOTH",
"369 -98 OFFCURVE",
"332 -114 OFFCURVE",
"283 -147 CURVE",
"352 49 OFFCURVE",
"431 224 OFFCURVE",
"431 269 CURVE SMOOTH",
"431 287 OFFCURVE",
"397 314 OFFCURVE",
"373 314 CURVE SMOOTH",
"362 314 OFFCURVE",
"354 308 OFFCURVE",
"352 299 CURVE SMOOTH",
"319 170 OFFCURVE",
"205 78 OFFCURVE",
"132 78 CURVE SMOOTH",
"111 78 OFFCURVE",
"94 95 OFFCURVE",
"94 116 CURVE SMOOTH",
"94 204 OFFCURVE",
"235 411 OFFCURVE",
"327 411 CURVE SMOOTH",
"359 411 OFFCURVE",
"389 366 OFFCURVE",
"412 366 CURVE SMOOTH",
"422 366 OFFCURVE",
"430 375 OFFCURVE",
"430 389 CURVE SMOOTH",
"430 420 OFFCURVE",
"377 491 OFFCURVE",
"310 491 CURVE SMOOTH",
"183 491 OFFCURVE",
"16 248 OFFCURVE",
"16 123 CURVE SMOOTH",
"16 65 OFFCURVE",
"82 -5 OFFCURVE",
"129 -5 CURVE SMOOTH",
"176 -5 OFFCURVE",
"233 23 OFFCURVE",
"278 67 CURVE",
"260 18 OFFCURVE",
"185 -166 OFFCURVE",
"185 -210 CURVE SMOOTH",
"185 -226 OFFCURVE",
"207 -265 OFFCURVE",
"223 -265 CURVE SMOOTH"
);
}
);
width = 474;
}
);
leftKerningGroup = d;
rightKerningGroup = u;
unicode = 0071;
userData = {
com.typemytype.robofont.guides = (
{
angle = 0;
isGlobal = 0;
magnetic = 5;
x = 0;
y = 530;
},
{
angle = 0;
isGlobal = 0;
magnetic = 5;
x = 0;
y = "-10";
},
{
angle = 0;
isGlobal = 0;
magnetic = 5;
x = 0;
y = "-190";
}
);
};
},
{
color = 5;
glyphname = r;
layers = (
{
anchors = (
{
name = bottom;
position = "{122, 0}";
},
{
name = top;
position = "{207, 520}";
}
);
hints = (
{
horizontal = 1;
place = "{0, 0}";
type = Tag;
}
);
layerId = "FF2DC345-5101-49B6-97F3-57A040F7C387";
paths = (
{
closed = 1;
nodes = (
"85 -7 OFFCURVE",
"100 6 OFFCURVE",
"108 33 CURVE SMOOTH",
"188 303 OFFCURVE",
"238 379 OFFCURVE",
"330 421 CURVE SMOOTH",
"363 436 OFFCURVE",
"376 450 OFFCURVE",
"376 466 CURVE SMOOTH",
"376 482 OFFCURVE",
"360 490 OFFCURVE",
"327 490 CURVE SMOOTH",
"275 490 OFFCURVE",
"220 446 OFFCURVE",
"162 358 CURVE",
"164 371 OFFCURVE",
"165 387 OFFCURVE",
"165 403 CURVE SMOOTH",
"165 445 OFFCURVE",
"142 491 OFFCURVE",
"110 491 CURVE SMOOTH",
"95 491 OFFCURVE",
"88 474 OFFCURVE",
"88 454 CURVE SMOOTH",
"88 429 OFFCURVE",
"91 394 OFFCURVE",
"91 369 CURVE SMOOTH",
"91 193 OFFCURVE",
"33 110 OFFCURVE",
"33 48 CURVE SMOOTH",
"33 28 OFFCURVE",
"47 -7 OFFCURVE",
"71 -7 CURVE SMOOTH"
);
}
);
width = 331;
}
);
leftKerningGroup = n;
rightKerningGroup = r;
unicode = 0072;
userData = {
com.typemytype.robofont.guides = (
{
angle = 0;
isGlobal = 0;
magnetic = 5;
x = 0;
y = 462;
}
);
};
},
{
color = 5;
glyphname = s;
layers = (
{
anchors = (
{
name = bottom;
position = "{255, 0}";
},
{
name = top;
position = "{283, 520}";
}
);
hints = (
{
horizontal = 1;
place = "{0, 0}";
type = Tag;
},
{
horizontal = 1;
place = "{0, 0}";
type = Tag;
}
);
layerId = "FF2DC345-5101-49B6-97F3-57A040F7C387";
paths = (
{
closed = 1;
nodes = (
"286 -5 OFFCURVE",
"371 57 OFFCURVE",
"371 110 CURVE SMOOTH",
"371 162 OFFCURVE",
"326 211 OFFCURVE",
"279 240 CURVE SMOOTH",
"218 277 OFFCURVE",
"187 304 OFFCURVE",
"187 319 CURVE SMOOTH",
"187 360 OFFCURVE",
"282 406 OFFCURVE",
"314 406 CURVE SMOOTH",
"348 406 OFFCURVE",
"373 371 OFFCURVE",
"395 371 CURVE SMOOTH",
"406 371 OFFCURVE",
"411 377 OFFCURVE",
"411 388 CURVE SMOOTH",
"411 425 OFFCURVE",
"362 491 OFFCURVE",
"317 491 CURVE SMOOTH",
"244 491 OFFCURVE",
"95 394 OFFCURVE",
"95 323 CURVE SMOOTH",
"95 283 OFFCURVE",
"142 242 OFFCURVE",
"188 215 CURVE SMOOTH",
"234 188 OFFCURVE",
"280 152 OFFCURVE",
"280 122 CURVE SMOOTH",
"280 89 OFFCURVE",
"241 72 OFFCURVE",
"170 72 CURVE SMOOTH",
"82 72 OFFCURVE",
"56 124 OFFCURVE",
"27 124 CURVE SMOOTH",
"13 124 OFFCURVE",
"6 109 OFFCURVE",
"6 96 CURVE SMOOTH",
"6 55 OFFCURVE",
"93 -5 OFFCURVE",
"190 -5 CURVE SMOOTH"
);
}
);
width = 426;
}
);
leftKerningGroup = s;
rightKerningGroup = s;
unicode = 0073;
userData = {
com.typemytype.robofont.guides = (
{
angle = 0;
isGlobal = 0;
magnetic = 5;
x = 0;
y = 265;
},
{
angle = 0;
isGlobal = 0;
magnetic = 5;
x = 0;
y = 139;
},
{
angle = 90;
isGlobal = 0;
magnetic = 5;
x = 250;
y = 0;
}
);
};
},
{
color = 5;
glyphname = germandbls;
layers = (
{
anchors = (
{
name = bottom;
position = "{295, 0}";
},
{
name = top;
position = "{295, 520}";
}
);
hints = (
{
horizontal = 1;
place = "{0, 0}";
type = Tag;
}
);
layerId = "FF2DC345-5101-49B6-97F3-57A040F7C387";
paths = (
{
closed = 1;
nodes = (
"119 -5 OFFCURVE",
"169 154 OFFCURVE",
"234 472 CURVE SMOOTH",
"252 564 OFFCURVE",
"292 607 OFFCURVE",
"345 607 CURVE SMOOTH",
"390 607 OFFCURVE",
"437 561 OFFCURVE",
"437 502 CURVE SMOOTH",
"437 425 OFFCURVE",
"301 401 OFFCURVE",
"301 352 CURVE SMOOTH",
"301 284 OFFCURVE",
"437 260 OFFCURVE",
"437 168 CURVE SMOOTH",
"437 109 OFFCURVE",
"362 70 OFFCURVE",
"321 70 CURVE SMOOTH",
"304 70 OFFCURVE",
"278 74 OFFCURVE",
"261 74 CURVE SMOOTH",
"244 74 OFFCURVE",
"233 66 OFFCURVE",
"233 52 CURVE SMOOTH",
"233 21 OFFCURVE",
"268 -3 OFFCURVE",
"325 -3 CURVE SMOOTH",
"429 -3 OFFCURVE",
"521 65 OFFCURVE",
"521 165 CURVE SMOOTH",
"521 278 OFFCURVE",
"396 323 OFFCURVE",
"396 348 CURVE SMOOTH",
"396 371 OFFCURVE",
"521 401 OFFCURVE",
"521 508 CURVE SMOOTH",
"521 593 OFFCURVE",
"443 690 OFFCURVE",
"356 690 CURVE SMOOTH",
"241 690 OFFCURVE",
"171 616 OFFCURVE",
"150 497 CURVE SMOOTH",
"132 400 OFFCURVE",
"47 66 OFFCURVE",
"47 49 CURVE SMOOTH",
"47 27 OFFCURVE",
"67 -5 OFFCURVE",
"92 -5 CURVE SMOOTH"
);
}
);
width = 585;
}
);
leftKerningGroup = h;
unicode = 00DF;
userData = {
com.typemytype.robofont.guides = (
{
angle = 0;
isGlobal = 0;
magnetic = 5;
x = 0;
y = 527;
},
{
angle = 0;
isGlobal = 0;
magnetic = 5;
x = 0;
y = 601;
},
{
angle = 90;
isGlobal = 0;
magnetic = 5;
x = 267;
y = 0;
},
{
angle = 90;
isGlobal = 0;
magnetic = 5;
x = 499;
y = 0;
}
);
};
},
{
color = 5;
glyphname = t;
layers = (
{
anchors = (
{
name = bottom;
position = "{245, 0}";
},
{
name = center;
position = "{192, 260}";
},
{
name = top;
position = "{196, 520}";
},
{
name = topright;
position = "{311, 686}";
}
);
hints = (
{
horizontal = 1;
place = "{0, 0}";
type = Tag;
}
);
layerId = "FF2DC345-5101-49B6-97F3-57A040F7C387";
paths = (
{
closed = 1;
nodes = (
"233 -5 OFFCURVE",
"336 61 OFFCURVE",
"336 100 CURVE SMOOTH",
"336 113 OFFCURVE",
"330 119 OFFCURVE",
"318 119 CURVE SMOOTH",
"304 119 OFFCURVE",
"220 76 OFFCURVE",
"165 76 CURVE SMOOTH",
"150 76 OFFCURVE",
"143 82 OFFCURVE",
"143 95 CURVE SMOOTH",
"143 110 OFFCURVE",
"214 346 OFFCURVE",
"228 399 CURVE",
"375 424 OFFCURVE",
"397 445 OFFCURVE",
"397 455 CURVE SMOOTH",
"397 472 OFFCURVE",
"377 482 OFFCURVE",
"337 482 CURVE SMOOTH",
"314 482 OFFCURVE",
"284 479 OFFCURVE",
"246 476 CURVE",
"256 517 OFFCURVE",
"263 546 OFFCURVE",
"263 568 CURVE SMOOTH",
"262 618 OFFCURVE",
"211 641 OFFCURVE",
"196 641 CURVE SMOOTH",
"183 641 OFFCURVE",
"176 631 OFFCURVE",
"176 611 CURVE SMOOTH",
"176 568 OFFCURVE",
"170 519 OFFCURVE",
"158 464 CURVE",
"71 449 OFFCURVE",
"28 434 OFFCURVE",
"28 418 CURVE SMOOTH",
"28 398 OFFCURVE",
"54 370 OFFCURVE",
"75 370 CURVE SMOOTH",
"86 370 OFFCURVE",
"107 374 OFFCURVE",
"138 381 CURVE",
"97 233 OFFCURVE",
"56 134 OFFCURVE",
"56 76 CURVE SMOOTH",
"56 39 OFFCURVE",
"104 -5 OFFCURVE",
"169 -5 CURVE SMOOTH"
);
}
);
width = 387;
}
);
leftKerningGroup = t;
rightKerningGroup = t;
unicode = 0074;
userData = {
com.typemytype.robofont.guides = (
{
angle = 0;
isGlobal = 0;
magnetic = 5;
x = 0;
y = 175;
},
{
angle = 90;
isGlobal = 0;
magnetic = 5;
x = 342;
y = 0;
},
{
angle = 90;
isGlobal = 0;
magnetic = 5;
x = 35;
y = 0;
}
);
};
},
{
color = 5;
glyphname = u;
layers = (
{
anchors = (
{
name = bottom;
position = "{293, 0}";
},
{
name = ogonek;
position = "{313, 67}";
},
{
name = top;
position = "{308, 490}";
},
{
name = topright;
position = "{456, 490}";
}
);
hints = (
{
horizontal = 1;
place = "{0, 0}";
type = Tag;
},
{
horizontal = 1;
place = "{71, 0}";
type = Tag;
}
);
layerId = "FF2DC345-5101-49B6-97F3-57A040F7C387";
paths = (
{
closed = 1;
nodes = (
"183 -5 OFFCURVE",
"253 60 OFFCURVE",
"309 151 CURVE",
"298 114 OFFCURVE",
"285 66 OFFCURVE",
"285 44 CURVE SMOOTH",
"285 17 OFFCURVE",
"294 -5 OFFCURVE",
"317 -5 CURVE SMOOTH",
"332 -5 OFFCURVE",
"343 9 OFFCURVE",
"351 37 CURVE SMOOTH",
"367 92 OFFCURVE",
"463 396 OFFCURVE",
"463 415 CURVE SMOOTH",
"463 447 OFFCURVE",
"429 491 OFFCURVE",
"411 491 CURVE SMOOTH",
"393 491 OFFCURVE",
"390 484 OFFCURVE",
"385 463 CURVE SMOOTH",
"357 362 OFFCURVE",
"296 231 OFFCURVE",
"226 142 CURVE SMOOTH",
"191 97 OFFCURVE",
"160 75 OFFCURVE",
"135 75 CURVE SMOOTH",
"116 75 OFFCURVE",
"101 91 OFFCURVE",
"101 112 CURVE SMOOTH",
"101 187 OFFCURVE",
"146 299 OFFCURVE",
"182 373 CURVE SMOOTH",
"200 410 OFFCURVE",
"209 431 OFFCURVE",
"209 437 CURVE SMOOTH",
"209 465 OFFCURVE",
"188 491 OFFCURVE",
"164 491 CURVE SMOOTH",
"112 491 OFFCURVE",
"16 238 OFFCURVE",
"16 111 CURVE SMOOTH",
"16 58 OFFCURVE",
"65 -5 OFFCURVE",
"129 -5 CURVE SMOOTH"
);
}
);
width = 481;
}
);
leftKerningGroup = u;
rightKerningGroup = u;
unicode = 0075;
userData = {
com.typemytype.robofont.guides = (
{
angle = 0;
isGlobal = 0;
magnetic = 5;
x = 0;
y = "-10";
},
{
angle = 90;
isGlobal = 0;
magnetic = 5;
x = 432;
y = 0;
},
{
angle = 90;
isGlobal = 0;
magnetic = 5;
x = 126;
y = 0;
},
{
angle = 90;
isGlobal = 0;
magnetic = 5;
x = 65;
y = 0;
}
);
};
},
{
color = 5;
glyphname = v;
layers = (
{
anchors = (
{
name = bottom;
position = "{277, 0}";
},
{
name = top;
position = "{277, 520}";
}
);
hints = (
{
horizontal = 1;
place = "{0, 0}";
type = Tag;
}
);
layerId = "FF2DC345-5101-49B6-97F3-57A040F7C387";
paths = (
{
closed = 1;
nodes = (
"211 -7 OFFCURVE",
"229 12 OFFCURVE",
"250 49 CURVE SMOOTH",
"290 123 OFFCURVE",
"425 415 OFFCURVE",
"425 451 CURVE SMOOTH",
"425 471 OFFCURVE",
"399 491 OFFCURVE",
"376 491 CURVE SMOOTH",
"362 491 OFFCURVE",
"346 460 OFFCURVE",
"333 426 CURVE SMOOTH",
"291 318 OFFCURVE",
"245 203 OFFCURVE",
"198 103 CURVE",
"153 215 OFFCURVE",
"155 347 OFFCURVE",
"142 426 CURVE SMOOTH",
"135 466 OFFCURVE",
"94 491 OFFCURVE",
"65 491 CURVE SMOOTH",
"53 491 OFFCURVE",
"47 481 OFFCURVE",
"47 461 CURVE SMOOTH",
"47 374 OFFCURVE",
"100 137 OFFCURVE",
"136 53 CURVE SMOOTH",
"148 24 OFFCURVE",
"179 -7 OFFCURVE",
"196 -7 CURVE SMOOTH"
);
}
);
width = 422;
}
);
unicode = 0076;
userData = {
com.typemytype.robofont.guides = (
{
angle = 90;
isGlobal = 0;
magnetic = 5;
x = 267;
y = 0;
}
);
};
},
{
color = 5;
glyphname = w;
layers = (
{
anchors = (
{
name = bottom;
position = "{331, 0}";
},
{
name = top;
position = "{391, 510}";
}
);
hints = (
{
horizontal = 1;
place = "{499, 0}";
type = Tag;
}
);
layerId = "FF2DC345-5101-49B6-97F3-57A040F7C387";
paths = (
{
closed = 1;
nodes = (
"175 -7 OFFCURVE",
"203 25 OFFCURVE",
"238 89 CURVE SMOOTH",
"273 153 OFFCURVE",
"314 248 OFFCURVE",
"360 373 CURVE",
"353 265 OFFCURVE",
"353 84 OFFCURVE",
"377 32 CURVE SMOOTH",
"388 6 OFFCURVE",
"406 -7 OFFCURVE",
"429 -7 CURVE SMOOTH",
"476 -7 OFFCURVE",
"577 136 OFFCURVE",
"629 280 CURVE SMOOTH",
"660 358 OFFCURVE",
"675 414 OFFCURVE",
"675 448 CURVE SMOOTH",
"675 475 OFFCURVE",
"651 499 OFFCURVE",
"626 499 CURVE SMOOTH",
"596 499 OFFCURVE",
"582 394 OFFCURVE",
"555 302 CURVE SMOOTH",
"534 233 OFFCURVE",
"490 144 OFFCURVE",
"433 84 CURVE",
"426 107 OFFCURVE",
"426 145 OFFCURVE",
"426 197 CURVE SMOOTH",
"426 260 OFFCURVE",
"433 322 OFFCURVE",
"433 385 CURVE SMOOTH",
"433 450 OFFCURVE",
"401 495 OFFCURVE",
"357 495 CURVE SMOOTH",
"322 495 OFFCURVE",
"288 388 OFFCURVE",
"241 266 CURVE SMOOTH",
"213 195 OFFCURVE",
"185 135 OFFCURVE",
"158 88 CURVE",
"133 226 OFFCURVE",
"143 347 OFFCURVE",
"134 423 CURVE SMOOTH",
"130 455 OFFCURVE",
"101 497 OFFCURVE",
"72 497 CURVE SMOOTH",
"55 497 OFFCURVE",
"47 483 OFFCURVE",
"47 456 CURVE SMOOTH",
"47 371 OFFCURVE",
"71 111 OFFCURVE",
"100 40 CURVE SMOOTH",
"112 12 OFFCURVE",
"135 -7 OFFCURVE",
"154 -7 CURVE SMOOTH"
);
}
);
width = 673;
}
);
leftKerningGroup = w;
rightKerningGroup = w;
unicode = 0077;
userData = {
com.typemytype.robofont.guides = (
{
angle = 90;
isGlobal = 0;
magnetic = 5;
x = 45;
y = 0;
},
{
angle = 90;
isGlobal = 0;
magnetic = 5;
x = 737;
y = 0;
}
);
};
},
{
color = 5;
glyphname = x;
layers = (
{
anchors = (
{
name = bottom;
position = "{210, 0}";
},
{
name = top;
position = "{270, 520}";
}
);
hints = (
{
horizontal = 1;
place = "{15, 0}";
type = Tag;
}
);
layerId = "FF2DC345-5101-49B6-97F3-57A040F7C387";
paths = (
{
closed = 1;
nodes = (
"59 -5 OFFCURVE",
"112 49 OFFCURVE",
"199 156 CURVE",
"265 49 OFFCURVE",
"313 -5 OFFCURVE",
"343 -5 CURVE SMOOTH",
"355 -5 OFFCURVE",
"367 2 OFFCURVE",
"367 16 CURVE SMOOTH",
"367 27 OFFCURVE",
"362 37 OFFCURVE",
"351 54 CURVE SMOOTH",
"338 77 OFFCURVE",
"301 128 OFFCURVE",
"250 217 CURVE",
"328 314 OFFCURVE",
"372 374 OFFCURVE",
"413 408 CURVE SMOOTH",
"433 424 OFFCURVE",
"442 432 OFFCURVE",
"442 448 CURVE SMOOTH",
"442 463 OFFCURVE",
"411 491 OFFCURVE",
"386 491 CURVE SMOOTH",
"373 491 OFFCURVE",
"354 476 OFFCURVE",
"328 447 CURVE SMOOTH",
"301 418 OFFCURVE",
"261 367 OFFCURVE",
"207 294 CURVE",
"168 370 OFFCURVE",
"148 422 OFFCURVE",
"148 450 CURVE SMOOTH",
"148 474 OFFCURVE",
"97 491 OFFCURVE",
"75 491 CURVE SMOOTH",
"55 491 OFFCURVE",
"47 488 OFFCURVE",
"47 475 CURVE SMOOTH",
"47 459 OFFCURVE",
"51 435 OFFCURVE",
"79 379 CURVE SMOOTH",
"102 332 OFFCURVE",
"126 282 OFFCURVE",
"157 227 CURVE",
"125 186 OFFCURVE",
"77 134 OFFCURVE",
"12 69 CURVE SMOOTH",
"-3 54 OFFCURVE",
"-10 46 OFFCURVE",
"-10 38 CURVE SMOOTH",
"-10 23 OFFCURVE",
"19 -5 OFFCURVE",
"40 -5 CURVE SMOOTH"
);
}
);
width = 427;
}
);
unicode = 0078;
userData = {
com.typemytype.robofont.guides = (
{
angle = 90;
isGlobal = 0;
magnetic = 5;
x = 255;
y = 0;
}
);
};
},
{
color = 5;
glyphname = y;
layers = (
{
anchors = (
{
name = bottom;
position = "{276, 0}";
},
{
name = top;
position = "{313, 510}";
}
);
hints = (
{
horizontal = 1;
place = "{-173, 0}";
type = Tag;
}
);
layerId = "FF2DC345-5101-49B6-97F3-57A040F7C387";
paths = (
{
closed = 1;
nodes = (
"209 -265 OFFCURVE",
"258 -217 OFFCURVE",
"292 -122 CURVE SMOOTH",
"350 39 OFFCURVE",
"475 373 OFFCURVE",
"475 415 CURVE SMOOTH",
"475 454 OFFCURVE",
"443 491 OFFCURVE",
"422 491 CURVE SMOOTH",
"411 491 OFFCURVE",
"405 487 OFFCURVE",
"402 480 CURVE SMOOTH",
"377 403 OFFCURVE",
"352 340 OFFCURVE",
"329 291 CURVE SMOOTH",
"273 174 OFFCURVE",
"199 75 OFFCURVE",
"151 75 CURVE SMOOTH",
"132 75 OFFCURVE",
"117 91 OFFCURVE",
"117 112 CURVE SMOOTH",
"117 234 OFFCURVE",
"224 407 OFFCURVE",
"224 441 CURVE SMOOTH",
"224 465 OFFCURVE",
"201 491 OFFCURVE",
"175 491 CURVE SMOOTH",
"120 491 OFFCURVE",
"31 224 OFFCURVE",
"31 126 CURVE SMOOTH",
"31 55 OFFCURVE",
"88 -5 OFFCURVE",
"144 -5 CURVE SMOOTH",
"190 -5 OFFCURVE",
"237 27 OFFCURVE",
"284 92 CURVE",
"212 -133 OFFCURVE",
"184 -199 OFFCURVE",
"143 -199 CURVE SMOOTH",
"116 -199 OFFCURVE",
"83 -177 OFFCURVE",
"44 -133 CURVE SMOOTH",
"31 -119 OFFCURVE",
"23 -111 OFFCURVE",
"15 -111 CURVE SMOOTH",
"2 -111 OFFCURVE",
"-19 -142 OFFCURVE",
"-19 -159 CURVE SMOOTH",
"-19 -208 OFFCURVE",
"66 -265 OFFCURVE",
"142 -265 CURVE SMOOTH"
);
}
);
width = 469;
}
);
leftKerningGroup = y;
rightKerningGroup = y;
unicode = 0079;
},
{
color = 5;
glyphname = z;
layers = (
{
anchors = (
{
name = bottom;
position = "{254, 0}";
},
{
name = center;
position = "{254, 260}";
},
{
name = top;
position = "{255, 520}";
}
);
hints = (
{
horizontal = 1;
place = "{79, 0}";
type = Tag;
}
);
layerId = "FF2DC345-5101-49B6-97F3-57A040F7C387";
paths = (
{
closed = 1;
nodes = (
"242 -5 OFFCURVE",
"411 28 OFFCURVE",
"411 71 CURVE SMOOTH",
"411 86 OFFCURVE",
"398 94 OFFCURVE",
"372 94 CURVE SMOOTH",
"331 94 OFFCURVE",
"254 78 OFFCURVE",
"133 78 CURVE SMOOTH",
"116 78 OFFCURVE",
"107 84 OFFCURVE",
"107 95 CURVE SMOOTH",
"107 116 OFFCURVE",
"182 165 OFFCURVE",
"255 215 CURVE SMOOTH",
"328 266 OFFCURVE",
"403 338 OFFCURVE",
"403 389 CURVE SMOOTH",
"403 464 OFFCURVE",
"318 492 OFFCURVE",
"190 492 CURVE SMOOTH",
"157 492 OFFCURVE",
"54 480 OFFCURVE",
"54 451 CURVE SMOOTH",
"54 431 OFFCURVE",
"86 394 OFFCURVE",
"108 394 CURVE SMOOTH",
"139 394 OFFCURVE",
"183 405 OFFCURVE",
"223 405 CURVE SMOOTH",
"291 405 OFFCURVE",
"325 399 OFFCURVE",
"325 386 CURVE SMOOTH",
"325 367 OFFCURVE",
"271 321 OFFCURVE",
"164 246 CURVE SMOOTH",
"84 191 OFFCURVE",
"3 123 OFFCURVE",
"3 87 CURVE SMOOTH",
"3 51 OFFCURVE",
"61 -5 OFFCURVE",
"118 -5 CURVE SMOOTH"
);
}
);
width = 440;
}
);
leftKerningGroup = z;
rightKerningGroup = z;
unicode = 007A;
userData = {
com.typemytype.robofont.guides = (
{
angle = 0;
isGlobal = 0;
magnetic = 5;
x = 0;
y = 36;
},
{
angle = 90;
isGlobal = 0;
magnetic = 5;
x = 480;
y = 0;
},
{
angle = 90;
isGlobal = 0;
magnetic = 5;
x = 70;
y = 0;
}
);
};
},
{
color = 5;
glyphname = ordfeminine;
layers = (
{
hints = (
{
horizontal = 1;
place = "{644, 0}";
type = Tag;
}
);
layerId = "FF2DC345-5101-49B6-97F3-57A040F7C387";
paths = (
{
closed = 1;
nodes = (
"239.333 389 OFFCURVE",
"281.333 414 OFFCURVE",
"322 464 CURVE",
"326 422.667 OFFCURVE",
"345 389 OFFCURVE",
"364 389 CURVE SMOOTH",
"374 389 OFFCURVE",
"381 405 OFFCURVE",
"381 417 CURVE SMOOTH",
"381 559 OFFCURVE",
"406 594 OFFCURVE",
"406 646 CURVE SMOOTH",
"406 687 OFFCURVE",
"353 751 OFFCURVE",
"294 751 CURVE SMOOTH",
"181 751 OFFCURVE",
"93 582.333 OFFCURVE",
"93 487.5 CURVE SMOOTH",
"93 442.833 OFFCURVE",
"144 389 OFFCURVE",
"196 389 CURVE SMOOTH"
);
},
{
closed = 1;
nodes = (
"174.5 453 OFFCURVE",
"162 466.333 OFFCURVE",
"162 493 CURVE SMOOTH",
"162 562.333 OFFCURVE",
"233.333 684 OFFCURVE",
"296 684 CURVE SMOOTH",
"322.667 684 OFFCURVE",
"343 660.333 OFFCURVE",
"347 635 CURVE",
"317.667 529.667 OFFCURVE",
"249.5 453 OFFCURVE",
"199.5 453 CURVE SMOOTH"
);
}
);
width = 474;
}
);
unicode = 00AA;
},
{
color = 5;
glyphname = ordmasculine;
layers = (
{
hints = (
{
horizontal = 1;
place = "{594, 0}";
type = Tag;
}
);
layerId = "FF2DC345-5101-49B6-97F3-57A040F7C387";
paths = (
{
closed = 1;
nodes = (
"322 391 OFFCURVE",
"403 502 OFFCURVE",
"403 602 CURVE SMOOTH",
"403 677 OFFCURVE",
"360 751 OFFCURVE",
"292 751 CURVE SMOOTH",
"189 751 OFFCURVE",
"108 643 OFFCURVE",
"108 534 CURVE SMOOTH",
"108 461 OFFCURVE",
"152 391 OFFCURVE",
"211 391 CURVE SMOOTH"
);
},
{
closed = 1;
nodes = (
"187 468 OFFCURVE",
"175 499 OFFCURVE",
"175 533 CURVE SMOOTH",
"175 594 OFFCURVE",
"213 672 OFFCURVE",
"291 691 CURVE",
"323 675 OFFCURVE",
"336 643 OFFCURVE",
"336 606 CURVE SMOOTH",
"336 538 OFFCURVE",
"295 461 OFFCURVE",
"214 448 CURVE"
);
}
);
width = 452;
}
);
unicode = 00BA;
userData = {
com.typemytype.robofont.guides = (
{
angle = 0;
isGlobal = 0;
magnetic = 5;
x = 0;
y = 589;
},
{
angle = 0;
isGlobal = 0;
magnetic = 5;
x = 0;
y = 545;
},
{
angle = 0;
isGlobal = 0;
magnetic = 5;
x = 0;
y = 429;
},
{
angle = 0;
isGlobal = 0;
magnetic = 5;
x = 0;
y = 705;
},
{
angle = 90;
isGlobal = 0;
magnetic = 5;
x = 134;
y = 0;
}
);
};
},
{
color = 2;
export = 0;
glyphname = uni05D2.alt_quoteright;
layers = (
{
layerId = "FF2DC345-5101-49B6-97F3-57A040F7C387";
paths = (
{
closed = 1;
nodes = (
"-174 -87 OFFCURVE",
"-158 -86 OFFCURVE",
"-140 -83 CURVE SMOOTH",
"-87 -77 OFFCURVE",
"-59 -53 OFFCURVE",
"7 -46 CURVE SMOOTH",
"16 -45 OFFCURVE",
"25 -44 OFFCURVE",
"36 -44 CURVE SMOOTH",
"72 -44 OFFCURVE",
"116 -49 OFFCURVE",
"147 -49 CURVE SMOOTH",
"263 -49 OFFCURVE",
"372 102 OFFCURVE",
"372 223 CURVE SMOOTH",
"372 237 OFFCURVE",
"361 244 OFFCURVE",
"349 244 CURVE SMOOTH",
"309 244 OFFCURVE",
"270 234 OFFCURVE",
"270 198 CURVE SMOOTH",
"270 111 OFFCURVE",
"232 2 OFFCURVE",
"148 2 CURVE SMOOTH",
"112 2 OFFCURVE",
"69 9 OFFCURVE",
"21 9 CURVE SMOOTH",
"10 9 OFFCURVE",
"-1 9 OFFCURVE",
"-12 8 CURVE SMOOTH",
"-135 -1 OFFCURVE",
"-143 -39 OFFCURVE",
"-239 -39 CURVE SMOOTH",
"-255 -39 OFFCURVE",
"-273 -38 OFFCURVE",
"-295 -35 CURVE SMOOTH",
"-296 -35 OFFCURVE",
"-297 -35 OFFCURVE",
"-297 -35 CURVE SMOOTH",
"-304 -35 OFFCURVE",
"-306 -39 OFFCURVE",
"-306 -43 CURVE SMOOTH",
"-306 -44 OFFCURVE",
"-306 -45 OFFCURVE",
"-306 -46 CURVE SMOOTH",
"-303 -65 OFFCURVE",
"-259 -87 OFFCURVE",
"-189 -87 CURVE SMOOTH"
);
},
{
closed = 1;
nodes = (
"110 467 OFFCURVE",
"113 468 OFFCURVE",
"117 469 CURVE SMOOTH",
"152 476 OFFCURVE",
"220 550 OFFCURVE",
"250 594 CURVE SMOOTH",
"253 598 OFFCURVE",
"254 602 OFFCURVE",
"254 607 CURVE SMOOTH",
"254 615 OFFCURVE",
"249 625 OFFCURVE",
"234 632 CURVE SMOOTH",
"222 638 OFFCURVE",
"212 640 OFFCURVE",
"204 640 CURVE SMOOTH",
"191 640 OFFCURVE",
"183 634 OFFCURVE",
"179 628 CURVE SMOOTH",
"123 543 OFFCURVE",
"88 508 OFFCURVE",
"82 491 CURVE SMOOTH",
"82 489 OFFCURVE",
"82 487 OFFCURVE",
"82 486 CURVE SMOOTH",
"82 475 OFFCURVE",
"92 467 OFFCURVE",
"106 467 CURVE SMOOTH"
);
}
);
width = 405;
}
);
},
{
color = 2;
export = 0;
glyphname = uni05D3.alt_quoteright;
layers = (
{
layerId = "FF2DC345-5101-49B6-97F3-57A040F7C387";
paths = (
{
closed = 1;
nodes = (
"235 0 OFFCURVE",
"294 87 OFFCURVE",
"301 180 CURVE SMOOTH",
"301 187 OFFCURVE",
"301 193 OFFCURVE",
"301 199 CURVE SMOOTH",
"301 284 OFFCURVE",
"254 304 OFFCURVE",
"202 304 CURVE SMOOTH",
"159 304 OFFCURVE",
"112 291 OFFCURVE",
"83 290 CURVE SMOOTH",
"82 290 OFFCURVE",
"81 290 OFFCURVE",
"80 290 CURVE SMOOTH",
"14 290 OFFCURVE",
"15 314 OFFCURVE",
"-11 314 CURVE SMOOTH",
"-15 314 OFFCURVE",
"-21 313 OFFCURVE",
"-28 312 CURVE SMOOTH",
"-46 307 OFFCURVE",
"-59 289 OFFCURVE",
"-59 272 CURVE SMOOTH",
"-59 251 OFFCURVE",
"-41 231 OFFCURVE",
"7 231 CURVE SMOOTH",
"14 231 OFFCURVE",
"21 232 OFFCURVE",
"29 233 CURVE SMOOTH",
"70 237 OFFCURVE",
"117 252 OFFCURVE",
"153 252 CURVE SMOOTH",
"187 252 OFFCURVE",
"211 238 OFFCURVE",
"211 190 CURVE SMOOTH",
"211 184 OFFCURVE",
"211 177 OFFCURVE",
"210 170 CURVE SMOOTH",
"203 98 OFFCURVE",
"174 50 OFFCURVE",
"129 42 CURVE SMOOTH",
"118 40 OFFCURVE",
"108 28 OFFCURVE",
"108 18 CURVE SMOOTH",
"108 8 OFFCURVE",
"116 0 OFFCURVE",
"136 0 CURVE SMOOTH"
);
},
{
closed = 1;
nodes = (
"138 467 OFFCURVE",
"141 468 OFFCURVE",
"145 469 CURVE SMOOTH",
"179 476 OFFCURVE",
"248 550 OFFCURVE",
"278 594 CURVE SMOOTH",
"281 598 OFFCURVE",
"282 602 OFFCURVE",
"282 607 CURVE SMOOTH",
"282 615 OFFCURVE",
"277 625 OFFCURVE",
"262 632 CURVE SMOOTH",
"250 638 OFFCURVE",
"240 640 OFFCURVE",
"232 640 CURVE SMOOTH",
"219 640 OFFCURVE",
"211 634 OFFCURVE",
"207 628 CURVE SMOOTH",
"151 543 OFFCURVE",
"116 508 OFFCURVE",
"110 491 CURVE SMOOTH",
"110 489 OFFCURVE",
"109 487 OFFCURVE",
"109 486 CURVE SMOOTH",
"109 475 OFFCURVE",
"119 467 OFFCURVE",
"134 467 CURVE SMOOTH"
);
}
);
width = 333;
}
);
},
{
color = 2;
export = 0;
glyphname = uni05D2.alt_quotesingle;
layers = (
{
layerId = "FF2DC345-5101-49B6-97F3-57A040F7C387";
paths = (
{
closed = 1;
nodes = (
"-174 -87 OFFCURVE",
"-158 -86 OFFCURVE",
"-140 -83 CURVE SMOOTH",
"-87 -77 OFFCURVE",
"-59 -53 OFFCURVE",
"7 -46 CURVE SMOOTH",
"16 -45 OFFCURVE",
"25 -44 OFFCURVE",
"36 -44 CURVE SMOOTH",
"72 -44 OFFCURVE",
"116 -49 OFFCURVE",
"147 -49 CURVE SMOOTH",
"263 -49 OFFCURVE",
"372 102 OFFCURVE",
"372 223 CURVE SMOOTH",
"372 237 OFFCURVE",
"361 244 OFFCURVE",
"349 244 CURVE SMOOTH",
"309 244 OFFCURVE",
"270 234 OFFCURVE",
"270 198 CURVE SMOOTH",
"270 111 OFFCURVE",
"232 2 OFFCURVE",
"148 2 CURVE SMOOTH",
"112 2 OFFCURVE",
"69 9 OFFCURVE",
"21 9 CURVE SMOOTH",
"10 9 OFFCURVE",
"-1 9 OFFCURVE",
"-12 8 CURVE SMOOTH",
"-135 -1 OFFCURVE",
"-143 -39 OFFCURVE",
"-239 -39 CURVE SMOOTH",
"-255 -39 OFFCURVE",
"-273 -38 OFFCURVE",
"-295 -35 CURVE SMOOTH",
"-296 -35 OFFCURVE",
"-297 -35 OFFCURVE",
"-297 -35 CURVE SMOOTH",
"-304 -35 OFFCURVE",
"-306 -39 OFFCURVE",
"-306 -43 CURVE SMOOTH",
"-306 -44 OFFCURVE",
"-306 -45 OFFCURVE",
"-306 -46 CURVE SMOOTH",
"-303 -65 OFFCURVE",
"-259 -87 OFFCURVE",
"-189 -87 CURVE SMOOTH"
);
},
{
closed = 1;
nodes = (
"110 467 OFFCURVE",
"113 468 OFFCURVE",
"117 469 CURVE SMOOTH",
"152 476 OFFCURVE",
"220 550 OFFCURVE",
"250 594 CURVE SMOOTH",
"253 598 OFFCURVE",
"254 602 OFFCURVE",
"254 607 CURVE SMOOTH",
"254 615 OFFCURVE",
"249 625 OFFCURVE",
"234 632 CURVE SMOOTH",
"222 638 OFFCURVE",
"212 640 OFFCURVE",
"204 640 CURVE SMOOTH",
"191 640 OFFCURVE",
"183 634 OFFCURVE",
"179 628 CURVE SMOOTH",
"123 543 OFFCURVE",
"88 508 OFFCURVE",
"82 491 CURVE SMOOTH",
"82 489 OFFCURVE",
"82 487 OFFCURVE",
"82 486 CURVE SMOOTH",
"82 475 OFFCURVE",
"92 467 OFFCURVE",
"106 467 CURVE SMOOTH"
);
}
);
width = 405;
}
);
},
{
color = 2;
export = 0;
glyphname = uni05D3.alt_quotesingle;
layers = (
{
layerId = "FF2DC345-5101-49B6-97F3-57A040F7C387";
paths = (
{
closed = 1;
nodes = (
"235 0 OFFCURVE",
"294 87 OFFCURVE",
"301 180 CURVE SMOOTH",
"301 187 OFFCURVE",
"301 193 OFFCURVE",
"301 199 CURVE SMOOTH",
"301 284 OFFCURVE",
"254 304 OFFCURVE",
"202 304 CURVE SMOOTH",
"159 304 OFFCURVE",
"112 291 OFFCURVE",
"83 290 CURVE SMOOTH",
"82 290 OFFCURVE",
"81 290 OFFCURVE",
"80 290 CURVE SMOOTH",
"14 290 OFFCURVE",
"15 314 OFFCURVE",
"-11 314 CURVE SMOOTH",
"-15 314 OFFCURVE",
"-21 313 OFFCURVE",
"-28 312 CURVE SMOOTH",
"-46 307 OFFCURVE",
"-59 289 OFFCURVE",
"-59 272 CURVE SMOOTH",
"-59 251 OFFCURVE",
"-41 231 OFFCURVE",
"7 231 CURVE SMOOTH",
"14 231 OFFCURVE",
"21 232 OFFCURVE",
"29 233 CURVE SMOOTH",
"70 237 OFFCURVE",
"117 252 OFFCURVE",
"153 252 CURVE SMOOTH",
"187 252 OFFCURVE",
"211 238 OFFCURVE",
"211 190 CURVE SMOOTH",
"211 184 OFFCURVE",
"211 177 OFFCURVE",
"210 170 CURVE SMOOTH",
"203 98 OFFCURVE",
"174 50 OFFCURVE",
"129 42 CURVE SMOOTH",
"118 40 OFFCURVE",
"108 28 OFFCURVE",
"108 18 CURVE SMOOTH",
"108 8 OFFCURVE",
"116 0 OFFCURVE",
"136 0 CURVE SMOOTH"
);
},
{
closed = 1;
nodes = (
"138 467 OFFCURVE",
"141 468 OFFCURVE",
"145 469 CURVE SMOOTH",
"179 476 OFFCURVE",
"248 550 OFFCURVE",
"278 594 CURVE SMOOTH",
"281 598 OFFCURVE",
"282 602 OFFCURVE",
"282 607 CURVE SMOOTH",
"282 615 OFFCURVE",
"277 625 OFFCURVE",
"262 632 CURVE SMOOTH",
"250 638 OFFCURVE",
"240 640 OFFCURVE",
"232 640 CURVE SMOOTH",
"219 640 OFFCURVE",
"211 634 OFFCURVE",
"207 628 CURVE SMOOTH",
"151 543 OFFCURVE",
"116 508 OFFCURVE",
"110 491 CURVE SMOOTH",
"110 489 OFFCURVE",
"109 487 OFFCURVE",
"109 486 CURVE SMOOTH",
"109 475 OFFCURVE",
"119 467 OFFCURVE",
"134 467 CURVE SMOOTH"
);
}
);
width = 333;
}
);
},
{
color = 2;
export = 0;
glyphname = uni05D2.alt_uni05F3;
layers = (
{
layerId = "FF2DC345-5101-49B6-97F3-57A040F7C387";
paths = (
{
closed = 1;
nodes = (
"-174 -87 OFFCURVE",
"-158 -86 OFFCURVE",
"-140 -83 CURVE SMOOTH",
"-87 -77 OFFCURVE",
"-59 -53 OFFCURVE",
"7 -46 CURVE SMOOTH",
"16 -45 OFFCURVE",
"25 -44 OFFCURVE",
"36 -44 CURVE SMOOTH",
"72 -44 OFFCURVE",
"116 -49 OFFCURVE",
"147 -49 CURVE SMOOTH",
"263 -49 OFFCURVE",
"372 102 OFFCURVE",
"372 223 CURVE SMOOTH",
"372 237 OFFCURVE",
"361 244 OFFCURVE",
"349 244 CURVE SMOOTH",
"309 244 OFFCURVE",
"270 234 OFFCURVE",
"270 198 CURVE SMOOTH",
"270 111 OFFCURVE",
"232 2 OFFCURVE",
"148 2 CURVE SMOOTH",
"112 2 OFFCURVE",
"69 9 OFFCURVE",
"21 9 CURVE SMOOTH",
"10 9 OFFCURVE",
"-1 9 OFFCURVE",
"-12 8 CURVE SMOOTH",
"-135 -1 OFFCURVE",
"-143 -39 OFFCURVE",
"-239 -39 CURVE SMOOTH",
"-255 -39 OFFCURVE",
"-273 -38 OFFCURVE",
"-295 -35 CURVE SMOOTH",
"-296 -35 OFFCURVE",
"-297 -35 OFFCURVE",
"-297 -35 CURVE SMOOTH",
"-304 -35 OFFCURVE",
"-306 -39 OFFCURVE",
"-306 -43 CURVE SMOOTH",
"-306 -44 OFFCURVE",
"-306 -45 OFFCURVE",
"-306 -46 CURVE SMOOTH",
"-303 -65 OFFCURVE",
"-259 -87 OFFCURVE",
"-189 -87 CURVE SMOOTH"
);
},
{
closed = 1;
nodes = (
"110 467 OFFCURVE",
"113 468 OFFCURVE",
"117 469 CURVE SMOOTH",
"152 476 OFFCURVE",
"220 550 OFFCURVE",
"250 594 CURVE SMOOTH",
"253 598 OFFCURVE",
"254 602 OFFCURVE",
"254 607 CURVE SMOOTH",
"254 615 OFFCURVE",
"249 625 OFFCURVE",
"234 632 CURVE SMOOTH",
"222 638 OFFCURVE",
"212 640 OFFCURVE",
"204 640 CURVE SMOOTH",
"191 640 OFFCURVE",
"183 634 OFFCURVE",
"179 628 CURVE SMOOTH",
"123 543 OFFCURVE",
"88 508 OFFCURVE",
"82 491 CURVE SMOOTH",
"82 489 OFFCURVE",
"82 487 OFFCURVE",
"82 486 CURVE SMOOTH",
"82 475 OFFCURVE",
"92 467 OFFCURVE",
"106 467 CURVE SMOOTH"
);
}
);
width = 405;
}
);
},
{
color = 2;
export = 0;
glyphname = uni05D3.alt_uni05F3;
layers = (
{
layerId = "FF2DC345-5101-49B6-97F3-57A040F7C387";
paths = (
{
closed = 1;
nodes = (
"235 0 OFFCURVE",
"294 87 OFFCURVE",
"301 180 CURVE SMOOTH",
"301 187 OFFCURVE",
"301 193 OFFCURVE",
"301 199 CURVE SMOOTH",
"301 284 OFFCURVE",
"254 304 OFFCURVE",
"202 304 CURVE SMOOTH",
"159 304 OFFCURVE",
"112 291 OFFCURVE",
"83 290 CURVE SMOOTH",
"82 290 OFFCURVE",
"81 290 OFFCURVE",
"80 290 CURVE SMOOTH",
"14 290 OFFCURVE",
"15 314 OFFCURVE",
"-11 314 CURVE SMOOTH",
"-15 314 OFFCURVE",
"-21 313 OFFCURVE",
"-28 312 CURVE SMOOTH",
"-46 307 OFFCURVE",
"-59 289 OFFCURVE",
"-59 272 CURVE SMOOTH",
"-59 251 OFFCURVE",
"-41 231 OFFCURVE",
"7 231 CURVE SMOOTH",
"14 231 OFFCURVE",
"21 232 OFFCURVE",
"29 233 CURVE SMOOTH",
"70 237 OFFCURVE",
"117 252 OFFCURVE",
"153 252 CURVE SMOOTH",
"187 252 OFFCURVE",
"211 238 OFFCURVE",
"211 190 CURVE SMOOTH",
"211 184 OFFCURVE",
"211 177 OFFCURVE",
"210 170 CURVE SMOOTH",
"203 98 OFFCURVE",
"174 50 OFFCURVE",
"129 42 CURVE SMOOTH",
"118 40 OFFCURVE",
"108 28 OFFCURVE",
"108 18 CURVE SMOOTH",
"108 8 OFFCURVE",
"116 0 OFFCURVE",
"136 0 CURVE SMOOTH"
);
},
{
closed = 1;
nodes = (
"138 467 OFFCURVE",
"141 468 OFFCURVE",
"145 469 CURVE SMOOTH",
"179 476 OFFCURVE",
"248 550 OFFCURVE",
"278 594 CURVE SMOOTH",
"281 598 OFFCURVE",
"282 602 OFFCURVE",
"282 607 CURVE SMOOTH",
"282 615 OFFCURVE",
"277 625 OFFCURVE",
"262 632 CURVE SMOOTH",
"250 638 OFFCURVE",
"240 640 OFFCURVE",
"232 640 CURVE SMOOTH",
"219 640 OFFCURVE",
"211 634 OFFCURVE",
"207 628 CURVE SMOOTH",
"151 543 OFFCURVE",
"116 508 OFFCURVE",
"110 491 CURVE SMOOTH",
"110 489 OFFCURVE",
"109 487 OFFCURVE",
"109 486 CURVE SMOOTH",
"109 475 OFFCURVE",
"119 467 OFFCURVE",
"134 467 CURVE SMOOTH"
);
}
);
width = 333;
}
);
},
{
color = 5;
glyphname = "alef-hb";
layers = (
{
anchors = (
{
name = bottom;
position = "{85, 0}";
},
{
name = bottomleft;
position = "{25, 0}";
},
{
name = center;
position = "{176, 120}";
},
{
name = top;
position = "{293, 520}";
},
{
name = topleft;
position = "{85, 520}";
}
);
layerId = "FF2DC345-5101-49B6-97F3-57A040F7C387";
paths = (
{
closed = 1;
nodes = (
"110 -1 OFFCURVE",
"202 461 OFFCURVE",
"248 562 CURVE SMOOTH",
"255 577 OFFCURVE",
"266 582 OFFCURVE",
"277 582 CURVE SMOOTH",
"285 582 OFFCURVE",
"291 580 OFFCURVE",
"298 580 CURVE SMOOTH",
"333 580 OFFCURVE",
"351 620 OFFCURVE",
"351 655 CURVE SMOOTH",
"351 681 OFFCURVE",
"338 700 OFFCURVE",
"304 700 CURVE SMOOTH",
"164 700 OFFCURVE",
"46 60 OFFCURVE",
"-61 41 CURVE SMOOTH",
"-72 39 OFFCURVE",
"-82 27 OFFCURVE",
"-82 17 CURVE SMOOTH",
"-82 7 OFFCURVE",
"-75 -1 OFFCURVE",
"-55 -1 CURVE SMOOTH"
);
}
);
width = 156;
},
{
anchors = (
{
name = bottom;
position = "{85, 0}";
},
{
name = bottomleft;
position = "{25, 0}";
},
{
name = center;
position = "{176, 120}";
},
{
name = top;
position = "{293, 520}";
},
{
name = topleft;
position = "{85, 520}";
}
);
associatedMasterId = "FF2DC345-5101-49B6-97F3-57A040F7C387";
layerId = "5CF4FD32-8DD9-4A99-A5D3-1AF5D90F9257";
name = "Mar 9, 22, 23:11";
paths = (
{
closed = 1;
nodes = (
"202 461 OFFCURVE",
"110 -1 OFFCURVE",
"-55 -1 CURVE SMOOTH",
"-75 -1 OFFCURVE",
"-82 7 OFFCURVE",
"-82 17 CURVE SMOOTH",
"-82 27 OFFCURVE",
"-72 39 OFFCURVE",
"-61 41 CURVE SMOOTH",
"46 60 OFFCURVE",
"164 700 OFFCURVE",
"304 700 CURVE SMOOTH",
"338 700 OFFCURVE",
"351 681 OFFCURVE",
"351 655 CURVE SMOOTH",
"351 620 OFFCURVE",
"333 580 OFFCURVE",
"298 580 CURVE SMOOTH",
"295 580 OFFCURVE",
"291 580 OFFCURVE",
"287 581 CURVE SMOOTH",
"284 582 OFFCURVE",
"280 582 OFFCURVE",
"277 582 CURVE SMOOTH",
"265 582 OFFCURVE",
"255 577 OFFCURVE",
"248 562 CURVE SMOOTH"
);
}
);
visible = 1;
width = 156;
}
);
unicode = 05D0;
userData = {
com.typemytype.robofont.guides = (
{
angle = 0;
isGlobal = 0;
magnetic = 5;
x = 0;
y = 571;
},
{
angle = 90;
isGlobal = 0;
magnetic = 5;
x = 50;
y = 0;
},
{
angle = 90;
isGlobal = 0;
magnetic = 5;
x = 478;
y = 0;
}
);
};
},
{
color = 5;
glyphname = "bet-hb";
layers = (
{
anchors = (
{
name = bottom;
position = "{153, 0}";
},
{
name = bottomleft;
position = "{20, 0}";
},
{
name = center;
position = "{93, 111}";
},
{
name = top;
position = "{166, 319}";
},
{
name = topleft;
position = "{45, 223}";
}
);
layerId = "FF2DC345-5101-49B6-97F3-57A040F7C387";
paths = (
{
closed = 1;
nodes = (
"182 0 OFFCURVE",
"271 78 OFFCURVE",
"271 177 CURVE SMOOTH",
"271 249 OFFCURVE",
"199 279 OFFCURVE",
"136 279 CURVE SMOOTH",
"72 279 OFFCURVE",
"9 236 OFFCURVE",
"9 214 CURVE SMOOTH",
"9 205 OFFCURVE",
"17 200 OFFCURVE",
"26 200 CURVE SMOOTH",
"51 200 OFFCURVE",
"66 232 OFFCURVE",
"118 232 CURVE SMOOTH",
"154 232 OFFCURVE",
"185 214 OFFCURVE",
"185 172 CURVE SMOOTH",
"185 102 OFFCURVE",
"126 51 OFFCURVE",
"55 51 CURVE SMOOTH",
"-12 51 OFFCURVE",
"-42 87 OFFCURVE",
"-66 87 CURVE SMOOTH",
"-74 87 OFFCURVE",
"-78 83 OFFCURVE",
"-78 76 CURVE SMOOTH",
"-78 52 OFFCURVE",
"-32 0 OFFCURVE",
"66 0 CURVE SMOOTH"
);
}
);
userData = {
com.schriftgestaltung.hints = (
{
horizontal = 1;
options = 0;
origin = (
0,
16
);
stem = -2;
type = Tag;
}
);
};
width = 305;
},
{
anchors = (
{
name = bottom;
position = "{153, 0}";
},
{
name = bottomleft;
position = "{20, 0}";
},
{
name = center;
position = "{93, 111}";
},
{
name = top;
position = "{272, 220}";
},
{
name = topleft;
position = "{20, 220}";
}
);
associatedMasterId = "FF2DC345-5101-49B6-97F3-57A040F7C387";
layerId = "CA4CA57D-EA13-4938-A2EA-9FC29D217E6A";
name = "Mar 10, 22, 08:52";
paths = (
{
closed = 1;
nodes = (
"-32 0 OFFCURVE",
"-78 52 OFFCURVE",
"-78 76 CURVE SMOOTH",
"-78 83 OFFCURVE",
"-74 87 OFFCURVE",
"-66 87 CURVE SMOOTH",
"-63 87 OFFCURVE",
"-60 87 OFFCURVE",
"-57 86 CURVE SMOOTH",
"-42 81 OFFCURVE",
"-2 51 OFFCURVE",
"55 51 CURVE SMOOTH",
"59 51 OFFCURVE",
"63 51 OFFCURVE",
"67 51 CURVE SMOOTH",
"128 56 OFFCURVE",
"185 104 OFFCURVE",
"185 164 CURVE SMOOTH",
"185 209 OFFCURVE",
"163 232 OFFCURVE",
"118 232 CURVE SMOOTH",
"79 232 OFFCURVE",
"62 216 OFFCURVE",
"45 206 CURVE SMOOTH",
"37 202 OFFCURVE",
"31 200 OFFCURVE",
"26 200 CURVE SMOOTH",
"18 200 OFFCURVE",
"12 204 OFFCURVE",
"10 209 CURVE SMOOTH",
"9 211 OFFCURVE",
"9 212 OFFCURVE",
"9 214 CURVE SMOOTH",
"9 236 OFFCURVE",
"72 279 OFFCURVE",
"136 279 CURVE SMOOTH",
"199 279 OFFCURVE",
"271 249 OFFCURVE",
"271 177 CURVE SMOOTH",
"271 78 OFFCURVE",
"182 0 OFFCURVE",
"66 0 CURVE SMOOTH"
);
}
);
userData = {
com.schriftgestaltung.hints = (
{
horizontal = 1;
options = 0;
origin = (
0,
16
);
stem = -2;
type = Tag;
}
);
};
visible = 1;
width = 305;
}
);
leftKerningGroup = bethebrew;
rightKerningGroup = bethebrew;
unicode = 05D1;
userData = {
com.typemytype.robofont.guides = (
{
angle = 0;
isGlobal = 0;
magnetic = 5;
x = 0;
y = 571;
},
{
angle = 90;
isGlobal = 0;
magnetic = 5;
x = 40;
y = 0;
},
{
angle = 90;
isGlobal = 0;
magnetic = 5;
x = 516;
y = 0;
}
);
};
},
{
color = 5;
glyphname = "gimel-hb";
layers = (
{
anchors = (
{
name = bottom;
position = "{315, 0}";
},
{
name = bottomleft;
position = "{104, 0}";
},
{
name = center;
position = "{313, 111}";
},
{
name = top;
position = "{541, 296}";
},
{
name = topleft;
position = "{147, 138}";
}
);
layerId = "FF2DC345-5101-49B6-97F3-57A040F7C387";
paths = (
{
closed = 1;
nodes = (
"441 -41 OFFCURVE",
"552 102 OFFCURVE",
"552 223 CURVE SMOOTH",
"552 237 OFFCURVE",
"541 244 OFFCURVE",
"530 244 CURVE SMOOTH",
"490 244 OFFCURVE",
"451 234 OFFCURVE",
"451 198 CURVE SMOOTH",
"451 111 OFFCURVE",
"415 11 OFFCURVE",
"332 11 CURVE SMOOTH",
"287 11 OFFCURVE",
"221 53 OFFCURVE",
"168 53 CURVE SMOOTH",
"118 53 OFFCURVE",
"73 18 OFFCURVE",
"6 18 CURVE SMOOTH",
"-50 18 OFFCURVE",
"-76 48 OFFCURVE",
"-115 48 CURVE SMOOTH",
"-124 48 OFFCURVE",
"-126 45 OFFCURVE",
"-126 38 CURVE SMOOTH",
"-126 14 OFFCURVE",
"-49 -38 OFFCURVE",
"51 -38 CURVE SMOOTH",
"92 -38 OFFCURVE",
"155 -6 OFFCURVE",
"187 -6 CURVE SMOOTH",
"227 -6 OFFCURVE",
"285 -41 OFFCURVE",
"325 -41 CURVE SMOOTH"
);
}
);
userData = {
com.schriftgestaltung.hints = (
{
horizontal = 1;
options = 0;
place = (
15,
0
);
stem = -2;
type = Tag;
}
);
};
width = 585;
},
{
anchors = (
{
name = bottom;
position = "{315, 0}";
},
{
name = bottomleft;
position = "{104, 0}";
},
{
name = center;
position = "{313, 111}";
},
{
name = top;
position = "{541, 296}";
},
{
name = topleft;
position = "{147, 138}";
}
);
associatedMasterId = "FF2DC345-5101-49B6-97F3-57A040F7C387";
layerId = "D2446033-459D-40D6-AEA3-5F38DD58BE67";
name = "Mar 10, 22, 18:55";
paths = (
{
closed = 1;
nodes = (
"-49 -38 OFFCURVE",
"-126 14 OFFCURVE",
"-126 38 CURVE SMOOTH",
"-126 45 OFFCURVE",
"-124 48 OFFCURVE",
"-115 48 CURVE SMOOTH",
"-76 48 OFFCURVE",
"-50 18 OFFCURVE",
"6 18 CURVE SMOOTH",
"73 18 OFFCURVE",
"118 53 OFFCURVE",
"168 53 CURVE SMOOTH",
"221 53 OFFCURVE",
"287 11 OFFCURVE",
"332 11 CURVE SMOOTH",
"415 11 OFFCURVE",
"451 111 OFFCURVE",
"451 198 CURVE SMOOTH",
"451 234 OFFCURVE",
"490 244 OFFCURVE",
"530 244 CURVE SMOOTH",
"541 244 OFFCURVE",
"552 237 OFFCURVE",
"552 223 CURVE SMOOTH",
"552 102 OFFCURVE",
"441 -41 OFFCURVE",
"325 -41 CURVE SMOOTH",
"285 -41 OFFCURVE",
"227 -6 OFFCURVE",
"187 -6 CURVE SMOOTH",
"155 -6 OFFCURVE",
"92 -38 OFFCURVE",
"51 -38 CURVE SMOOTH"
);
}
);
userData = {
com.schriftgestaltung.hints = (
{
horizontal = 1;
options = 0;
place = (
15,
0
);
stem = -2;
type = Tag;
}
);
};
visible = 1;
width = 585;
}
);
leftKerningGroup = gimelhebrew;
rightKerningGroup = gimelhebrew;
unicode = 05D2;
userData = {
com.typemytype.robofont.guides = (
{
angle = 90;
isGlobal = 0;
magnetic = 5;
x = 55;
y = 0;
}
);
};
},
{
color = 5;
glyphname = "dalet-hb";
layers = (
{
anchors = (
{
name = bottom;
position = "{110, 0}";
},
{
name = bottomleft;
position = "{44, 0}";
},
{
name = center;
position = "{0, 150}";
},
{
name = top;
position = "{185, 365}";
},
{
name = topleft;
position = "{24, 303}";
}
);
layerId = "FF2DC345-5101-49B6-97F3-57A040F7C387";
paths = (
{
closed = 1;
nodes = (
"136 0 OFFCURVE",
"195 116 OFFCURVE",
"195 197 CURVE SMOOTH",
"195 314 OFFCURVE",
"55 344 OFFCURVE",
"-20 349 CURVE SMOOTH",
"-100 355 OFFCURVE",
"-164 396 OFFCURVE",
"-185 396 CURVE SMOOTH",
"-194 396 OFFCURVE",
"-198 392 OFFCURVE",
"-198 385 CURVE SMOOTH",
"-198 365 OFFCURVE",
"-161 328 OFFCURVE",
"-45 308 CURVE SMOOTH",
"49 292 OFFCURVE",
"105 282 OFFCURVE",
"105 187 CURVE SMOOTH",
"105 124 OFFCURVE",
"79 52 OFFCURVE",
"21 42 CURVE SMOOTH",
"10 40 OFFCURVE",
"0 28 OFFCURVE",
"0 18 CURVE SMOOTH",
"0 8 OFFCURVE",
"8 0 OFFCURVE",
"28 0 CURVE SMOOTH"
);
}
);
userData = {
com.schriftgestaltung.hints = (
{
horizontal = 1;
options = 0;
place = (
513,
0
);
stem = -2;
type = Tag;
}
);
};
width = 227;
},
{
anchors = (
{
name = bottom;
position = "{110, 0}";
},
{
name = bottomleft;
position = "{44, 0}";
},
{
name = center;
position = "{185, 260}";
},
{
name = top;
position = "{159, 417}";
},
{
name = topleft;
position = "{24, 330}";
}
);
associatedMasterId = "FF2DC345-5101-49B6-97F3-57A040F7C387";
layerId = "3E73F148-554D-4CAB-B0AD-3DCAA1113238";
name = "Mar 10, 22, 19:16";
paths = (
{
closed = 1;
nodes = (
"55 344 OFFCURVE",
"195 314 OFFCURVE",
"195 197 CURVE SMOOTH",
"195 116 OFFCURVE",
"136 0 OFFCURVE",
"28 0 CURVE SMOOTH",
"8 0 OFFCURVE",
"0 8 OFFCURVE",
"0 18 CURVE SMOOTH",
"0 28 OFFCURVE",
"10 40 OFFCURVE",
"21 42 CURVE SMOOTH",
"79 52 OFFCURVE",
"97 115 OFFCURVE",
"105 187 CURVE SMOOTH",
"105 192 OFFCURVE",
"105 198 OFFCURVE",
"105 202 CURVE SMOOTH",
"105 285 OFFCURVE",
"27 296 OFFCURVE",
"-45 308 CURVE SMOOTH",
"-161 328 OFFCURVE",
"-198 365 OFFCURVE",
"-198 385 CURVE SMOOTH",
"-198 392 OFFCURVE",
"-193 396 OFFCURVE",
"-185 396 CURVE SMOOTH",
"-184 396 OFFCURVE",
"-183 396 OFFCURVE",
"-183 396 CURVE SMOOTH",
"-162 394 OFFCURVE",
"-100 355 OFFCURVE",
"-20 349 CURVE SMOOTH"
);
}
);
userData = {
com.schriftgestaltung.hints = (
{
horizontal = 1;
options = 0;
place = (
513,
0
);
stem = -2;
type = Tag;
}
);
};
visible = 1;
width = 227;
}
);
leftKerningGroup = dalethebrew;
rightKerningGroup = dalethebrew;
unicode = 05D3;
userData = {
com.typemytype.robofont.guides = (
{
angle = 0;
isGlobal = 0;
magnetic = 5;
x = 0;
y = 571;
},
{
angle = 90;
isGlobal = 0;
magnetic = 5;
x = 30;
y = 0;
},
{
angle = 90;
isGlobal = 0;
magnetic = 5;
x = 496;
y = 0;
}
);
};
},
{
color = 5;
glyphname = "he-hb";
layers = (
{
anchors = (
{
name = bottom;
position = "{230, 0}";
},
{
name = bottomleft;
position = "{30, 0}";
},
{
name = center;
position = "{221, 145}";
},
{
name = top;
position = "{378, 251}";
},
{
name = topleft;
position = "{107, 79}";
}
);
layerId = "FF2DC345-5101-49B6-97F3-57A040F7C387";
paths = (
{
closed = 1;
nodes = (
"75 -66 OFFCURVE",
"75 -59 OFFCURVE",
"75 -47 CURVE SMOOTH",
"75 -36 OFFCURVE",
"70 -18 OFFCURVE",
"70 -2 CURVE SMOOTH",
"70 19 OFFCURVE",
"78 38 OFFCURVE",
"116 38 CURVE SMOOTH",
"161 38 OFFCURVE",
"201 14 OFFCURVE",
"255 14 CURVE SMOOTH",
"354 14 OFFCURVE",
"435 94 OFFCURVE",
"435 201 CURVE SMOOTH",
"435 216 OFFCURVE",
"423 223 OFFCURVE",
"412 223 CURVE SMOOTH",
"372 223 OFFCURVE",
"334 213 OFFCURVE",
"334 177 CURVE SMOOTH",
"334 106 OFFCURVE",
"309 58 OFFCURVE",
"246 58 CURVE SMOOTH",
"190 58 OFFCURVE",
"123 89 OFFCURVE",
"70 89 CURVE SMOOTH",
"2 89 OFFCURVE",
"-8 54 OFFCURVE",
"-8 18 CURVE SMOOTH",
"-8 -19 OFFCURVE",
"10 -66 OFFCURVE",
"53 -66 CURVE SMOOTH"
);
}
);
userData = {
com.schriftgestaltung.Glyphs.glyph.rightMetricsKey = "het-hb";
com.schriftgestaltung.hints = (
{
horizontal = 1;
options = 0;
origin = (
0,
11
);
stem = -2;
type = Tag;
}
);
};
width = 467;
},
{
anchors = (
{
name = bottom;
position = "{230, 0}";
},
{
name = bottomleft;
position = "{30, 0}";
},
{
name = center;
position = "{228, 145}";
},
{
name = top;
position = "{378, 251}";
},
{
name = topleft;
position = "{107, 79}";
}
);
associatedMasterId = "FF2DC345-5101-49B6-97F3-57A040F7C387";
layerId = "F2D27739-EAA6-4AFF-B28E-06E1E8522342";
name = "Mar 10, 22, 20:30";
paths = (
{
closed = 1;
nodes = (
"123 89 OFFCURVE",
"190 58 OFFCURVE",
"246 58 CURVE SMOOTH",
"259 58 OFFCURVE",
"273 60 OFFCURVE",
"285 65 CURVE SMOOTH",
"306 73 OFFCURVE",
"334 112 OFFCURVE",
"334 177 CURVE SMOOTH",
"334 213 OFFCURVE",
"372 223 OFFCURVE",
"412 223 CURVE SMOOTH",
"423 223 OFFCURVE",
"435 216 OFFCURVE",
"435 201 CURVE SMOOTH",
"435 106 OFFCURVE",
"372 36 OFFCURVE",
"297 19 CURVE SMOOTH",
"282 15 OFFCURVE",
"268 14 OFFCURVE",
"255 14 CURVE SMOOTH",
"201 14 OFFCURVE",
"161 38 OFFCURVE",
"116 38 CURVE SMOOTH",
"78 38 OFFCURVE",
"70 19 OFFCURVE",
"70 -2 CURVE SMOOTH",
"70 -18 OFFCURVE",
"75 -36 OFFCURVE",
"75 -47 CURVE SMOOTH",
"75 -59 OFFCURVE",
"75 -66 OFFCURVE",
"53 -66 CURVE SMOOTH",
"16 -66 OFFCURVE",
"-6 -27 OFFCURVE",
"-8 8 CURVE SMOOTH",
"-8 11 OFFCURVE",
"-8 15 OFFCURVE",
"-8 18 CURVE SMOOTH",
"-8 54 OFFCURVE",
"2 89 OFFCURVE",
"70 89 CURVE SMOOTH"
);
}
);
userData = {
com.schriftgestaltung.Glyphs.glyph.rightMetricsKey = "het-hb";
com.schriftgestaltung.hints = (
{
horizontal = 1;
options = 0;
origin = (
0,
11
);
stem = -2;
type = Tag;
}
);
};
visible = 1;
width = 467;
}
);
leftKerningGroup = hethebrew;
rightKerningGroup = vavhebrew;
unicode = 05D4;
userData = {
com.typemytype.robofont.guides = (
{
angle = 90;
isGlobal = 0;
magnetic = 5;
x = 70;
y = 0;
}
);
};
},
{
color = 5;
glyphname = "vav-hb";
layers = (
{
anchors = (
{
name = bottom;
position = "{-17, 0}";
},
{
name = bottomleft;
position = "{-43, 0}";
},
{
name = center;
position = "{-37, 157}";
},
{
name = top;
position = "{124, 210}";
},
{
name = topleft;
position = "{175, 210}";
}
);
layerId = "FF2DC345-5101-49B6-97F3-57A040F7C387";
paths = (
{
closed = 1;
nodes = (
"20 0 OFFCURVE",
"134 213 OFFCURVE",
"134 256 CURVE SMOOTH",
"134 279 OFFCURVE",
"118 279 OFFCURVE",
"96 279 CURVE SMOOTH",
"74 279 OFFCURVE",
"50 279 OFFCURVE",
"43 255 CURVE SMOOTH",
"17 157 OFFCURVE",
"-41 35 OFFCURVE",
"-41 16 CURVE SMOOTH",
"-41 7 OFFCURVE",
"-39 0 OFFCURVE",
"-23 0 CURVE SMOOTH"
);
}
);
userData = {
com.schriftgestaltung.hints = (
{
horizontal = 1;
options = 0;
origin = (
0,
4
);
stem = -2;
type = Tag;
}
);
};
width = 167;
},
{
anchors = (
{
name = bottom;
position = "{123, 0}";
},
{
name = bottomleft;
position = "{20, 0}";
},
{
name = center;
position = "{4, 260}";
},
{
name = top;
position = "{124, 520}";
},
{
name = topleft;
position = "{175, 520}";
}
);
associatedMasterId = "FF2DC345-5101-49B6-97F3-57A040F7C387";
layerId = "6035867B-48BD-40D2-9757-7A3CBB4BE75A";
name = "Mar 16, 22, 20:54";
paths = (
{
closed = 1;
nodes = (
"134 229 OFFCURVE",
"91 140 OFFCURVE",
"49 75 CURVE SMOOTH",
"22 32 OFFCURVE",
"-4 0 OFFCURVE",
"-20 0 CURVE SMOOTH",
"-41 0 OFFCURVE",
"-41 7 OFFCURVE",
"-41 19 CURVE SMOOTH",
"-41 33 OFFCURVE",
"17 157 OFFCURVE",
"43 255 CURVE SMOOTH",
"50 278 OFFCURVE",
"71 279 OFFCURVE",
"93 279 CURVE SMOOTH",
"95 279 OFFCURVE",
"95 279 OFFCURVE",
"96 279 CURVE SMOOTH",
"118 279 OFFCURVE",
"134 279 OFFCURVE",
"134 256 CURVE SMOOTH"
);
}
);
userData = {
com.schriftgestaltung.hints = (
{
horizontal = 1;
options = 0;
origin = (
0,
4
);
stem = -2;
type = Tag;
}
);
};
visible = 1;
width = 167;
}
);
leftKerningGroup = vavhebrew;
rightKerningGroup = vavhebrew;
unicode = 05D5;
userData = {
com.typemytype.robofont.guides = (
{
angle = 0;
isGlobal = 0;
magnetic = 5;
x = 0;
y = 571;
}
);
};
},
{
color = 5;
glyphname = "zayin-hb";
layers = (
{
anchors = (
{
name = bottom;
position = "{-22, 0}";
},
{
name = bottomleft;
position = "{-89, 0}";
},
{
name = center;
position = "{-37, 165}";
},
{
name = top;
position = "{207, 336}";
},
{
name = topleft;
position = "{61, 336}";
}
);
layerId = "FF2DC345-5101-49B6-97F3-57A040F7C387";
paths = (
{
closed = 1;
nodes = (
"0 -1 OFFCURVE",
"19 55 OFFCURVE",
"95 169 CURVE SMOOTH",
"105 185 OFFCURVE",
"126 185 OFFCURVE",
"142 185 CURVE SMOOTH",
"169 185 OFFCURVE",
"199 224 OFFCURVE",
"199 265 CURVE SMOOTH",
"199 286 OFFCURVE",
"184 305 OFFCURVE",
"162 305 CURVE SMOOTH",
"51 305 OFFCURVE",
"-51 31 OFFCURVE",
"-51 20 CURVE SMOOTH",
"-51 6 OFFCURVE",
"-39 -1 OFFCURVE",
"-28 -1 CURVE SMOOTH"
);
}
);
userData = {
com.schriftgestaltung.hints = (
{
horizontal = 1;
options = 0;
place = (
22,
0
);
stem = -2;
type = Tag;
}
);
};
width = 200;
},
{
anchors = (
{
name = bottom;
position = "{-22, 0}";
},
{
name = bottomleft;
position = "{-89, 0}";
},
{
name = center;
position = "{-26, 175}";
},
{
name = top;
position = "{207, 336}";
},
{
name = topleft;
position = "{61, 336}";
}
);
associatedMasterId = "FF2DC345-5101-49B6-97F3-57A040F7C387";
layerId = "E8637BC1-6591-4DB7-9F96-0BA611BCFE2B";
name = "Mar 16, 22, 21:19";
paths = (
{
closed = 1;
nodes = (
"-39 -1 OFFCURVE",
"-51 6 OFFCURVE",
"-51 20 CURVE SMOOTH",
"-51 31 OFFCURVE",
"51 305 OFFCURVE",
"162 305 CURVE SMOOTH",
"184 305 OFFCURVE",
"199 286 OFFCURVE",
"199 265 CURVE SMOOTH",
"199 224 OFFCURVE",
"169 185 OFFCURVE",
"142 185 CURVE SMOOTH",
"126 185 OFFCURVE",
"105 185 OFFCURVE",
"95 169 CURVE SMOOTH",
"19 55 OFFCURVE",
"0 -1 OFFCURVE",
"-28 -1 CURVE SMOOTH"
);
}
);
userData = {
com.schriftgestaltung.hints = (
{
horizontal = 1;
options = 0;
place = (
22,
0
);
stem = -2;
type = Tag;
}
);
};
width = 200;
}
);
leftKerningGroup = zayinhebrew;
rightKerningGroup = zayinhebrew;
unicode = 05D6;
userData = {
com.typemytype.robofont.guides = (
{
angle = 0;
isGlobal = 0;
magnetic = 5;
x = 0;
y = 983;
},
{
angle = 0;
isGlobal = 0;
magnetic = 5;
x = 0;
y = 983;
},
{
angle = 0;
isGlobal = 0;
magnetic = 5;
x = 0;
y = 571;
}
);
};
},
{
color = 5;
glyphname = "het-hb";
layers = (
{
anchors = (
{
name = bottom;
position = "{119, 0}";
},
{
name = bottomleft;
position = "{-80, 0}";
},
{
name = center;
position = "{311, 150}";
},
{
name = top;
position = "{311, 230}";
},
{
name = topleft;
position = "{20, 230}";
}
);
layerId = "FF2DC345-5101-49B6-97F3-57A040F7C387";
paths = (
{
closed = 1;
nodes = (
"42 0 OFFCURVE",
"126 129 OFFCURVE",
"148 217 CURVE",
"167 227 OFFCURVE",
"190 237 OFFCURVE",
"212 237 CURVE SMOOTH",
"243 237 OFFCURVE",
"265 228 OFFCURVE",
"265 193 CURVE SMOOTH",
"265 151 OFFCURVE",
"247 62 OFFCURVE",
"201 38 CURVE SMOOTH",
"190 32 OFFCURVE",
"184 22 OFFCURVE",
"184 14 CURVE SMOOTH",
"184 6 OFFCURVE",
"190 0 OFFCURVE",
"201 0 CURVE SMOOTH",
"287 0 OFFCURVE",
"358 111 OFFCURVE",
"358 203 CURVE SMOOTH",
"358 265 OFFCURVE",
"304 280 OFFCURVE",
"249 280 CURVE SMOOTH",
"205 280 OFFCURVE",
"174 271 OFFCURVE",
"153 260 CURVE",
"151 279 OFFCURVE",
"136 279 OFFCURVE",
"116 279 CURVE SMOOTH",
"94 279 OFFCURVE",
"79 281 OFFCURVE",
"72 256 CURVE SMOOTH",
"50 176 OFFCURVE",
"0 51 OFFCURVE",
"-50 42 CURVE SMOOTH",
"-61 40 OFFCURVE",
"-71 28 OFFCURVE",
"-71 18 CURVE SMOOTH",
"-71 8 OFFCURVE",
"-63 0 OFFCURVE",
"-43 0 CURVE SMOOTH"
);
}
);
userData = {
com.schriftgestaltung.hints = (
{
horizontal = 1;
options = 0;
origin = (
0,
24
);
stem = -2;
type = Tag;
}
);
};
width = 392;
},
{
anchors = (
{
name = bottom;
position = "{119, 0}";
},
{
name = bottomleft;
position = "{-80, 0}";
},
{
name = center;
position = "{311, 150}";
},
{
name = top;
position = "{311, 230}";
},
{
name = topleft;
position = "{20, 230}";
}
);
associatedMasterId = "FF2DC345-5101-49B6-97F3-57A040F7C387";
layerId = "3B666811-0A51-499E-99B8-03DC2181B4A8";
name = "Mar 16, 22, 21:34";
paths = (
{
closed = 1;
nodes = (
"-63 0 OFFCURVE",
"-71 8 OFFCURVE",
"-71 18 CURVE SMOOTH",
"-71 28 OFFCURVE",
"-61 40 OFFCURVE",
"-50 42 CURVE SMOOTH",
"0 51 OFFCURVE",
"50 176 OFFCURVE",
"72 256 CURVE SMOOTH",
"79 279 OFFCURVE",
"91 279 OFFCURVE",
"114 279 CURVE SMOOTH",
"115 279 OFFCURVE",
"115 279 OFFCURVE",
"116 279 CURVE SMOOTH",
"136 279 OFFCURVE",
"151 279 OFFCURVE",
"153 260 CURVE",
"174 271 OFFCURVE",
"205 280 OFFCURVE",
"249 280 CURVE SMOOTH",
"256 280 OFFCURVE",
"263 280 OFFCURVE",
"270 279 CURVE SMOOTH",
"316 276 OFFCURVE",
"358 256 OFFCURVE",
"358 203 CURVE SMOOTH",
"358 111 OFFCURVE",
"287 0 OFFCURVE",
"201 0 CURVE SMOOTH",
"190 0 OFFCURVE",
"184 6 OFFCURVE",
"184 14 CURVE SMOOTH",
"184 22 OFFCURVE",
"190 32 OFFCURVE",
"201 38 CURVE SMOOTH",
"228 52 OFFCURVE",
"256 96 OFFCURVE",
"265 183 CURVE SMOOTH",
"265 186 OFFCURVE",
"265 190 OFFCURVE",
"265 193 CURVE SMOOTH",
"265 232 OFFCURVE",
"238 236 OFFCURVE",
"216 237 CURVE SMOOTH",
"214 237 OFFCURVE",
"213 237 OFFCURVE",
"212 237 CURVE SMOOTH",
"190 237 OFFCURVE",
"167 227 OFFCURVE",
"148 217 CURVE",
"126 129 OFFCURVE",
"42 0 OFFCURVE",
"-43 0 CURVE SMOOTH"
);
}
);
userData = {
com.schriftgestaltung.hints = (
{
horizontal = 1;
options = 0;
origin = (
0,
24
);
stem = -2;
type = Tag;
}
);
};
visible = 1;
width = 392;
}
);
leftKerningGroup = hethebrew;
rightKerningGroup = vavhebrew;
unicode = 05D7;
userData = {
com.typemytype.robofont.guides = (
{
angle = 0;
isGlobal = 0;
magnetic = 5;
x = 0;
y = 571;
},
{
angle = 90;
isGlobal = 0;
magnetic = 5;
x = 70;
y = 0;
},
{
angle = 90;
isGlobal = 0;
magnetic = 5;
x = 517;
y = 0;
}
);
};
},
{
color = 5;
glyphname = "tet-hb";
layers = (
{
anchors = (
{
name = bottom;
position = "{134, 0}";
},
{
name = bottomleft;
position = "{-60, 0}";
},
{
name = center;
position = "{182, 130}";
},
{
name = top;
position = "{324, 180}";
},
{
name = topleft;
position = "{20, 180}";
}
);
layerId = "FF2DC345-5101-49B6-97F3-57A040F7C387";
paths = (
{
closed = 1;
nodes = (
"-2 0 OFFCURVE",
"29 39 OFFCURVE",
"51 73 CURVE",
"67 42 OFFCURVE",
"98 20 OFFCURVE",
"147 20 CURVE SMOOTH",
"263 20 OFFCURVE",
"371 144 OFFCURVE",
"371 264 CURVE SMOOTH",
"371 278 OFFCURVE",
"359 285 OFFCURVE",
"348 285 CURVE SMOOTH",
"308 285 OFFCURVE",
"269 275 OFFCURVE",
"269 239 CURVE SMOOTH",
"269 152 OFFCURVE",
"233 66 OFFCURVE",
"149 66 CURVE SMOOTH",
"118 66 OFFCURVE",
"95 101 OFFCURVE",
"95 134 CURVE SMOOTH",
"95 141 OFFCURVE",
"96 149 OFFCURVE",
"99 156 CURVE SMOOTH",
"116 197 OFFCURVE",
"131 238 OFFCURVE",
"131 248 CURVE SMOOTH",
"131 272 OFFCURVE",
"116 272 OFFCURVE",
"93 272 CURVE SMOOTH",
"72 272 OFFCURVE",
"48 271 OFFCURVE",
"41 247 CURVE SMOOTH",
"14 149 OFFCURVE",
"-41 33 OFFCURVE",
"-41 19 CURVE SMOOTH",
"-41 7 OFFCURVE",
"-41 0 OFFCURVE",
"-20 0 CURVE SMOOTH"
);
}
);
userData = {
com.schriftgestaltung.Glyphs.glyph.rightMetricsKey = "kaf-hb";
com.schriftgestaltung.hints = (
{
horizontal = 1;
options = 0;
origin = (
0,
8
);
stem = -2;
type = Tag;
}
);
};
width = 395;
}
);
leftKerningGroup = tethebrew;
rightKerningGroup = tethebrew;
unicode = 05D8;
userData = {
com.typemytype.robofont.guides = (
{
angle = 0;
isGlobal = 0;
magnetic = 5;
x = 0;
y = 571;
},
{
angle = 0;
isGlobal = 0;
magnetic = 5;
x = 0;
y = 581;
},
{
angle = 90;
isGlobal = 0;
magnetic = 5;
x = 196;
y = 0;
},
{
angle = 90;
isGlobal = 0;
magnetic = 5;
x = 65;
y = 0;
}
);
};
},
{
color = 5;
glyphname = "yod-hb";
layers = (
{
anchors = (
{
name = bottom;
position = "{36, 0}";
},
{
name = bottomleft;
position = "{-60, 0}";
},
{
name = center;
position = "{-37, 138}";
},
{
name = top;
position = "{117, 180}";
},
{
name = topleft;
position = "{20, 180}";
}
);
layerId = "FF2DC345-5101-49B6-97F3-57A040F7C387";
paths = (
{
closed = 1;
nodes = (
"59 85 OFFCURVE",
"117 159 OFFCURVE",
"117 204 CURVE SMOOTH",
"117 227 OFFCURVE",
"102 227 OFFCURVE",
"80 227 CURVE SMOOTH",
"58 227 OFFCURVE",
"34 226 OFFCURVE",
"27 201 CURVE SMOOTH",
"6 127 OFFCURVE",
"0 117 OFFCURVE",
"0 102 CURVE SMOOTH",
"0 90 OFFCURVE",
"2 85 OFFCURVE",
"22 85 CURVE SMOOTH"
);
}
);
userData = {
com.schriftgestaltung.hints = (
{
horizontal = 1;
options = 0;
origin = (
0,
4
);
stem = -2;
type = Tag;
}
);
};
width = 150;
},
{
anchors = (
{
name = bottom;
position = "{36, 0}";
},
{
name = bottomleft;
position = "{-60, 0}";
},
{
name = center;
position = "{-37, 138}";
},
{
name = top;
position = "{117, 180}";
},
{
name = topleft;
position = "{20, 180}";
}
);
associatedMasterId = "FF2DC345-5101-49B6-97F3-57A040F7C387";
layerId = "EE1C8EE7-7C03-45D7-9516-9C316EC94C1E";
name = "Mar 16, 22, 22:31";
paths = (
{
closed = 1;
nodes = (
"2 85 OFFCURVE",
"0 90 OFFCURVE",
"0 102 CURVE SMOOTH",
"0 117 OFFCURVE",
"0 105 OFFCURVE",
"27 201 CURVE SMOOTH",
"33 226 OFFCURVE",
"58 227 OFFCURVE",
"80 227 CURVE SMOOTH",
"102 227 OFFCURVE",
"117 227 OFFCURVE",
"117 204 CURVE SMOOTH",
"117 159 OFFCURVE",
"59 85 OFFCURVE",
"22 85 CURVE SMOOTH"
);
}
);
userData = {
com.schriftgestaltung.hints = (
{
horizontal = 1;
options = 0;
origin = (
0,
4
);
stem = -2;
type = Tag;
}
);
};
visible = 1;
width = 150;
}
);
leftKerningGroup = yodhebrew;
rightKerningGroup = yodhebrew;
unicode = 05D9;
userData = {
com.typemytype.robofont.guides = (
{
angle = 0;
isGlobal = 0;
magnetic = 5;
x = 0;
y = 240;
}
);
};
},
{
color = 5;
glyphname = "finalkaf-hb";
layers = (
{
anchors = (
{
name = bottom;
position = "{321, -29}";
},
{
name = bottomleft;
position = "{0, 0}";
},
{
name = center;
position = "{43, 84}";
},
{
name = top;
position = "{303, 310}";
},
{
name = topleft;
position = "{70, 310}";
}
);
layerId = "FF2DC345-5101-49B6-97F3-57A040F7C387";
paths = (
{
closed = 1;
nodes = (
"11 -413 OFFCURVE",
"20 -410 OFFCURVE",
"29 -402 CURVE SMOOTH",
"185 -261 OFFCURVE",
"137 -136 OFFCURVE",
"253 156 CURVE SMOOTH",
"264 184 OFFCURVE",
"269 206 OFFCURVE",
"269 223 CURVE SMOOTH",
"269 271 OFFCURVE",
"232 283 OFFCURVE",
"187 283 CURVE SMOOTH",
"147 283 OFFCURVE",
"100 273 OFFCURVE",
"69 273 CURVE SMOOTH",
"45 273 OFFCURVE",
"19 298 OFFCURVE",
"-5 298 CURVE SMOOTH",
"-27 298 OFFCURVE",
"-53 282 OFFCURVE",
"-53 256 CURVE SMOOTH",
"-53 236 OFFCURVE",
"-36 217 OFFCURVE",
"12 217 CURVE SMOOTH",
"60 217 OFFCURVE",
"71 231 OFFCURVE",
"125 231 CURVE SMOOTH",
"157 231 OFFCURVE",
"185 222 OFFCURVE",
"185 193 CURVE SMOOTH",
"185 184 OFFCURVE",
"183 173 OFFCURVE",
"177 159 CURVE SMOOTH",
"59 -112 OFFCURVE",
"84 -286 OFFCURVE",
"-5 -375 CURVE SMOOTH",
"-12 -383 OFFCURVE",
"-16 -390 OFFCURVE",
"-16 -396 CURVE SMOOTH",
"-16 -406 OFFCURVE",
"-8 -413 OFFCURVE",
"4 -413 CURVE SMOOTH"
);
}
);
userData = {
com.schriftgestaltung.Glyphs.glyph.rightMetricsKey = "het-hb";
com.schriftgestaltung.hints = (
{
horizontal = 1;
options = 0;
place = (
549,
0
);
stem = -2;
type = Tag;
}
);
};
width = 304;
},
{
anchors = (
{
name = bottom;
position = "{321, -29}";
},
{
name = bottomleft;
position = "{0, 0}";
},
{
name = center;
position = "{43, 84}";
},
{
name = top;
position = "{303, 310}";
},
{
name = topleft;
position = "{70, 310}";
}
);
associatedMasterId = "FF2DC345-5101-49B6-97F3-57A040F7C387";
layerId = "C7828AF6-116C-4B5B-A360-A86E5537C4C4";
name = "Mar 16, 22, 23:11";
paths = (
{
closed = 1;
nodes = (
"137 -136 OFFCURVE",
"185 -261 OFFCURVE",
"29 -402 CURVE SMOOTH",
"20 -410 OFFCURVE",
"11 -413 OFFCURVE",
"4 -413 CURVE SMOOTH",
"-8 -413 OFFCURVE",
"-16 -406 OFFCURVE",
"-16 -396 CURVE SMOOTH",
"-16 -390 OFFCURVE",
"-12 -383 OFFCURVE",
"-5 -375 CURVE SMOOTH",
"84 -286 OFFCURVE",
"59 -112 OFFCURVE",
"177 159 CURVE SMOOTH",
"183 173 OFFCURVE",
"185 184 OFFCURVE",
"185 193 CURVE SMOOTH",
"185 222 OFFCURVE",
"157 231 OFFCURVE",
"125 231 CURVE SMOOTH",
"87 231 OFFCURVE",
"43 219 OFFCURVE",
"35 218 CURVE SMOOTH",
"26 217 OFFCURVE",
"19 217 OFFCURVE",
"12 217 CURVE SMOOTH",
"-36 217 OFFCURVE",
"-53 236 OFFCURVE",
"-53 256 CURVE SMOOTH",
"-53 273 OFFCURVE",
"-40 290 OFFCURVE",
"-22 295 CURVE SMOOTH",
"-16 297 OFFCURVE",
"-10 298 OFFCURVE",
"-5 298 CURVE SMOOTH",
"21 298 OFFCURVE",
"20 273 OFFCURVE",
"67 273 CURVE SMOOTH",
"68 273 OFFCURVE",
"68 273 OFFCURVE",
"69 273 CURVE SMOOTH",
"100 273 OFFCURVE",
"147 283 OFFCURVE",
"187 283 CURVE SMOOTH",
"232 283 OFFCURVE",
"269 271 OFFCURVE",
"269 223 CURVE SMOOTH",
"269 206 OFFCURVE",
"264 184 OFFCURVE",
"253 156 CURVE SMOOTH"
);
}
);
userData = {
com.schriftgestaltung.Glyphs.glyph.rightMetricsKey = "het-hb";
com.schriftgestaltung.hints = (
{
horizontal = 1;
options = 0;
place = (
549,
0
);
stem = -2;
type = Tag;
}
);
};
width = 304;
}
);
leftKerningGroup = dalethebrew;
rightKerningGroup = dalethebrew;
unicode = 05DA;
userData = {
com.typemytype.robofont.guides = (
{
angle = 0;
isGlobal = 0;
magnetic = 5;
x = 0;
y = 61;
}
);
};
},
{
color = 5;
glyphname = "kaf-hb";
layers = (
{
anchors = (
{
name = bottom;
position = "{80, 0}";
},
{
name = bottomleft;
position = "{-78, 0}";
},
{
name = center;
position = "{143, 130}";
},
{
name = top;
position = "{259, 260}";
},
{
name = topleft;
position = "{52, 260}";
}
);
layerId = "FF2DC345-5101-49B6-97F3-57A040F7C387";
paths = (
{
closed = 1;
nodes = (
"200 0 OFFCURVE",
"289 78 OFFCURVE",
"289 177 CURVE SMOOTH",
"289 249 OFFCURVE",
"217 279 OFFCURVE",
"154 279 CURVE SMOOTH",
"59 279 OFFCURVE",
"18 235 OFFCURVE",
"18 205 CURVE SMOOTH",
"18 187 OFFCURVE",
"30 174 OFFCURVE",
"50 174 CURVE SMOOTH",
"116 174 OFFCURVE",
"81 238 OFFCURVE",
"147 238 CURVE SMOOTH",
"189 238 OFFCURVE",
"203 198 OFFCURVE",
"203 164 CURVE SMOOTH",
"203 102 OFFCURVE",
"137 51 OFFCURVE",
"73 51 CURVE SMOOTH",
"11 51 OFFCURVE",
"-37 87 OFFCURVE",
"-51 87 CURVE SMOOTH",
"-56 87 OFFCURVE",
"-60 83 OFFCURVE",
"-60 76 CURVE SMOOTH",
"-60 52 OFFCURVE",
"-15 0 OFFCURVE",
"83 0 CURVE SMOOTH"
);
}
);
userData = {
com.schriftgestaltung.hints = (
{
horizontal = 1;
options = 0;
origin = (
0,
6
);
stem = -2;
type = Tag;
}
);
};
width = 322;
}
);
leftKerningGroup = kafhebrew;
rightKerningGroup = kafhebrew;
unicode = 05DB;
userData = {
com.typemytype.robofont.guides = (
{
angle = 0;
isGlobal = 0;
magnetic = 5;
x = 0;
y = 590;
},
{
angle = 90;
isGlobal = 0;
magnetic = 5;
x = 40;
y = 0;
}
);
};
},
{
color = 5;
glyphname = "lamed-hb";
layers = (
{
anchors = (
{
name = bottom;
position = "{164, 0}";
},
{
name = bottomleft;
position = "{3, 0}";
},
{
name = center;
position = "{184, 377}";
},
{
name = top;
position = "{374, 590}";
},
{
name = topleft;
position = "{158, 590}";
}
);
layerId = "FF2DC345-5101-49B6-97F3-57A040F7C387";
paths = (
{
closed = 1;
nodes = (
"209 0 OFFCURVE",
"292 83 OFFCURVE",
"292 148 CURVE SMOOTH",
"292 166 OFFCURVE",
"283 170 OFFCURVE",
"260 170 CURVE SMOOTH",
"244 170 OFFCURVE",
"216 170 OFFCURVE",
"207 148 CURVE SMOOTH",
"184 97 OFFCURVE",
"161 48 OFFCURVE",
"99 48 CURVE SMOOTH",
"70 48 OFFCURVE",
"51 82 OFFCURVE",
"51 118 CURVE SMOOTH",
"51 317 OFFCURVE",
"215 649 OFFCURVE",
"279 649 CURVE SMOOTH",
"296 649 OFFCURVE",
"297 638 OFFCURVE",
"297 625 CURVE SMOOTH",
"297 467 OFFCURVE",
"97 153 OFFCURVE",
"97 136 CURVE SMOOTH",
"97 124 OFFCURVE",
"99 120 OFFCURVE",
"111 120 CURVE SMOOTH",
"178 120 OFFCURVE",
"384 462 OFFCURVE",
"384 619 CURVE SMOOTH",
"384 690 OFFCURVE",
"349 700 OFFCURVE",
"310 700 CURVE SMOOTH",
"143 700 OFFCURVE",
"0 319 OFFCURVE",
"0 138 CURVE SMOOTH",
"0 104 OFFCURVE",
"10 0 OFFCURVE",
"98 0 CURVE SMOOTH"
);
}
);
userData = {
com.schriftgestaltung.Glyphs.glyph.rightMetricsKey = "kaf-hb";
};
width = 334;
},
{
anchors = (
{
name = bottom;
position = "{254, 0}";
},
{
name = bottomleft;
position = "{63, 0}";
},
{
name = center;
position = "{211, 260}";
},
{
name = top;
position = "{234, 520}";
},
{
name = topleft;
position = "{18, 520}";
}
);
associatedMasterId = "FF2DC345-5101-49B6-97F3-57A040F7C387";
layerId = "6ED3AAE6-1870-4A52-80AB-65CBF77CC9F8";
name = "Mar 19, 22, 22:14";
paths = (
{
closed = 1;
nodes = (
"297 640 OFFCURVE",
"293 649 OFFCURVE",
"279 649 CURVE SMOOTH",
"215 649 OFFCURVE",
"51 317 OFFCURVE",
"51 118 CURVE SMOOTH",
"51 82 OFFCURVE",
"70 48 OFFCURVE",
"99 48 CURVE SMOOTH",
"161 48 OFFCURVE",
"184 97 OFFCURVE",
"207 148 CURVE SMOOTH",
"216 170 OFFCURVE",
"244 170 OFFCURVE",
"260 170 CURVE SMOOTH",
"283 170 OFFCURVE",
"292 166 OFFCURVE",
"292 148 CURVE SMOOTH",
"292 83 OFFCURVE",
"209 0 OFFCURVE",
"98 0 CURVE SMOOTH",
"10 0 OFFCURVE",
"0 104 OFFCURVE",
"0 138 CURVE SMOOTH",
"0 345 OFFCURVE",
"164 695 OFFCURVE",
"296 700 CURVE SMOOTH",
"301 700 OFFCURVE",
"306 700 OFFCURVE",
"310 700 CURVE SMOOTH",
"349 700 OFFCURVE",
"384 690 OFFCURVE",
"384 619 CURVE SMOOTH",
"384 462 OFFCURVE",
"178 120 OFFCURVE",
"111 120 CURVE SMOOTH",
"99 120 OFFCURVE",
"97 124 OFFCURVE",
"97 136 CURVE SMOOTH",
"97 153 OFFCURVE",
"297 467 OFFCURVE",
"297 625 CURVE SMOOTH",
"297 627 OFFCURVE",
"297 629 OFFCURVE",
"297 631 CURVE SMOOTH"
);
}
);
userData = {
com.schriftgestaltung.Glyphs.glyph.rightMetricsKey = "kaf-hb";
};
visible = 1;
width = 334;
}
);
leftKerningGroup = lamedhebrew;
rightKerningGroup = lamedhebrew;
unicode = 05DC;
userData = {
com.typemytype.robofont.guides = (
{
angle = 0;
isGlobal = 0;
magnetic = 5;
x = 0;
y = 710;
},
{
angle = 90;
isGlobal = 0;
magnetic = 5;
x = 464;
y = 0;
}
);
};
},
{
color = 5;
glyphname = "finalmem-hb";
layers = (
{
anchors = (
{
name = bottom;
position = "{138, 0}";
},
{
name = bottomleft;
position = "{20, 0}";
},
{
name = center;
position = "{137, 134}";
},
{
name = top;
position = "{308, 290}";
},
{
name = topleft;
position = "{20, 290}";
}
);
layerId = "FF2DC345-5101-49B6-97F3-57A040F7C387";
paths = (
{
closed = 1;
nodes = (
"236 0 OFFCURVE",
"300 94 OFFCURVE",
"300 177 CURVE SMOOTH",
"300 233 OFFCURVE",
"265 279 OFFCURVE",
"178 279 CURVE SMOOTH",
"70 279 OFFCURVE",
"0 208 OFFCURVE",
"0 116 CURVE SMOOTH",
"0 39 OFFCURVE",
"32 0 OFFCURVE",
"109 0 CURVE SMOOTH"
);
},
{
closed = 1;
nodes = (
"69 45 OFFCURVE",
"64 85 OFFCURVE",
"64 101 CURVE SMOOTH",
"64 173 OFFCURVE",
"117 236 OFFCURVE",
"166 236 CURVE SMOOTH",
"196 236 OFFCURVE",
"215 211 OFFCURVE",
"215 177 CURVE SMOOTH",
"215 104 OFFCURVE",
"163 45 OFFCURVE",
"106 45 CURVE SMOOTH"
);
}
);
userData = {
com.schriftgestaltung.Glyphs.glyph.rightMetricsKey = "het-hb";
com.schriftgestaltung.hints = (
{
horizontal = 1;
options = 0;
origin = (
0,
11
);
stem = -2;
type = Tag;
}
);
};
width = 334;
},
{
anchors = (
{
name = bottom;
position = "{308, 0}";
},
{
name = bottomleft;
position = "{20, 0}";
},
{
name = center;
position = "{308, 260}";
},
{
name = top;
position = "{308, 520}";
},
{
name = topleft;
position = "{20, 520}";
}
);
associatedMasterId = "FF2DC345-5101-49B6-97F3-57A040F7C387";
layerId = "10F04F7F-5019-4D7E-9125-FCCA3CDFAD73";
name = "Mar 20, 22, 17:14";
paths = (
{
closed = 1;
nodes = (
"31 0 OFFCURVE",
"0 45 OFFCURVE",
"0 104 CURVE SMOOTH",
"0 108 OFFCURVE",
"0 112 OFFCURVE",
"0 116 CURVE SMOOTH",
"6 216 OFFCURVE",
"73 279 OFFCURVE",
"178 279 CURVE SMOOTH",
"265 279 OFFCURVE",
"300 233 OFFCURVE",
"300 177 CURVE SMOOTH",
"300 94 OFFCURVE",
"236 0 OFFCURVE",
"109 0 CURVE SMOOTH"
);
},
{
closed = 1;
nodes = (
"163 45 OFFCURVE",
"215 104 OFFCURVE",
"215 177 CURVE SMOOTH",
"215 211 OFFCURVE",
"196 236 OFFCURVE",
"166 236 CURVE SMOOTH",
"119 236 OFFCURVE",
"68 179 OFFCURVE",
"65 105 CURVE SMOOTH",
"64 103 OFFCURVE",
"64 101 OFFCURVE",
"64 99 CURVE SMOOTH",
"64 65 OFFCURVE",
"81 45 OFFCURVE",
"106 45 CURVE SMOOTH"
);
}
);
userData = {
com.schriftgestaltung.Glyphs.glyph.rightMetricsKey = "het-hb";
com.schriftgestaltung.hints = (
{
horizontal = 1;
options = 0;
origin = (
0,
11
);
stem = -2;
type = Tag;
}
);
};
visible = 1;
width = 334;
}
);
leftKerningGroup = hethebrew;
rightKerningGroup = vavhebrew;
unicode = 05DD;
userData = {
com.typemytype.robofont.guides = (
{
angle = 0;
isGlobal = 0;
magnetic = 5;
x = 0;
y = 853;
},
{
angle = 0;
isGlobal = 0;
magnetic = 5;
x = 0;
y = 58;
}
);
};
},
{
color = 5;
glyphname = "mem-hb";
layers = (
{
anchors = (
{
name = bottom;
position = "{121, 0}";
},
{
name = bottomleft;
position = "{9, 0}";
},
{
name = center;
position = "{182, 127}";
},
{
name = top;
position = "{306, 280}";
},
{
name = topleft;
position = "{169, 280}";
}
);
layerId = "FF2DC345-5101-49B6-97F3-57A040F7C387";
paths = (
{
closed = 1;
nodes = (
"-6 0 OFFCURVE",
"17 26 OFFCURVE",
"40 61 CURVE",
"56 29 OFFCURVE",
"78 0 OFFCURVE",
"127 0 CURVE SMOOTH",
"242 0 OFFCURVE",
"288 80 OFFCURVE",
"347 170 CURVE SMOOTH",
"357 186 OFFCURVE",
"378 186 OFFCURVE",
"395 186 CURVE SMOOTH",
"422 186 OFFCURVE",
"452 225 OFFCURVE",
"452 266 CURVE SMOOTH",
"452 287 OFFCURVE",
"444 304 OFFCURVE",
"423 304 CURVE SMOOTH",
"272 304 OFFCURVE",
"280 46 OFFCURVE",
"129 46 CURVE SMOOTH",
"105 46 OFFCURVE",
"86 70 OFFCURVE",
"86 104 CURVE SMOOTH",
"86 146 OFFCURVE",
"134 229 OFFCURVE",
"134 256 CURVE SMOOTH",
"134 280 OFFCURVE",
"115 279 OFFCURVE",
"93 279 CURVE SMOOTH",
"71 279 OFFCURVE",
"50 278 OFFCURVE",
"43 255 CURVE SMOOTH",
"17 157 OFFCURVE",
"-41 33 OFFCURVE",
"-41 19 CURVE SMOOTH",
"-41 7 OFFCURVE",
"-41 0 OFFCURVE",
"-20 0 CURVE SMOOTH"
);
}
);
userData = {
com.schriftgestaltung.Glyphs.glyph.rightMetricsKey = "het-hb";
com.schriftgestaltung.hints = (
{
horizontal = 1;
options = 0;
place = (
15,
0
);
stem = -2;
type = Tag;
}
);
};
width = 452;
},
{
anchors = (
{
name = bottom;
position = "{121, 0}";
},
{
name = bottomleft;
position = "{9, 0}";
},
{
name = center;
position = "{182, 127}";
},
{
name = top;
position = "{306, 280}";
},
{
name = topleft;
position = "{169, 280}";
}
);
associatedMasterId = "FF2DC345-5101-49B6-97F3-57A040F7C387";
layerId = "0B404EAC-1ABE-4524-A034-0B59E99B183C";
name = "Mar 20, 22, 20:14";
paths = (
{
closed = 1;
nodes = (
"134 239 OFFCURVE",
"109 188 OFFCURVE",
"91 136 CURVE SMOOTH",
"88 125 OFFCURVE",
"86 114 OFFCURVE",
"86 104 CURVE SMOOTH",
"86 70 OFFCURVE",
"105 46 OFFCURVE",
"129 46 CURVE SMOOTH",
"280 46 OFFCURVE",
"272 304 OFFCURVE",
"423 304 CURVE SMOOTH",
"444 304 OFFCURVE",
"452 287 OFFCURVE",
"452 266 CURVE SMOOTH",
"452 225 OFFCURVE",
"422 186 OFFCURVE",
"395 186 CURVE SMOOTH",
"378 186 OFFCURVE",
"357 186 OFFCURVE",
"347 170 CURVE SMOOTH",
"288 80 OFFCURVE",
"242 0 OFFCURVE",
"127 0 CURVE SMOOTH",
"78 0 OFFCURVE",
"56 29 OFFCURVE",
"40 61 CURVE",
"17 26 OFFCURVE",
"-6 0 OFFCURVE",
"-20 0 CURVE SMOOTH",
"-41 0 OFFCURVE",
"-41 7 OFFCURVE",
"-41 19 CURVE SMOOTH",
"-41 33 OFFCURVE",
"17 157 OFFCURVE",
"43 255 CURVE SMOOTH",
"50 278 OFFCURVE",
"71 279 OFFCURVE",
"93 279 CURVE SMOOTH",
"115 279 OFFCURVE",
"134 280 OFFCURVE",
"134 256 CURVE SMOOTH"
);
}
);
userData = {
com.schriftgestaltung.Glyphs.glyph.rightMetricsKey = "het-hb";
com.schriftgestaltung.hints = (
{
horizontal = 1;
options = 0;
place = (
15,
0
);
stem = -2;
type = Tag;
}
);
};
visible = 1;
width = 452;
}
);
leftKerningGroup = hethebrew;
rightKerningGroup = memhebrew;
unicode = 05DE;
userData = {
com.typemytype.robofont.guides = (
{
angle = 90;
isGlobal = 0;
magnetic = 5;
x = 50;
y = 0;
},
{
angle = 90;
isGlobal = 0;
magnetic = 5;
x = 576;
y = 0;
}
);
};
},
{
color = 5;
glyphname = "finalnun-hb";
layers = (
{
anchors = (
{
name = bottom;
position = "{183, 0}";
},
{
name = bottomleft;
position = "{-30, 0}";
},
{
name = center;
position = "{28, 131}";
},
{
name = top;
position = "{123, 300}";
},
{
name = topleft;
position = "{20, 300}";
}
);
layerId = "FF2DC345-5101-49B6-97F3-57A040F7C387";
paths = (
{
closed = 1;
nodes = (
"-127 -413 OFFCURVE",
"-114 -410 OFFCURVE",
"-107 -392 CURVE SMOOTH",
"-12 -145 OFFCURVE",
"221 223 OFFCURVE",
"221 245 CURVE SMOOTH",
"221 257 OFFCURVE",
"221 264 OFFCURVE",
"200 264 CURVE SMOOTH",
"144 264 OFFCURVE",
"-197 -304 OFFCURVE",
"-197 -390 CURVE SMOOTH",
"-197 -414 OFFCURVE",
"-159 -413 OFFCURVE",
"-143 -413 CURVE SMOOTH"
);
}
);
userData = {
com.schriftgestaltung.hints = (
{
horizontal = 1;
options = 0;
origin = (
0,
3
);
stem = -2;
type = Tag;
}
);
};
width = 244;
},
{
anchors = (
{
name = bottom;
position = "{123, 0}";
},
{
name = bottomleft;
position = "{20, 0}";
},
{
name = center;
position = "{123, 260}";
},
{
name = top;
position = "{123, 520}";
},
{
name = topleft;
position = "{20, 520}";
}
);
associatedMasterId = "FF2DC345-5101-49B6-97F3-57A040F7C387";
layerId = "CF883582-FF79-4BB4-84A4-B52038240EAF";
name = "Mar 20, 22, 20:38";
paths = (
{
closed = 1;
nodes = (
"221 264 OFFCURVE",
"221 257 OFFCURVE",
"221 245 CURVE SMOOTH",
"221 223 OFFCURVE",
"-12 -145 OFFCURVE",
"-107 -392 CURVE SMOOTH",
"-114 -410 OFFCURVE",
"-127 -413 OFFCURVE",
"-143 -413 CURVE SMOOTH",
"-148 -413 OFFCURVE",
"-154 -413 OFFCURVE",
"-159 -412 CURVE SMOOTH",
"-160 -412 OFFCURVE",
"-160 -412 OFFCURVE",
"-161 -412 CURVE SMOOTH",
"-182 -410 OFFCURVE",
"-197 -409 OFFCURVE",
"-197 -390 CURVE SMOOTH",
"-197 -304 OFFCURVE",
"144 264 OFFCURVE",
"200 264 CURVE SMOOTH"
);
}
);
userData = {
com.schriftgestaltung.hints = (
{
horizontal = 1;
options = 0;
origin = (
0,
3
);
stem = -2;
type = Tag;
}
);
};
visible = 1;
width = 244;
}
);
leftKerningGroup = vavhebrew;
rightKerningGroup = vavhebrew;
unicode = 05DF;
},
{
color = 5;
glyphname = "nun-hb";
layers = (
{
anchors = (
{
name = bottom;
position = "{44, 0}";
},
{
name = bottomleft;
position = "{-100, 0}";
},
{
name = center;
position = "{-20, 185}";
},
{
name = top;
position = "{203, 160}";
},
{
name = topleft;
position = "{0, 150}";
}
);
layerId = "FF2DC345-5101-49B6-97F3-57A040F7C387";
paths = (
{
closed = 1;
nodes = (
"56 0 OFFCURVE",
"154 175 OFFCURVE",
"154 256 CURVE SMOOTH",
"154 279 OFFCURVE",
"138 279 OFFCURVE",
"116 279 CURVE SMOOTH",
"94 279 OFFCURVE",
"70 279 OFFCURVE",
"63 255 CURVE SMOOTH",
"41 175 OFFCURVE",
"0 51 OFFCURVE",
"-50 42 CURVE SMOOTH",
"-61 40 OFFCURVE",
"-71 28 OFFCURVE",
"-71 18 CURVE SMOOTH",
"-71 8 OFFCURVE",
"-63 0 OFFCURVE",
"-43 0 CURVE SMOOTH"
);
}
);
userData = {
com.schriftgestaltung.hints = (
{
horizontal = 1;
options = 0;
place = (
559,
0
);
stem = -2;
type = Tag;
}
);
};
width = 187;
},
{
anchors = (
{
name = bottom;
position = "{44, 0}";
},
{
name = bottomleft;
position = "{-100, 0}";
},
{
name = center;
position = "{0, 185}";
},
{
name = top;
position = "{203, 160}";
},
{
name = topleft;
position = "{20, 160}";
}
);
associatedMasterId = "FF2DC345-5101-49B6-97F3-57A040F7C387";
layerId = "A503DF61-69F2-4334-8541-2661D958BEF7";
name = "Mar 20, 22, 21:37";
paths = (
{
closed = 1;
nodes = (
"-63 0 OFFCURVE",
"-71 8 OFFCURVE",
"-71 18 CURVE SMOOTH",
"-71 28 OFFCURVE",
"-61 40 OFFCURVE",
"-50 42 CURVE SMOOTH",
"0 51 OFFCURVE",
"41 175 OFFCURVE",
"63 255 CURVE SMOOTH",
"70 278 OFFCURVE",
"91 279 OFFCURVE",
"114 279 CURVE SMOOTH",
"115 279 OFFCURVE",
"115 279 OFFCURVE",
"116 279 CURVE SMOOTH",
"138 279 OFFCURVE",
"154 279 OFFCURVE",
"154 256 CURVE SMOOTH",
"154 175 OFFCURVE",
"56 0 OFFCURVE",
"-43 0 CURVE SMOOTH"
);
}
);
userData = {
com.schriftgestaltung.hints = (
{
horizontal = 1;
options = 0;
place = (
559,
0
);
stem = -2;
type = Tag;
}
);
};
visible = 1;
width = 187;
}
);
leftKerningGroup = hethebrew;
rightKerningGroup = nunhebrew;
unicode = 05E0;
userData = {
com.typemytype.robofont.guides = (
{
angle = 90;
isGlobal = 0;
magnetic = 5;
x = 361;
y = 0;
},
{
angle = 90;
isGlobal = 0;
magnetic = 5;
x = 45;
y = 0;
}
);
};
},
{
color = 5;
glyphname = "samekh-hb";
layers = (
{
anchors = (
{
name = bottom;
position = "{126, 0}";
},
{
name = bottomleft;
position = "{20, 0}";
},
{
name = center;
position = "{168, 100}";
},
{
name = top;
position = "{315, 320}";
},
{
name = topleft;
position = "{20, 320}";
}
);
layerId = "FF2DC345-5101-49B6-97F3-57A040F7C387";
paths = (
{
closed = 1;
nodes = (
"-6 0 OFFCURVE",
"17 26 OFFCURVE",
"40 61 CURVE",
"56 29 OFFCURVE",
"85 0 OFFCURVE",
"135 0 CURVE SMOOTH",
"241 0 OFFCURVE",
"340 79 OFFCURVE",
"340 176 CURVE SMOOTH",
"340 229 OFFCURVE",
"308 279 OFFCURVE",
"218 279 CURVE",
"187 279 OFFCURVE",
"159 270 OFFCURVE",
"134 255 CURVE",
"133 275 OFFCURVE",
"128 279 OFFCURVE",
"96 279 CURVE SMOOTH",
"74 279 OFFCURVE",
"50 279 OFFCURVE",
"43 255 CURVE SMOOTH",
"17 157 OFFCURVE",
"-41 33 OFFCURVE",
"-41 19 CURVE SMOOTH",
"-41 7 OFFCURVE",
"-41 0 OFFCURVE",
"-20 0 CURVE SMOOTH"
);
},
{
closed = 1;
nodes = (
"106 46 OFFCURVE",
"87 79 OFFCURVE",
"87 118 CURVE SMOOTH",
"87 142 OFFCURVE",
"107 230 OFFCURVE",
"187 230 CURVE SMOOTH",
"228 230 OFFCURVE",
"254 213 OFFCURVE",
"254 172 CURVE SMOOTH",
"254 118 OFFCURVE",
"207 46 OFFCURVE",
"137 46 CURVE SMOOTH"
);
}
);
userData = {
com.schriftgestaltung.Glyphs.glyph.rightMetricsKey = "kaf-hb";
com.schriftgestaltung.hints = (
{
horizontal = 1;
options = 0;
origin = (
0,
8
);
stem = -2;
type = Tag;
}
);
};
width = 378;
},
{
anchors = (
{
name = bottom;
position = "{126, 0}";
},
{
name = bottomleft;
position = "{20, 0}";
},
{
name = center;
position = "{168, 120}";
},
{
name = top;
position = "{315, 320}";
},
{
name = topleft;
position = "{20, 320}";
}
);
associatedMasterId = "FF2DC345-5101-49B6-97F3-57A040F7C387";
layerId = "8DC807CE-FB60-45A7-901E-66CDA546909C";
name = "Mar 23, 22, 10:56";
paths = (
{
closed = 1;
nodes = (
"308 279 OFFCURVE",
"340 229 OFFCURVE",
"340 176 CURVE SMOOTH",
"340 172 OFFCURVE",
"340 168 OFFCURVE",
"339 164 CURVE SMOOTH",
"329 58 OFFCURVE",
"223 0 OFFCURVE",
"135 0 CURVE SMOOTH",
"85 0 OFFCURVE",
"56 29 OFFCURVE",
"40 61 CURVE",
"17 26 OFFCURVE",
"-6 0 OFFCURVE",
"-20 0 CURVE SMOOTH",
"-41 0 OFFCURVE",
"-41 7 OFFCURVE",
"-41 19 CURVE SMOOTH",
"-41 33 OFFCURVE",
"17 157 OFFCURVE",
"43 255 CURVE SMOOTH",
"50 278 OFFCURVE",
"71 279 OFFCURVE",
"93 279 CURVE SMOOTH",
"95 279 OFFCURVE",
"95 279 OFFCURVE",
"96 279 CURVE SMOOTH",
"118 279 OFFCURVE",
"134 279 OFFCURVE",
"134 256 CURVE SMOOTH",
"134 256 OFFCURVE",
"134 255 OFFCURVE",
"134 255 CURVE",
"159 270 OFFCURVE",
"187 279 OFFCURVE",
"218 279 CURVE"
);
},
{
closed = 1;
nodes = (
"89 128 OFFCURVE",
"87 120 OFFCURVE",
"87 111 CURVE SMOOTH",
"87 79 OFFCURVE",
"106 46 OFFCURVE",
"137 46 CURVE SMOOTH",
"201 46 OFFCURVE",
"249 108 OFFCURVE",
"254 164 CURVE SMOOTH",
"254 166 OFFCURVE",
"254 169 OFFCURVE",
"254 172 CURVE SMOOTH",
"254 214 OFFCURVE",
"226 228 OFFCURVE",
"201 229 CURVE SMOOTH",
"196 230 OFFCURVE",
"192 230 OFFCURVE",
"187 230 CURVE SMOOTH",
"122 230 OFFCURVE",
"109 192 OFFCURVE",
"91 136 CURVE SMOOTH"
);
}
);
userData = {
com.schriftgestaltung.Glyphs.glyph.rightMetricsKey = "kaf-hb";
com.schriftgestaltung.hints = (
{
horizontal = 1;
options = 0;
origin = (
0,
8
);
stem = -2;
type = Tag;
}
);
};
visible = 1;
width = 378;
}
);
leftKerningGroup = tethebrew;
rightKerningGroup = tethebrew;
unicode = 05E1;
userData = {
com.typemytype.robofont.guides = (
{
angle = 90;
isGlobal = 0;
magnetic = 5;
x = 65;
y = 0;
},
{
angle = 90;
isGlobal = 0;
magnetic = 5;
x = 509;
y = 0;
}
);
};
},
{
color = 5;
glyphname = "ayin-hb";
layers = (
{
anchors = (
{
name = bottom;
position = "{139, 0}";
},
{
name = bottomleft;
position = "{20, 0}";
},
{
name = center;
position = "{188, 178}";
},
{
name = top;
position = "{351, 220}";
},
{
name = topleft;
position = "{20, 220}";
}
);
layerId = "FF2DC345-5101-49B6-97F3-57A040F7C387";
paths = (
{
closed = 1;
nodes = (
"177 0 OFFCURVE",
"372 42 OFFCURVE",
"373 260 CURVE SMOOTH",
"373 275 OFFCURVE",
"362 282 OFFCURVE",
"351 282 CURVE SMOOTH",
"311 282 OFFCURVE",
"273 272 OFFCURVE",
"272 236 CURVE SMOOTH",
"268 91 OFFCURVE",
"201 58 OFFCURVE",
"56 52 CURVE",
"112 110 OFFCURVE",
"154 203 OFFCURVE",
"154 256 CURVE SMOOTH",
"154 279 OFFCURVE",
"138 279 OFFCURVE",
"116 279 CURVE SMOOTH",
"94 279 OFFCURVE",
"70 279 OFFCURVE",
"63 255 CURVE SMOOTH",
"41 175 OFFCURVE",
"0 51 OFFCURVE",
"-50 42 CURVE SMOOTH",
"-61 40 OFFCURVE",
"-71 28 OFFCURVE",
"-71 18 CURVE SMOOTH",
"-71 8 OFFCURVE",
"-63 0 OFFCURVE",
"-43 0 CURVE SMOOTH"
);
}
);
userData = {
com.schriftgestaltung.hints = (
{
horizontal = 1;
options = 0;
place = (
556,
0
);
stem = -2;
type = Tag;
}
);
};
width = 406;
}
);
unicode = 05E2;
userData = {
com.typemytype.robofont.guides = (
{
angle = 0;
isGlobal = 0;
magnetic = 5;
x = 0;
y = 571;
},
{
angle = 90;
isGlobal = 0;
magnetic = 5;
x = 40;
y = 0;
}
);
};
},
{
color = 5;
glyphname = "finalpe-hb";
layers = (
{
anchors = (
{
name = bottom;
position = "{85, 0}";
},
{
name = bottomleft;
position = "{-20, 0}";
},
{
name = center;
position = "{68, 360}";
},
{
name = top;
position = "{189, 520}";
},
{
name = topleft;
position = "{20, 520}";
}
);
layerId = "FF2DC345-5101-49B6-97F3-57A040F7C387";
paths = (
{
closed = 1;
nodes = (
"153 -1 OFFCURVE",
"234 637 OFFCURVE",
"315 664 CURVE SMOOTH",
"322 666 OFFCURVE",
"326 676 OFFCURVE",
"326 685 CURVE SMOOTH",
"326 693 OFFCURVE",
"322 700 OFFCURVE",
"314 700 CURVE SMOOTH",
"270 700 OFFCURVE",
"214 630 OFFCURVE",
"155 480 CURVE",
"109 482 OFFCURVE",
"57 497 OFFCURVE",
"15 497 CURVE SMOOTH",
"-26 497 OFFCURVE",
"-71 487 OFFCURVE",
"-71 432 CURVE SMOOTH",
"-71 395 OFFCURVE",
"-55 341 OFFCURVE",
"-7 341 CURVE SMOOTH",
"9 341 OFFCURVE",
"17 344 OFFCURVE",
"17 356 CURVE SMOOTH",
"17 373 OFFCURVE",
"8 392 OFFCURVE",
"8 412 CURVE SMOOTH",
"8 442 OFFCURVE",
"35 450 OFFCURVE",
"63 450 CURVE SMOOTH",
"88 450 OFFCURVE",
"112 444 OFFCURVE",
"139 440 CURVE",
"71 261 OFFCURVE",
"12 53 OFFCURVE",
"-52 41 CURVE SMOOTH",
"-63 39 OFFCURVE",
"-73 27 OFFCURVE",
"-73 17 CURVE SMOOTH",
"-73 7 OFFCURVE",
"-66 -1 OFFCURVE",
"-46 -1 CURVE SMOOTH"
);
}
);
userData = {
com.schriftgestaltung.Glyphs.glyph.rightMetricsKey = "het-hb";
};
width = 189;
},
{
anchors = (
{
name = bottom;
position = "{85, 0}";
},
{
name = bottomleft;
position = "{-20, 0}";
},
{
name = center;
position = "{225, 249}";
},
{
name = top;
position = "{189, 520}";
},
{
name = topleft;
position = "{20, 520}";
}
);
associatedMasterId = "FF2DC345-5101-49B6-97F3-57A040F7C387";
layerId = "C4AB2826-601C-4FB4-9199-136E3CD02F5E";
name = "Mar 23, 22, 13:20";
paths = (
{
closed = 1;
nodes = (
"313 700 OFFCURVE",
"314 700 OFFCURVE",
"314 700 CURVE SMOOTH",
"323 700 OFFCURVE",
"326 693 OFFCURVE",
"326 685 CURVE SMOOTH",
"326 676 OFFCURVE",
"322 667 OFFCURVE",
"315 664 CURVE SMOOTH",
"232 635 OFFCURVE",
"152 -1 OFFCURVE",
"-46 -1 CURVE SMOOTH",
"-66 -1 OFFCURVE",
"-73 7 OFFCURVE",
"-73 17 CURVE SMOOTH",
"-73 27 OFFCURVE",
"-63 39 OFFCURVE",
"-52 41 CURVE SMOOTH",
"12 53 OFFCURVE",
"71 261 OFFCURVE",
"139 440 CURVE",
"112 444 OFFCURVE",
"88 450 OFFCURVE",
"63 450 CURVE SMOOTH",
"59 450 OFFCURVE",
"55 450 OFFCURVE",
"51 449 CURVE SMOOTH",
"17 446 OFFCURVE",
"8 430 OFFCURVE",
"8 412 CURVE SMOOTH",
"8 394 OFFCURVE",
"16 374 OFFCURVE",
"17 362 CURVE SMOOTH",
"18 349 OFFCURVE",
"19 343 OFFCURVE",
"-2 341 CURVE SMOOTH",
"-4 341 OFFCURVE",
"-5 341 OFFCURVE",
"-7 341 CURVE SMOOTH",
"-42 341 OFFCURVE",
"-65 376 OFFCURVE",
"-69 409 CURVE SMOOTH",
"-70 416 OFFCURVE",
"-71 424 OFFCURVE",
"-71 432 CURVE SMOOTH",
"-71 463 OFFCURVE",
"-59 491 OFFCURVE",
"1 496 CURVE SMOOTH",
"6 497 OFFCURVE",
"10 497 OFFCURVE",
"15 497 CURVE SMOOTH",
"57 497 OFFCURVE",
"109 482 OFFCURVE",
"155 480 CURVE",
"201 595 OFFCURVE",
"251 689 OFFCURVE",
"312 700 CURVE SMOOTH"
);
}
);
userData = {
com.schriftgestaltung.Glyphs.glyph.rightMetricsKey = "het-hb";
};
visible = 1;
width = 189;
}
);
leftKerningGroup = hethebrew;
unicode = 05E3;
userData = {
com.typemytype.robofont.guides = (
{
angle = 0;
isGlobal = 0;
magnetic = 5;
x = 0;
y = 571;
},
{
angle = 90;
isGlobal = 0;
magnetic = 5;
x = 1818;
y = 0;
}
);
};
},
{
color = 5;
glyphname = "pe-hb";
layers = (
{
anchors = (
{
name = bottom;
position = "{147, 0}";
},
{
name = bottomleft;
position = "{21, 0}";
},
{
name = center;
position = "{174, 99}";
},
{
name = top;
position = "{277, 250}";
},
{
name = topleft;
position = "{21, 250}";
}
);
layerId = "FF2DC345-5101-49B6-97F3-57A040F7C387";
paths = (
{
closed = 1;
nodes = (
"-302 -106 OFFCURVE",
"-188 -45 OFFCURVE",
"83 -45 CURVE SMOOTH",
"289 -45 OFFCURVE",
"354 73 OFFCURVE",
"354 154 CURVE SMOOTH",
"354 238 OFFCURVE",
"315 279 OFFCURVE",
"219 279 CURVE SMOOTH",
"184 279 OFFCURVE",
"150 265 OFFCURVE",
"124 248 CURVE",
"125 251 OFFCURVE",
"125 253 OFFCURVE",
"125 256 CURVE SMOOTH",
"125 279 OFFCURVE",
"110 279 OFFCURVE",
"88 279 CURVE SMOOTH",
"65 279 OFFCURVE",
"41 278 OFFCURVE",
"35 254 CURVE SMOOTH",
"7 157 OFFCURVE",
"-13 112 OFFCURVE",
"-13 98 CURVE SMOOTH",
"-13 86 OFFCURVE",
"-13 80 OFFCURVE",
"9 80 CURVE SMOOTH",
"41 80 OFFCURVE",
"87 141 OFFCURVE",
"110 197 CURVE",
"131 214 OFFCURVE",
"163 232 OFFCURVE",
"194 232 CURVE SMOOTH",
"235 232 OFFCURVE",
"268 216 OFFCURVE",
"268 157 CURVE SMOOTH",
"268 64 OFFCURVE",
"175 6 OFFCURVE",
"70 6 CURVE SMOOTH",
"-93 6 OFFCURVE",
"-325 -32 OFFCURVE",
"-325 -94 CURVE SMOOTH",
"-325 -100 OFFCURVE",
"-322 -106 OFFCURVE",
"-317 -106 CURVE SMOOTH"
);
}
);
userData = {
com.schriftgestaltung.Glyphs.glyph.rightMetricsKey = "kaf-hb";
com.schriftgestaltung.hints = (
{
horizontal = 1;
options = 0;
origin = (
0,
24
);
stem = -2;
type = Tag;
}
);
};
width = 387;
}
);
leftKerningGroup = tethebrew;
rightKerningGroup = pehebrew;
unicode = 05E4;
userData = {
com.typemytype.robofont.guides = (
{
angle = 90;
isGlobal = 0;
magnetic = 5;
x = 70;
y = 0;
}
);
};
},
{
color = 5;
glyphname = "finaltsadi-hb";
layers = (
{
anchors = (
{
name = bottom;
position = "{250, 0}";
},
{
name = bottomleft;
position = "{20, 0}";
},
{
name = center;
position = "{250, 260}";
},
{
name = top;
position = "{250, 520}";
},
{
name = topleft;
position = "{20, 520}";
}
);
layerId = "FF2DC345-5101-49B6-97F3-57A040F7C387";
paths = (
{
closed = 1;
nodes = (
"-88 -415 OFFCURVE",
"10 -266 OFFCURVE",
"86 -54 CURVE SMOOTH",
"123 49 OFFCURVE",
"140 116 OFFCURVE",
"149 160 CURVE",
"268 165 OFFCURVE",
"344 245 OFFCURVE",
"344 277 CURVE SMOOTH",
"344 284 OFFCURVE",
"340 289 OFFCURVE",
"330 289 CURVE SMOOTH",
"296 289 OFFCURVE",
"248 239 OFFCURVE",
"175 239 CURVE SMOOTH",
"168 239 OFFCURVE",
"161 239 OFFCURVE",
"156 240 CURVE",
"151 277 OFFCURVE",
"119 279 OFFCURVE",
"99 279 CURVE SMOOTH",
"47 279 OFFCURVE",
"26 243 OFFCURVE",
"26 211 CURVE SMOOTH",
"26 175 OFFCURVE",
"50 172 OFFCURVE",
"50 164 CURVE SMOOTH",
"50 115 OFFCURVE",
"-2 -106 OFFCURVE",
"-75 -261 CURVE SMOOTH",
"-99 -313 OFFCURVE",
"-125 -351 OFFCURVE",
"-149 -375 CURVE SMOOTH",
"-155 -381 OFFCURVE",
"-159 -390 OFFCURVE",
"-159 -398 CURVE SMOOTH",
"-159 -405 OFFCURVE",
"-155 -415 OFFCURVE",
"-143 -415 CURVE SMOOTH"
);
}
);
userData = {
com.schriftgestaltung.hints = (
{
horizontal = 1;
options = 0;
origin = (
0,
34
);
stem = -2;
type = Tag;
}
);
};
width = 344;
},
{
anchors = (
{
name = bottom;
position = "{250, 0}";
},
{
name = bottomleft;
position = "{20, 0}";
},
{
name = center;
position = "{250, 260}";
},
{
name = top;
position = "{250, 520}";
},
{
name = topleft;
position = "{20, 520}";
}
);
associatedMasterId = "FF2DC345-5101-49B6-97F3-57A040F7C387";
layerId = "9232D2A6-D914-441B-B8A2-A00EE0E28460";
name = "Mar 23, 22, 14:51";
paths = (
{
closed = 1;
nodes = (
"-149 -415 OFFCURVE",
"-153 -413 OFFCURVE",
"-155 -409 CURVE SMOOTH",
"-158 -406 OFFCURVE",
"-159 -402 OFFCURVE",
"-159 -398 CURVE SMOOTH",
"-159 -390 OFFCURVE",
"-155 -381 OFFCURVE",
"-149 -375 CURVE SMOOTH",
"-125 -351 OFFCURVE",
"-99 -313 OFFCURVE",
"-75 -261 CURVE SMOOTH",
"-2 -106 OFFCURVE",
"47 116 OFFCURVE",
"50 165 CURVE SMOOTH",
"48 174 OFFCURVE",
"26 174 OFFCURVE",
"26 209 CURVE SMOOTH",
"26 211 OFFCURVE",
"26 214 OFFCURVE",
"26 217 CURVE SMOOTH",
"28 243 OFFCURVE",
"47 279 OFFCURVE",
"99 279 CURVE SMOOTH",
"119 279 OFFCURVE",
"151 277 OFFCURVE",
"156 240 CURVE",
"162 240 OFFCURVE",
"168 239 OFFCURVE",
"175 239 CURVE SMOOTH",
"202 239 OFFCURVE",
"239 246 OFFCURVE",
"286 273 CURVE SMOOTH",
"306 284 OFFCURVE",
"321 289 OFFCURVE",
"330 289 CURVE SMOOTH",
"340 289 OFFCURVE",
"344 284 OFFCURVE",
"344 277 CURVE SMOOTH",
"344 245 OFFCURVE",
"268 165 OFFCURVE",
"149 160 CURVE",
"140 116 OFFCURVE",
"123 49 OFFCURVE",
"86 -54 CURVE SMOOTH",
"20 -238 OFFCURVE",
"-65 -382 OFFCURVE",
"-125 -410 CURVE SMOOTH",
"-132 -414 OFFCURVE",
"-138 -415 OFFCURVE",
"-143 -415 CURVE SMOOTH"
);
}
);
userData = {
com.schriftgestaltung.hints = (
{
horizontal = 1;
options = 0;
origin = (
0,
34
);
stem = -2;
type = Tag;
}
);
};
visible = 1;
width = 344;
}
);
unicode = 05E5;
userData = {
com.typemytype.robofont.guides = (
{
angle = 0;
isGlobal = 0;
magnetic = 5;
x = 0;
y = 571;
},
{
angle = 0;
isGlobal = 0;
magnetic = 5;
x = 0;
y = "-124";
},
{
angle = 90;
isGlobal = 0;
magnetic = 5;
x = 28;
y = 0;
},
{
angle = 90;
isGlobal = 0;
magnetic = 5;
x = 431;
y = 0;
}
);
};
},
{
color = 5;
glyphname = "tsadi-hb";
layers = (
{
anchors = (
{
name = bottom;
position = "{128, 0}";
},
{
name = bottomleft;
position = "{20, 0}";
},
{
name = center;
position = "{51, 424}";
},
{
name = top;
position = "{225, 520}";
},
{
name = topleft;
position = "{-60, 520}";
}
);
layerId = "FF2DC345-5101-49B6-97F3-57A040F7C387";
paths = (
{
closed = 1;
nodes = (
"64 0 OFFCURVE",
"198 107 OFFCURVE",
"252 281 CURVE",
"355 319 OFFCURVE",
"470 400 OFFCURVE",
"588 542 CURVE SMOOTH",
"593 548 OFFCURVE",
"595 556 OFFCURVE",
"595 562 CURVE SMOOTH",
"595 572 OFFCURVE",
"590 580 OFFCURVE",
"579 580 CURVE SMOOTH",
"569 580 OFFCURVE",
"553 572 OFFCURVE",
"532 551 CURVE SMOOTH",
"442 455 OFFCURVE",
"352 393 OFFCURVE",
"270 357 CURVE",
"274 383 OFFCURVE",
"276 410 OFFCURVE",
"276 439 CURVE SMOOTH",
"276 538 OFFCURVE",
"215 656 OFFCURVE",
"85 656 CURVE SMOOTH",
"-39 656 OFFCURVE",
"-140 587 OFFCURVE",
"-140 455 CURVE SMOOTH",
"-140 352 OFFCURVE",
"-42 253 OFFCURVE",
"109 253 CURVE SMOOTH",
"125 253 OFFCURVE",
"141 254 OFFCURVE",
"158 256 CURVE",
"107 102 OFFCURVE",
"5 54 OFFCURVE",
"-19 36 CURVE SMOOTH",
"-24 32 OFFCURVE",
"-37 26 OFFCURVE",
"-37 14 CURVE SMOOTH",
"-37 5 OFFCURVE",
"-31 0 OFFCURVE",
"-22 0 CURVE SMOOTH"
);
},
{
closed = 1;
nodes = (
"-16 317 OFFCURVE",
"-91 378 OFFCURVE",
"-91 460 CURVE SMOOTH",
"-91 528 OFFCURVE",
"-37 610 OFFCURVE",
"59 610 CURVE SMOOTH",
"134 610 OFFCURVE",
"186 545 OFFCURVE",
"186 450 CURVE SMOOTH",
"186 404 OFFCURVE",
"182 363 OFFCURVE",
"176 326 CURVE",
"148 320 OFFCURVE",
"121 317 OFFCURVE",
"97 317 CURVE SMOOTH"
);
}
);
userData = {
com.schriftgestaltung.hints = (
{
horizontal = 1;
options = 0;
origin = (
0,
11
);
stem = -2;
type = Tag;
}
);
};
width = 257;
},
{
anchors = (
{
name = bottom;
position = "{128, 0}";
},
{
name = bottomleft;
position = "{20, 0}";
},
{
name = center;
position = "{70, 412}";
},
{
name = top;
position = "{225, 520}";
},
{
name = topleft;
position = "{-60, 520}";
}
);
associatedMasterId = "FF2DC345-5101-49B6-97F3-57A040F7C387";
layerId = "A3D0B46B-0879-4F6D-AFFC-D40569559D6C";
name = "Mar 23, 22, 17:13";
paths = (
{
closed = 1;
nodes = (
"75 656 OFFCURVE",
"80 656 OFFCURVE",
"85 656 CURVE SMOOTH",
"215 656 OFFCURVE",
"276 538 OFFCURVE",
"276 439 CURVE SMOOTH",
"276 410 OFFCURVE",
"274 383 OFFCURVE",
"270 357 CURVE",
"352 393 OFFCURVE",
"442 455 OFFCURVE",
"532 551 CURVE SMOOTH",
"553 572 OFFCURVE",
"569 580 OFFCURVE",
"579 580 CURVE SMOOTH",
"590 580 OFFCURVE",
"595 572 OFFCURVE",
"595 562 CURVE SMOOTH",
"595 556 OFFCURVE",
"593 548 OFFCURVE",
"588 542 CURVE SMOOTH",
"470 400 OFFCURVE",
"355 319 OFFCURVE",
"252 281 CURVE",
"198 107 OFFCURVE",
"64 0 OFFCURVE",
"-22 0 CURVE SMOOTH",
"-31 0 OFFCURVE",
"-37 5 OFFCURVE",
"-37 14 CURVE SMOOTH",
"-37 26 OFFCURVE",
"-23 31 OFFCURVE",
"-19 36 CURVE SMOOTH",
"3 56 OFFCURVE",
"107 102 OFFCURVE",
"158 256 CURVE",
"141 254 OFFCURVE",
"125 253 OFFCURVE",
"109 253 CURVE SMOOTH",
"-42 253 OFFCURVE",
"-140 352 OFFCURVE",
"-140 455 CURVE SMOOTH",
"-140 457 OFFCURVE",
"-140 460 OFFCURVE",
"-140 463 CURVE SMOOTH",
"-134 577 OFFCURVE",
"-59 647 OFFCURVE",
"70 656 CURVE SMOOTH"
);
},
{
closed = 1;
nodes = (
"182 363 OFFCURVE",
"186 404 OFFCURVE",
"186 450 CURVE SMOOTH",
"186 545 OFFCURVE",
"134 610 OFFCURVE",
"59 610 CURVE SMOOTH",
"-29 610 OFFCURVE",
"-85 542 OFFCURVE",
"-90 471 CURVE SMOOTH",
"-90 467 OFFCURVE",
"-91 464 OFFCURVE",
"-91 460 CURVE SMOOTH",
"-91 378 OFFCURVE",
"-16 317 OFFCURVE",
"97 317 CURVE SMOOTH",
"121 317 OFFCURVE",
"148 320 OFFCURVE",
"176 326 CURVE"
);
}
);
userData = {
com.schriftgestaltung.hints = (
{
horizontal = 1;
options = 0;
origin = (
0,
11
);
stem = -2;
type = Tag;
}
);
};
visible = 1;
width = 257;
}
);
leftKerningGroup = tsadihebrew;
rightKerningGroup = tsadihebrew;
unicode = 05E6;
userData = {
com.typemytype.robofont.guides = (
{
angle = 90;
isGlobal = 0;
magnetic = 5;
x = 27;
y = 0;
}
);
};
},
{
color = 5;
glyphname = "qof-hb";
layers = (
{
anchors = (
{
name = bottom;
position = "{86, 0}";
},
{
name = bottomleft;
position = "{20, 0}";
},
{
name = center;
position = "{-39, 100}";
},
{
name = top;
position = "{169, 240}";
},
{
name = topleft;
position = "{40, 190}";
}
);
layerId = "FF2DC345-5101-49B6-97F3-57A040F7C387";
paths = (
{
closed = 1;
nodes = (
"-216 -413 OFFCURVE",
"-96 -22 OFFCURVE",
"1 0 CURVE SMOOTH",
"107 24 OFFCURVE",
"156 112 OFFCURVE",
"156 224 CURVE SMOOTH",
"156 238 OFFCURVE",
"144 245 OFFCURVE",
"132 245 CURVE SMOOTH",
"92 245 OFFCURVE",
"55 235 OFFCURVE",
"55 199 CURVE SMOOTH",
"55 93 OFFCURVE",
"20 57 OFFCURVE",
"-33 36 CURVE SMOOTH",
"-110 5 OFFCURVE",
"-186 -152 OFFCURVE",
"-268 -277 CURVE SMOOTH",
"-278 -293 OFFCURVE",
"-280 -293 OFFCURVE",
"-297 -293 CURVE SMOOTH",
"-324 -293 OFFCURVE",
"-354 -332 OFFCURVE",
"-354 -373 CURVE SMOOTH",
"-354 -394 OFFCURVE",
"-338 -413 OFFCURVE",
"-317 -413 CURVE SMOOTH"
);
}
);
userData = {
com.schriftgestaltung.hints = (
{
horizontal = 1;
options = 0;
place = (
513,
0
);
stem = -2;
type = Tag;
}
);
};
width = 189;
}
);
leftKerningGroup = lamedhebrew;
rightKerningGroup = vavhebrew;
unicode = 05E7;
userData = {
com.typemytype.robofont.guides = (
{
angle = 0;
isGlobal = 0;
magnetic = 5;
x = 0;
y = "-191";
},
{
angle = 90;
isGlobal = 0;
magnetic = 5;
x = 70;
y = 0;
},
{
angle = 90;
isGlobal = 0;
magnetic = 5;
x = 516;
y = 0;
},
{
angle = 90;
isGlobal = 0;
magnetic = 5;
x = 70;
y = 0;
}
);
};
},
{
color = 5;
glyphname = "resh-hb";
layers = (
{
anchors = (
{
name = bottom;
position = "{90, 0}";
},
{
name = bottomleft;
position = "{-59, 0}";
},
{
name = center;
position = "{63, 454}";
},
{
name = top;
position = "{209, 650}";
},
{
name = topleft;
position = "{-21, 650}";
}
);
layerId = "FF2DC345-5101-49B6-97F3-57A040F7C387";
paths = (
{
closed = 1;
nodes = (
"108 0 OFFCURVE",
"283 225 OFFCURVE",
"283 490 CURVE SMOOTH",
"283 592 OFFCURVE",
"227 672 OFFCURVE",
"96 672 CURVE SMOOTH",
"-33 672 OFFCURVE",
"-142 581 OFFCURVE",
"-142 455 CURVE SMOOTH",
"-142 369 OFFCURVE",
"-65 309 OFFCURVE",
"29 309 CURVE SMOOTH",
"114 309 OFFCURVE",
"154 343 OFFCURVE",
"154 351 CURVE SMOOTH",
"154 359 OFFCURVE",
"147 362 OFFCURVE",
"134 362 CURVE SMOOTH",
"110 362 OFFCURVE",
"88 355 OFFCURVE",
"61 355 CURVE SMOOTH",
"-19 355 OFFCURVE",
"-70 400 OFFCURVE",
"-70 465 CURVE SMOOTH",
"-70 554 OFFCURVE",
"-10 632 OFFCURVE",
"79 632 CURVE SMOOTH",
"144 632 OFFCURVE",
"186 588 OFFCURVE",
"186 498 CURVE SMOOTH",
"186 183 OFFCURVE",
"30 61 OFFCURVE",
"0 36 CURVE SMOOTH",
"-6 31 OFFCURVE",
"-17 23 OFFCURVE",
"-17 14 CURVE SMOOTH",
"-17 5 OFFCURVE",
"-11 0 OFFCURVE",
"-2 0 CURVE SMOOTH"
);
}
);
userData = {
com.schriftgestaltung.Glyphs.glyph.rightMetricsKey = "het-hb";
com.schriftgestaltung.hints = (
{
horizontal = 1;
options = 0;
origin = (
0,
12
);
stem = -2;
type = Tag;
}
);
};
width = 274;
},
{
anchors = (
{
name = bottom;
position = "{90, 0}";
},
{
name = bottomleft;
position = "{-59, 0}";
},
{
name = center;
position = "{63, 434}";
},
{
name = top;
position = "{209, 650}";
},
{
name = topleft;
position = "{-21, 650}";
}
);
associatedMasterId = "FF2DC345-5101-49B6-97F3-57A040F7C387";
layerId = "38C1D795-E407-4634-A532-81E1CA2881FC";
name = "Mar 23, 22, 20:20";
paths = (
{
closed = 1;
nodes = (
"98 672 OFFCURVE",
"101 672 OFFCURVE",
"103 672 CURVE SMOOTH",
"223 672 OFFCURVE",
"283 594 OFFCURVE",
"283 490 CURVE SMOOTH",
"283 225 OFFCURVE",
"108 0 OFFCURVE",
"-2 0 CURVE SMOOTH",
"-11 0 OFFCURVE",
"-17 5 OFFCURVE",
"-17 14 CURVE SMOOTH",
"-17 26 OFFCURVE",
"-3 31 OFFCURVE",
"1 36 CURVE SMOOTH",
"30 63 OFFCURVE",
"186 183 OFFCURVE",
"186 498 CURVE SMOOTH",
"186 588 OFFCURVE",
"144 632 OFFCURVE",
"79 632 CURVE SMOOTH",
"-10 632 OFFCURVE",
"-70 554 OFFCURVE",
"-70 465 CURVE SMOOTH",
"-70 400 OFFCURVE",
"-19 355 OFFCURVE",
"61 355 CURVE SMOOTH",
"70 355 OFFCURVE",
"81 356 OFFCURVE",
"91 357 CURVE SMOOTH",
"106 359 OFFCURVE",
"118 360 OFFCURVE",
"127 360 CURVE SMOOTH",
"147 360 OFFCURVE",
"154 356 OFFCURVE",
"154 351 CURVE SMOOTH",
"154 346 OFFCURVE",
"146 339 OFFCURVE",
"134 333 CURVE SMOOTH",
"98 316 OFFCURVE",
"63 309 OFFCURVE",
"29 309 CURVE SMOOTH",
"-65 309 OFFCURVE",
"-142 369 OFFCURVE",
"-142 455 CURVE SMOOTH",
"-142 581 OFFCURVE",
"-33 669 OFFCURVE",
"96 672 CURVE SMOOTH"
);
}
);
userData = {
com.schriftgestaltung.Glyphs.glyph.rightMetricsKey = "het-hb";
com.schriftgestaltung.hints = (
{
horizontal = 1;
options = 0;
origin = (
0,
12
);
stem = -2;
type = Tag;
}
);
};
visible = 1;
width = 274;
}
);
leftKerningGroup = hethebrew;
unicode = 05E8;
userData = {
com.typemytype.robofont.guides = (
{
angle = 0;
isGlobal = 0;
magnetic = 5;
x = 0;
y = 571;
},
{
angle = 90;
isGlobal = 0;
magnetic = 5;
x = 40;
y = 0;
},
{
angle = 90;
isGlobal = 0;
magnetic = 5;
x = 436;
y = 0;
}
);
};
},
{
color = 5;
glyphname = "shin-hb";
layers = (
{
anchors = (
{
name = bottom;
position = "{149, 0}";
},
{
name = bottomleft;
position = "{16, 0}";
},
{
name = center;
position = "{213, 100}";
},
{
name = top;
position = "{247, 262}";
},
{
name = topleft;
position = "{107, 356}";
},
{
name = topright;
position = "{386, 277}";
}
);
layerId = "FF2DC345-5101-49B6-97F3-57A040F7C387";
paths = (
{
closed = 1;
nodes = (
"-12 0 OFFCURVE",
"18 17 OFFCURVE",
"46 43 CURVE",
"59 25 OFFCURVE",
"92 0 OFFCURVE",
"174 0 CURVE SMOOTH",
"316 0 OFFCURVE",
"426 85 OFFCURVE",
"426 205 CURVE SMOOTH",
"426 219 OFFCURVE",
"415 226 OFFCURVE",
"404 226 CURVE SMOOTH",
"364 226 OFFCURVE",
"325 216 OFFCURVE",
"325 180 CURVE SMOOTH",
"324 80 OFFCURVE",
"231 48 OFFCURVE",
"158 48 CURVE SMOOTH",
"112 48 OFFCURVE",
"90 63 OFFCURVE",
"75 75 CURVE",
"105 112 OFFCURVE",
"130 158 OFFCURVE",
"143 198 CURVE",
"237 203 OFFCURVE",
"297 270 OFFCURVE",
"297 300 CURVE SMOOTH",
"297 308 OFFCURVE",
"293 314 OFFCURVE",
"283 314 CURVE SMOOTH",
"256 314 OFFCURVE",
"224 278 OFFCURVE",
"171 277 CURVE SMOOTH",
"168 277 OFFCURVE",
"166 277 OFFCURVE",
"164 278 CURVE",
"159 314 OFFCURVE",
"127 316 OFFCURVE",
"107 316 CURVE SMOOTH",
"55 316 OFFCURVE",
"34 277 OFFCURVE",
"34 245 CURVE SMOOTH",
"34 216 OFFCURVE",
"47 211 OFFCURVE",
"53 206 CURVE",
"32 144 OFFCURVE",
"2 77 OFFCURVE",
"-30 52 CURVE SMOOTH",
"-36 47 OFFCURVE",
"-43 44 OFFCURVE",
"-50 42 CURVE SMOOTH",
"-61 40 OFFCURVE",
"-71 28 OFFCURVE",
"-71 18 CURVE SMOOTH",
"-71 5 OFFCURVE",
"-58 0 OFFCURVE",
"-43 0 CURVE SMOOTH"
);
}
);
userData = {
com.schriftgestaltung.Glyphs.glyph.leftMetricsKey = "het-hb";
com.schriftgestaltung.Glyphs.glyph.rightMetricsKey = "het-hb";
com.schriftgestaltung.hints = (
{
horizontal = 1;
options = 0;
origin = (
0,
4
);
stem = -2;
type = Tag;
}
);
};
width = 460;
},
{
anchors = (
{
name = bottom;
position = "{359, 0}";
},
{
name = bottomleft;
position = "{16, 0}";
},
{
name = center;
position = "{472, 260}";
},
{
name = top;
position = "{367, 520}";
},
{
name = topleft;
position = "{8, 520}";
},
{
name = topright;
position = "{693, 520}";
}
);
associatedMasterId = "FF2DC345-5101-49B6-97F3-57A040F7C387";
layerId = "E7622956-0AD4-499B-A960-AABF6CB408D9";
name = "Mar 23, 22, 21:05";
paths = (
{
closed = 1;
nodes = (
"237 54 OFFCURVE",
"324 82 OFFCURVE",
"325 180 CURVE SMOOTH",
"325 216 OFFCURVE",
"364 226 OFFCURVE",
"404 226 CURVE SMOOTH",
"415 226 OFFCURVE",
"426 219 OFFCURVE",
"426 205 CURVE SMOOTH",
"426 85 OFFCURVE",
"316 0 OFFCURVE",
"174 0 CURVE SMOOTH",
"92 0 OFFCURVE",
"59 25 OFFCURVE",
"46 43 CURVE",
"18 17 OFFCURVE",
"-12 0 OFFCURVE",
"-43 0 CURVE SMOOTH",
"-61 0 OFFCURVE",
"-69 6 OFFCURVE",
"-70 14 CURVE SMOOTH",
"-71 15 OFFCURVE",
"-71 16 OFFCURVE",
"-71 18 CURVE SMOOTH",
"-71 28 OFFCURVE",
"-61 40 OFFCURVE",
"-50 42 CURVE SMOOTH",
"-43 44 OFFCURVE",
"-36 47 OFFCURVE",
"-30 52 CURVE SMOOTH",
"2 77 OFFCURVE",
"32 144 OFFCURVE",
"53 206 CURVE",
"47 211 OFFCURVE",
"34 216 OFFCURVE",
"34 245 CURVE SMOOTH",
"34 247 OFFCURVE",
"34 250 OFFCURVE",
"35 254 CURVE SMOOTH",
"37 280 OFFCURVE",
"56 316 OFFCURVE",
"107 316 CURVE SMOOTH",
"127 316 OFFCURVE",
"159 314 OFFCURVE",
"164 278 CURVE",
"166 277 OFFCURVE",
"168 277 OFFCURVE",
"171 277 CURVE SMOOTH",
"188 277 OFFCURVE",
"212 282 OFFCURVE",
"243 299 CURVE SMOOTH",
"260 309 OFFCURVE",
"274 314 OFFCURVE",
"283 314 CURVE SMOOTH",
"293 314 OFFCURVE",
"297 308 OFFCURVE",
"297 300 CURVE SMOOTH",
"297 270 OFFCURVE",
"237 203 OFFCURVE",
"143 198 CURVE",
"130 158 OFFCURVE",
"105 112 OFFCURVE",
"75 75 CURVE",
"90 63 OFFCURVE",
"112 48 OFFCURVE",
"158 48 CURVE SMOOTH",
"164 48 OFFCURVE",
"171 48 OFFCURVE",
"179 49 CURVE SMOOTH"
);
}
);
userData = {
com.schriftgestaltung.Glyphs.glyph.leftMetricsKey = "het-hb";
com.schriftgestaltung.Glyphs.glyph.rightMetricsKey = "het-hb";
com.schriftgestaltung.hints = (
{
horizontal = 1;
options = 0;
origin = (
0,
4
);
stem = -2;
type = Tag;
}
);
};
visible = 1;
width = 460;
}
);
leftKerningGroup = lamedhebrew;
rightKerningGroup = shinhebrew;
unicode = 05E9;
userData = {
com.typemytype.robofont.guides = (
{
angle = 0;
isGlobal = 0;
magnetic = 5;
x = 0;
y = 952;
},
{
angle = 0;
isGlobal = 0;
magnetic = 5;
x = 0;
y = 571;
}
);
};
},
{
color = 5;
glyphname = "tav-hb";
layers = (
{
anchors = (
{
name = bottom;
position = "{190, 0}";
},
{
name = bottomleft;
position = "{10, 0}";
},
{
name = center;
position = "{170, 126}";
},
{
name = top;
position = "{300, 248}";
},
{
name = topleft;
position = "{52, 152}";
}
);
layerId = "FF2DC345-5101-49B6-97F3-57A040F7C387";
paths = (
{
closed = 1;
nodes = (
"-186 -414 OFFCURVE",
"25 -143 OFFCURVE",
"82 40 CURVE",
"94 27 OFFCURVE",
"119 20 OFFCURVE",
"147 20 CURVE SMOOTH",
"263 20 OFFCURVE",
"371 144 OFFCURVE",
"371 264 CURVE SMOOTH",
"371 278 OFFCURVE",
"359 285 OFFCURVE",
"348 285 CURVE SMOOTH",
"308 285 OFFCURVE",
"269 275 OFFCURVE",
"269 239 CURVE SMOOTH",
"269 152 OFFCURVE",
"233 66 OFFCURVE",
"149 66 CURVE SMOOTH",
"122 66 OFFCURVE",
"106 75 OFFCURVE",
"99 101 CURVE SMOOTH",
"94 119 OFFCURVE",
"74 127 OFFCURVE",
"54 127 CURVE SMOOTH",
"32 127 OFFCURVE",
"11 118 OFFCURVE",
"7 101 CURVE SMOOTH",
"-48 -116 OFFCURVE",
"-258 -358 OFFCURVE",
"-493 -358 CURVE SMOOTH",
"-586 -358 OFFCURVE",
"-633 -298 OFFCURVE",
"-633 -227 CURVE SMOOTH",
"-633 -176 OFFCURVE",
"-608 -120 OFFCURVE",
"-556 -78 CURVE SMOOTH",
"-535 -60 OFFCURVE",
"-526 -46 OFFCURVE",
"-526 -36 CURVE SMOOTH",
"-526 -28 OFFCURVE",
"-533 -23 OFFCURVE",
"-543 -23 CURVE SMOOTH",
"-557 -23 OFFCURVE",
"-577 -31 OFFCURVE",
"-599 -48 CURVE SMOOTH",
"-672 -107 OFFCURVE",
"-705 -176 OFFCURVE",
"-705 -238 CURVE SMOOTH",
"-705 -334 OFFCURVE",
"-628 -414 OFFCURVE",
"-503 -414 CURVE SMOOTH"
);
}
);
userData = {
com.schriftgestaltung.Glyphs.glyph.rightMetricsKey = "het-hb";
com.schriftgestaltung.hints = (
{
horizontal = 1;
options = 0;
place = (
513,
0
);
stem = -2;
type = Tag;
}
);
};
width = 404;
}
);
leftKerningGroup = hethebrew;
rightKerningGroup = tavhebrew;
unicode = 05EA;
userData = {
com.typemytype.robofont.guides = (
{
angle = 0;
isGlobal = 0;
magnetic = 5;
x = 0;
y = 571;
},
{
angle = 90;
isGlobal = 0;
magnetic = 5;
x = 576;
y = 0;
},
{
angle = 90;
isGlobal = 0;
magnetic = 5;
x = 50;
y = 0;
}
);
};
},
{
color = 2;
export = 0;
glyphname = uni05D0.alt;
layers = (
{
layerId = "FF2DC345-5101-49B6-97F3-57A040F7C387";
paths = (
{
closed = 1;
nodes = (
"143 -1 OFFCURVE",
"223 635 OFFCURVE",
"306 664 CURVE SMOOTH",
"313 667 OFFCURVE",
"317 676 OFFCURVE",
"317 685 CURVE SMOOTH",
"317 693 OFFCURVE",
"313 700 OFFCURVE",
"305 700 CURVE SMOOTH",
"305 700 OFFCURVE",
"304 700 OFFCURVE",
"303 700 CURVE SMOOTH",
"144 672 OFFCURVE",
"51 61 OFFCURVE",
"-61 41 CURVE SMOOTH",
"-73 39 OFFCURVE",
"-82 27 OFFCURVE",
"-82 17 CURVE SMOOTH",
"-82 7 OFFCURVE",
"-75 -1 OFFCURVE",
"-55 -1 CURVE SMOOTH"
);
}
);
width = 156;
}
);
},
{
color = 2;
export = 0;
glyphname = uni05D1.alt;
layers = (
{
layerId = "FF2DC345-5101-49B6-97F3-57A040F7C387";
paths = (
{
closed = 1;
nodes = (
"166 0 OFFCURVE",
"261 57 OFFCURVE",
"269 156 CURVE SMOOTH",
"270 166 OFFCURVE",
"271 176 OFFCURVE",
"271 184 CURVE SMOOTH",
"271 265 OFFCURVE",
"234 283 OFFCURVE",
"189 283 CURVE SMOOTH",
"155 283 OFFCURVE",
"116 272 OFFCURVE",
"85 272 CURVE SMOOTH",
"84 272 OFFCURVE",
"83 272 OFFCURVE",
"83 272 CURVE SMOOTH",
"35 272 OFFCURVE",
"37 296 OFFCURVE",
"11 296 CURVE SMOOTH",
"7 296 OFFCURVE",
"1 296 OFFCURVE",
"-6 294 CURVE SMOOTH",
"-24 289 OFFCURVE",
"-37 272 OFFCURVE",
"-37 254 CURVE SMOOTH",
"-37 235 OFFCURVE",
"-20 216 OFFCURVE",
"28 216 CURVE SMOOTH",
"35 216 OFFCURVE",
"42 216 OFFCURVE",
"50 217 CURVE SMOOTH",
"87 221 OFFCURVE",
"119 229 OFFCURVE",
"143 229 CURVE SMOOTH",
"170 229 OFFCURVE",
"186 219 OFFCURVE",
"186 182 CURVE SMOOTH",
"186 175 OFFCURVE",
"185 167 OFFCURVE",
"184 157 CURVE SMOOTH",
"174 89 OFFCURVE",
"128 56 OFFCURVE",
"67 51 CURVE SMOOTH",
"63 51 OFFCURVE",
"59 51 OFFCURVE",
"55 51 CURVE SMOOTH",
"-2 51 OFFCURVE",
"-42 81 OFFCURVE",
"-57 86 CURVE SMOOTH",
"-60 87 OFFCURVE",
"-63 87 OFFCURVE",
"-66 87 CURVE SMOOTH",
"-74 87 OFFCURVE",
"-78 83 OFFCURVE",
"-78 76 CURVE SMOOTH",
"-78 52 OFFCURVE",
"-32 0 OFFCURVE",
"66 0 CURVE SMOOTH"
);
}
);
width = 305;
}
);
},
{
color = 2;
export = 0;
glyphname = uni05D2.alt;
layers = (
{
layerId = "FF2DC345-5101-49B6-97F3-57A040F7C387";
paths = (
{
closed = 1;
nodes = (
"-174 -87 OFFCURVE",
"-158 -86 OFFCURVE",
"-140 -83 CURVE SMOOTH",
"-87 -77 OFFCURVE",
"-59 -53 OFFCURVE",
"7 -46 CURVE SMOOTH",
"16 -45 OFFCURVE",
"25 -44 OFFCURVE",
"36 -44 CURVE SMOOTH",
"72 -44 OFFCURVE",
"116 -49 OFFCURVE",
"147 -49 CURVE SMOOTH",
"263 -49 OFFCURVE",
"372 102 OFFCURVE",
"372 223 CURVE SMOOTH",
"372 237 OFFCURVE",
"361 244 OFFCURVE",
"349 244 CURVE SMOOTH",
"309 244 OFFCURVE",
"270 234 OFFCURVE",
"270 198 CURVE SMOOTH",
"270 111 OFFCURVE",
"232 2 OFFCURVE",
"148 2 CURVE SMOOTH",
"112 2 OFFCURVE",
"69 9 OFFCURVE",
"21 9 CURVE SMOOTH",
"10 9 OFFCURVE",
"-1 9 OFFCURVE",
"-12 8 CURVE SMOOTH",
"-135 -1 OFFCURVE",
"-143 -39 OFFCURVE",
"-239 -39 CURVE SMOOTH",
"-255 -39 OFFCURVE",
"-273 -38 OFFCURVE",
"-295 -35 CURVE SMOOTH",
"-296 -35 OFFCURVE",
"-297 -35 OFFCURVE",
"-297 -35 CURVE SMOOTH",
"-304 -35 OFFCURVE",
"-306 -39 OFFCURVE",
"-306 -43 CURVE SMOOTH",
"-306 -44 OFFCURVE",
"-306 -45 OFFCURVE",
"-306 -46 CURVE SMOOTH",
"-303 -65 OFFCURVE",
"-259 -87 OFFCURVE",
"-189 -87 CURVE SMOOTH"
);
}
);
width = 405;
}
);
},
{
color = 2;
export = 0;
glyphname = uni05D3.alt;
layers = (
{
layerId = "FF2DC345-5101-49B6-97F3-57A040F7C387";
paths = (
{
closed = 1;
nodes = (
"235 0 OFFCURVE",
"294 87 OFFCURVE",
"301 180 CURVE SMOOTH",
"301 187 OFFCURVE",
"301 193 OFFCURVE",
"301 199 CURVE SMOOTH",
"301 284 OFFCURVE",
"254 304 OFFCURVE",
"202 304 CURVE SMOOTH",
"159 304 OFFCURVE",
"112 291 OFFCURVE",
"83 290 CURVE SMOOTH",
"82 290 OFFCURVE",
"81 290 OFFCURVE",
"80 290 CURVE SMOOTH",
"14 290 OFFCURVE",
"15 314 OFFCURVE",
"-11 314 CURVE SMOOTH",
"-15 314 OFFCURVE",
"-21 313 OFFCURVE",
"-28 312 CURVE SMOOTH",
"-46 307 OFFCURVE",
"-59 289 OFFCURVE",
"-59 272 CURVE SMOOTH",
"-59 251 OFFCURVE",
"-41 231 OFFCURVE",
"7 231 CURVE SMOOTH",
"14 231 OFFCURVE",
"21 232 OFFCURVE",
"29 233 CURVE SMOOTH",
"70 237 OFFCURVE",
"117 252 OFFCURVE",
"153 252 CURVE SMOOTH",
"187 252 OFFCURVE",
"211 238 OFFCURVE",
"211 190 CURVE SMOOTH",
"211 184 OFFCURVE",
"211 177 OFFCURVE",
"210 170 CURVE SMOOTH",
"203 98 OFFCURVE",
"174 50 OFFCURVE",
"129 42 CURVE SMOOTH",
"118 40 OFFCURVE",
"108 28 OFFCURVE",
"108 18 CURVE SMOOTH",
"108 8 OFFCURVE",
"116 0 OFFCURVE",
"136 0 CURVE SMOOTH"
);
}
);
width = 333;
}
);
},
{
color = 2;
export = 0;
glyphname = uni05D4.alt;
layers = (
{
layerId = "FF2DC345-5101-49B6-97F3-57A040F7C387";
paths = (
{
closed = 1;
nodes = (
"13 -47 OFFCURVE",
"22 -45 OFFCURVE",
"29 -42 CURVE SMOOTH",
"39 -39 OFFCURVE",
"42 -31 OFFCURVE",
"42 -24 CURVE SMOOTH",
"42 -19 OFFCURVE",
"41 -14 OFFCURVE",
"39 -10 CURVE SMOOTH",
"35 -1 OFFCURVE",
"33 8 OFFCURVE",
"33 15 CURVE SMOOTH",
"33 78 OFFCURVE",
"167 91 OFFCURVE",
"167 246 CURVE SMOOTH",
"167 254 OFFCURVE",
"166 262 OFFCURVE",
"166 271 CURVE SMOOTH",
"164 285 OFFCURVE",
"153 291 OFFCURVE",
"143 291 CURVE SMOOTH",
"142 291 OFFCURVE",
"141 291 OFFCURVE",
"140 290 CURVE SMOOTH",
"102 287 OFFCURVE",
"70 277 OFFCURVE",
"70 245 CURVE SMOOTH",
"70 243 OFFCURVE",
"70 242 OFFCURVE",
"70 240 CURVE SMOOTH",
"71 234 OFFCURVE",
"71 228 OFFCURVE",
"71 222 CURVE SMOOTH",
"71 95 OFFCURVE",
"-51 80 OFFCURVE",
"-51 15 CURVE SMOOTH",
"-51 3 OFFCURVE",
"-46 -10 OFFCURVE",
"-37 -27 CURVE SMOOTH",
"-28 -42 OFFCURVE",
"-12 -47 OFFCURVE",
"3 -47 CURVE SMOOTH"
);
}
);
width = 200;
}
);
},
{
color = 2;
export = 0;
glyphname = uni05D5.alt;
layers = (
{
layerId = "FF2DC345-5101-49B6-97F3-57A040F7C387";
paths = (
{
closed = 1;
nodes = (
"-40 -39 OFFCURVE",
"-40 -39 OFFCURVE",
"-39 -39 CURVE SMOOTH",
"22 -39 OFFCURVE",
"249 514 OFFCURVE",
"259 597 CURVE SMOOTH",
"260 598 OFFCURVE",
"260 600 OFFCURVE",
"260 602 CURVE SMOOTH",
"260 620 OFFCURVE",
"245 621 OFFCURVE",
"225 623 CURVE SMOOTH",
"224 623 OFFCURVE",
"224 623 OFFCURVE",
"223 623 CURVE SMOOTH",
"217 624 OFFCURVE",
"211 624 OFFCURVE",
"206 624 CURVE SMOOTH",
"192 624 OFFCURVE",
"180 620 OFFCURVE",
"175 603 CURVE SMOOTH",
"99 356 OFFCURVE",
"-54 4 OFFCURVE",
"-58 -17 CURVE SMOOTH",
"-58 -20 OFFCURVE",
"-59 -23 OFFCURVE",
"-59 -26 CURVE SMOOTH",
"-59 -33 OFFCURVE",
"-55 -37 OFFCURVE",
"-40 -39 CURVE SMOOTH"
);
}
);
width = 154;
}
);
},
{
color = 2;
export = 0;
glyphname = uni05D9.alt;
layers = (
{
layerId = "FF2DC345-5101-49B6-97F3-57A040F7C387";
paths = (
{
closed = 1;
nodes = (
"29 17 OFFCURVE",
"99 108 OFFCURVE",
"99 152 CURVE SMOOTH",
"99 176 OFFCURVE",
"85 176 OFFCURVE",
"62 176 CURVE SMOOTH",
"61 176 OFFCURVE",
"60 176 OFFCURVE",
"59 176 CURVE SMOOTH",
"37 176 OFFCURVE",
"16 174 OFFCURVE",
"9 150 CURVE SMOOTH",
"-19 54 OFFCURVE",
"-30 49 OFFCURVE",
"-30 35 CURVE SMOOTH",
"-30 22 OFFCURVE",
"-30 17 OFFCURVE",
"-8 17 CURVE SMOOTH"
);
}
);
width = 132;
}
);
},
